<svg xmlns="http://www.w3.org/2000/svg" xmlns:xlink="http://www.w3.org/1999/xlink" width="500" zoomAndPan="magnify" viewBox="0 0 375 374.999991" height="500" preserveAspectRatio="xMidYMid meet" version="1.0"><defs><clipPath id="f82d4c9547"><path d="M 6.015625 0 L 369 0 L 369 164 L 6.015625 164 Z M 6.015625 0 " clip-rule="nonzero"/></clipPath><clipPath id="1625b5f6b6"><path d="M 6.015625 103 L 204 103 L 204 164 L 6.015625 164 Z M 6.015625 103 " clip-rule="nonzero"/></clipPath></defs><path fill="#000000" d="M 289.820312 80.683594 L 21.945312 141.847656 C 18.652344 142.671875 16.933594 139.230469 15.214844 134.296875 L 19.328125 152.167969 C 19.925781 154.933594 22.691406 156.65625 25.460938 155.980469 L 289.519531 91 C 290.941406 90.628906 291.765625 89.28125 291.464844 87.859375 Z M 289.820312 80.683594 " fill-opacity="1" fill-rule="nonzero"/><g clip-path="url(#f82d4c9547)"><path fill="#000000" d="M 368.269531 129.734375 L 365.277344 116.722656 C 364.753906 114.554688 363.40625 112.613281 361.539062 111.414062 C 351.664062 104.835938 355.179688 91.898438 359.964844 85.917969 C 361.089844 84.496094 361.539062 82.699219 361.164062 80.90625 L 353.160156 46.210938 C 348 24 292.136719 4.1875 281.742188 0.671875 C 280.695312 0.296875 279.574219 0.523438 278.675781 1.195312 L 274.113281 4.707031 C 273.21875 5.382812 273.367188 6.726562 274.339844 7.175781 L 283.539062 11.738281 L 271.648438 8.074219 C 270.75 7.773438 269.851562 8 269.105469 8.523438 L 266.1875 10.765625 C 265.664062 11.214844 265.738281 12.035156 266.414062 12.335938 C 329.679688 39.40625 315.171875 54.957031 315.171875 54.957031 L 292.210938 60.269531 C 290.269531 60.714844 288.996094 62.585938 289.296875 64.53125 C 288.699219 64.378906 288.023438 64.304688 287.425781 64.457031 L 14.464844 123.230469 C 9.304688 124.351562 6.015625 129.511719 7.210938 134.671875 L 12.148438 156.054688 C 13.34375 161.214844 18.578125 164.429688 23.738281 163.160156 L 294.753906 96.308594 C 295.429688 96.160156 295.953125 95.863281 296.402344 95.414062 C 297 97.355469 298.941406 98.480469 300.886719 98.03125 L 309.863281 95.9375 C 312.480469 95.339844 315.246094 95.5625 317.640625 96.683594 C 329.53125 102.21875 328.929688 112.984375 325.34375 119.714844 C 324.371094 121.585938 324.070312 123.828125 324.59375 125.847656 L 327.660156 139.007812 C 328.40625 142.148438 331.550781 144.09375 334.691406 143.34375 L 363.855469 136.613281 C 367.070312 136.015625 369.015625 132.875 368.269531 129.734375 Z M 293.933594 92.871094 L 22.765625 159.71875 C 19.550781 160.46875 16.335938 158.449219 15.589844 155.234375 L 10.652344 133.847656 C 9.90625 130.632812 11.921875 127.417969 15.140625 126.667969 L 288.175781 67.894531 C 288.398438 67.820312 288.546875 67.96875 288.625 68.195312 L 289.148438 70.511719 L 92.242188 114.554688 L 290.042969 74.402344 L 294.230469 92.421875 C 294.230469 92.644531 294.082031 92.871094 293.933594 92.871094 Z M 297.222656 75.820312 L 294.90625 65.949219 C 294.605469 64.605469 295.429688 63.332031 296.773438 62.960938 L 316.964844 58.324219 C 324.070312 56.679688 319.433594 46.582031 319.433594 46.582031 C 319.433594 46.582031 332.597656 64.457031 324.21875 66.398438 C 315.769531 68.34375 301.5625 71.632812 301.5625 71.632812 C 297.972656 72.382812 297.746094 74.027344 297.222656 75.820312 Z M 314.648438 89.207031 L 304.777344 91.523438 C 302.757812 91.972656 300.738281 90.703125 300.289062 88.683594 L 299.992188 87.488281 C 300.214844 87.785156 300.4375 88.011719 300.738281 88.160156 C 300.960938 88.308594 301.113281 88.382812 301.335938 88.535156 C 301.335938 88.535156 301.410156 88.535156 301.410156 88.609375 C 301.484375 88.609375 301.5625 88.683594 301.5625 88.683594 C 301.636719 88.683594 301.636719 88.683594 301.710938 88.757812 C 301.785156 88.757812 301.859375 88.832031 301.933594 88.832031 C 302.007812 88.832031 302.085938 88.832031 302.160156 88.90625 C 302.234375 88.90625 302.234375 88.90625 302.308594 88.90625 C 302.382812 88.90625 302.457031 88.90625 302.53125 88.90625 C 302.53125 88.90625 302.609375 88.90625 302.609375 88.90625 C 302.683594 88.90625 302.832031 88.90625 302.90625 88.90625 C 302.90625 88.90625 302.980469 88.90625 302.980469 88.90625 C 303.054688 88.90625 303.132812 88.90625 303.28125 88.90625 C 303.28125 88.90625 303.355469 88.90625 303.355469 88.90625 C 303.503906 88.90625 303.578125 88.90625 303.730469 88.832031 L 304.328125 88.683594 L 304.550781 88.609375 L 312.40625 86.8125 L 313.152344 86.664062 C 321.976562 84.644531 327.511719 91.074219 330.203125 96.160156 C 328.035156 93.246094 320.183594 87.933594 314.648438 89.207031 Z M 362.585938 132.203125 L 356.675781 133.546875 C 357.425781 132.800781 357.871094 131.605469 357.574219 130.484375 L 355.253906 120.539062 C 355.105469 119.789062 354.65625 119.191406 354.058594 118.816406 C 347.027344 114.40625 344.859375 108.871094 344.261719 104.984375 C 343.363281 99.152344 345.085938 92.871094 349.570312 86.289062 C 350.542969 84.871094 350.84375 83.074219 350.46875 81.355469 L 345.085938 58.097656 C 339.773438 34.992188 319.433594 21.160156 304.851562 14.054688 C 309.636719 16.074219 314.722656 18.46875 319.734375 21.011719 C 344.039062 33.496094 349.347656 42.546875 350.320312 46.808594 L 351.664062 52.640625 L 357.871094 79.484375 C 358.246094 81.207031 357.949219 82.925781 356.976562 84.421875 C 352.5625 91 350.84375 97.207031 351.742188 103.039062 C 352.339844 106.929688 354.507812 112.386719 361.460938 116.800781 C 362.0625 117.171875 362.433594 117.769531 362.585938 118.445312 L 364.828125 128.3125 C 365.425781 130.035156 364.304688 131.828125 362.585938 132.203125 Z M 362.585938 132.203125 " fill-opacity="1" fill-rule="nonzero"/></g><path fill="#000000" d="M 28.601562 135.269531 C 90.148438 123.378906 151.320312 109.695312 212.042969 94.140625 C 150.496094 105.957031 89.324219 119.714844 28.601562 135.269531 Z M 28.601562 135.269531 " fill-opacity="1" fill-rule="nonzero"/><path fill="#ffffff" d="M 290.042969 74.476562 L 92.242188 114.628906 L 289.148438 70.585938 L 288.625 68.269531 C 288.546875 68.042969 288.398438 67.96875 288.175781 67.96875 L 15.140625 126.742188 C 11.921875 127.492188 9.90625 130.707031 10.652344 133.921875 L 15.589844 155.308594 C 16.335938 158.523438 19.550781 160.542969 22.765625 159.796875 L 293.933594 92.945312 C 294.15625 92.871094 294.230469 92.722656 294.230469 92.496094 Z M 212.042969 94.066406 C 151.320312 109.621094 90.148438 123.304688 28.601562 135.195312 C 89.324219 119.714844 150.496094 105.957031 212.042969 94.066406 Z M 289.519531 91 L 25.382812 155.980469 C 22.691406 156.65625 19.925781 154.933594 19.253906 152.167969 L 15.140625 134.296875 C 16.933594 139.230469 18.578125 142.671875 21.871094 141.847656 L 289.746094 80.683594 L 291.390625 87.785156 C 291.765625 89.207031 290.941406 90.628906 289.519531 91 Z M 289.519531 91 " fill-opacity="1" fill-rule="nonzero"/><path fill="#ffffff" d="M 365.050781 128.3125 L 362.808594 118.445312 C 362.660156 117.769531 362.210938 117.097656 361.6875 116.800781 C 354.730469 112.460938 352.5625 106.929688 351.964844 103.039062 C 351.066406 97.28125 352.789062 91 357.199219 84.421875 C 358.171875 83 358.472656 81.207031 358.097656 79.484375 L 351.890625 52.640625 L 350.542969 46.808594 C 349.570312 42.546875 344.261719 33.496094 319.957031 21.011719 C 314.945312 18.46875 309.863281 16.074219 305.074219 14.054688 C 319.660156 21.160156 339.925781 34.992188 345.308594 58.097656 L 350.695312 81.355469 C 351.066406 83.074219 350.769531 84.871094 349.796875 86.289062 C 345.382812 92.871094 343.589844 99.152344 344.488281 104.984375 C 345.085938 108.871094 347.328125 114.40625 354.285156 118.816406 C 354.882812 119.191406 355.253906 119.789062 355.480469 120.539062 L 357.796875 130.484375 C 358.097656 131.605469 357.648438 132.800781 356.902344 133.546875 L 362.808594 132.203125 C 364.304688 131.828125 365.425781 130.035156 365.050781 128.3125 Z M 365.050781 128.3125 " fill-opacity="1" fill-rule="nonzero"/><path fill="#ffffff" d="M 313.078125 86.589844 L 312.328125 86.738281 L 304.476562 88.535156 L 304.253906 88.609375 L 303.65625 88.757812 C 303.503906 88.757812 303.429688 88.832031 303.28125 88.832031 C 303.28125 88.832031 303.207031 88.832031 303.207031 88.832031 C 303.132812 88.832031 303.054688 88.832031 302.90625 88.832031 C 302.90625 88.832031 302.832031 88.832031 302.832031 88.832031 C 302.757812 88.832031 302.609375 88.832031 302.53125 88.832031 C 302.53125 88.832031 302.457031 88.832031 302.457031 88.832031 C 302.382812 88.832031 302.308594 88.832031 302.234375 88.832031 C 302.160156 88.832031 302.160156 88.832031 302.085938 88.832031 C 302.007812 88.832031 301.933594 88.832031 301.859375 88.757812 C 301.785156 88.757812 301.710938 88.683594 301.636719 88.683594 C 301.5625 88.683594 301.5625 88.683594 301.484375 88.609375 C 301.410156 88.609375 301.335938 88.535156 301.335938 88.535156 C 301.335938 88.535156 301.261719 88.535156 301.261719 88.457031 C 301.039062 88.382812 300.8125 88.234375 300.664062 88.085938 C 300.363281 87.859375 300.140625 87.636719 299.914062 87.410156 L 300.214844 88.609375 C 300.664062 90.628906 302.683594 91.898438 304.703125 91.449219 L 314.574219 89.132812 C 320.183594 87.859375 327.960938 93.167969 330.054688 96.011719 C 327.4375 91 321.902344 84.570312 313.078125 86.589844 Z M 313.078125 86.589844 " fill-opacity="1" fill-rule="nonzero"/><path fill="#ffffff" d="M 324.21875 66.324219 C 332.671875 64.378906 319.433594 46.507812 319.433594 46.507812 C 319.433594 46.507812 324.070312 56.605469 316.964844 58.25 L 296.773438 62.886719 C 295.429688 63.183594 294.605469 64.53125 294.90625 65.875 L 297.222656 75.746094 C 297.746094 73.953125 297.972656 72.382812 301.5625 71.558594 C 301.5625 71.558594 315.84375 68.269531 324.21875 66.324219 Z M 324.21875 66.324219 " fill-opacity="1" fill-rule="nonzero"/><path fill="#ffffff" d="M 113.777344 115.152344 C 114.601562 117.246094 115.425781 119.191406 116.246094 120.910156 C 116.320312 121.0625 116.394531 121.136719 116.394531 121.285156 C 117.21875 122.929688 117.964844 124.5 118.863281 126.070312 C 119.539062 127.265625 120.285156 128.988281 121.40625 129.808594 C 121.480469 129.808594 121.480469 129.882812 121.554688 129.882812 C 121.855469 130.035156 122.15625 130.183594 122.527344 130.257812 C 126.042969 131.15625 129.78125 131.304688 132.847656 129.210938 C 134.941406 127.789062 136.4375 125.546875 137.035156 123.15625 C 137.1875 122.707031 137.261719 122.183594 137.261719 121.660156 C 137.113281 121.359375 136.960938 120.910156 136.8125 120.386719 C 135.464844 116.800781 134.195312 113.210938 133 109.621094 C 130.382812 101.621094 128.0625 93.46875 126.492188 85.167969 C 126.492188 85.09375 126.492188 84.945312 126.417969 84.871094 C 126.417969 84.871094 126.417969 84.792969 126.34375 84.71875 C 126.269531 84.570312 126.117188 84.269531 125.96875 83.972656 C 125.96875 83.898438 125.894531 83.898438 125.894531 83.824219 C 124.097656 81.28125 120.585938 81.652344 117.964844 82.550781 C 116.023438 83.222656 114.226562 84.347656 112.65625 85.617188 C 112.507812 85.691406 112.433594 85.765625 112.359375 85.917969 C 111.386719 86.738281 110.5625 87.5625 109.964844 88.382812 C 109.890625 88.457031 109.816406 88.609375 109.742188 88.683594 C 109.292969 89.355469 109.21875 90.027344 109.21875 90.777344 C 108.992188 99.003906 111.011719 107.152344 113.703125 114.929688 C 113.777344 115.078125 113.777344 115.152344 113.777344 115.152344 Z M 113.777344 115.152344 " fill-opacity="1" fill-rule="nonzero"/><path fill="#ffffff" d="M 170.839844 85.917969 C 173.230469 85.09375 175.699219 84.347656 178.09375 83.597656 C 179.960938 83 181.90625 82.402344 184.074219 81.804688 C 184.074219 81.652344 184.074219 81.503906 184.074219 81.355469 C 184.074219 78.066406 183.925781 74.847656 183.925781 71.558594 C 183.851562 68.941406 184.148438 66.101562 183.328125 63.558594 C 182.730469 61.539062 181.53125 59.746094 180.113281 58.25 C 179.214844 57.351562 178.242188 56.527344 176.972656 56.230469 C 175.773438 55.929688 174.578125 56.230469 173.457031 56.527344 C 169.71875 57.425781 166.050781 58.699219 162.464844 59.96875 C 161.265625 60.417969 160.070312 60.867188 159.246094 61.761719 C 158.574219 62.585938 158.199219 63.632812 157.976562 64.679688 C 157.226562 67.894531 157.078125 71.183594 157.304688 74.550781 L 157.378906 75.296875 C 158.273438 85.691406 160.445312 96.160156 163.285156 106.253906 C 163.585938 107.300781 163.957031 108.347656 164.257812 109.394531 C 164.558594 110.441406 164.929688 111.488281 165.605469 112.3125 C 166.203125 113.058594 166.949219 113.582031 167.773438 114.03125 C 168.671875 114.480469 169.640625 114.78125 170.613281 114.929688 C 170.6875 114.929688 170.839844 114.929688 170.914062 115.003906 C 172.632812 115.304688 174.503906 115.230469 176.449219 114.855469 C 177.644531 114.628906 178.914062 114.257812 180.039062 113.660156 C 180.5625 113.359375 181.085938 113.058594 181.609375 112.6875 C 181.832031 112.535156 182.054688 112.3125 182.28125 112.089844 C 182.355469 112.011719 182.804688 111.488281 182.878906 111.488281 C 182.65625 111.414062 182.429688 111.414062 182.207031 111.339844 C 181.90625 111.265625 181.609375 111.265625 181.308594 111.191406 C 177.792969 110.441406 174.429688 108.648438 171.960938 105.957031 C 170.914062 104.910156 170.015625 103.714844 169.195312 102.367188 C 168.746094 101.695312 168.371094 100.945312 168.070312 100.199219 C 168.070312 100.199219 168.070312 100.125 167.996094 100.125 C 167.921875 100.050781 167.921875 99.898438 167.847656 99.824219 C 167.023438 97.957031 166.351562 95.863281 165.902344 93.617188 C 164.929688 89.730469 167.625 87.113281 170.839844 85.917969 Z M 170.839844 85.917969 " fill-opacity="1" fill-rule="nonzero"/><path fill="#ffffff" d="M 187.738281 66.25 C 187.738281 66.324219 187.738281 66.398438 187.816406 66.550781 C 187.890625 66.921875 187.890625 67.296875 187.890625 67.746094 C 187.890625 68.042969 187.890625 68.34375 187.890625 68.71875 C 187.890625 69.242188 187.890625 69.765625 187.964844 70.214844 C 187.964844 70.886719 188.039062 71.632812 188.039062 72.308594 C 188.113281 74.699219 188.113281 77.019531 188.113281 79.410156 C 188.113281 79.859375 188.113281 80.308594 188.113281 80.832031 C 188.113281 80.832031 188.414062 80.757812 188.488281 80.757812 C 194.695312 79.035156 201.050781 77.542969 207.40625 76.496094 C 208.230469 76.34375 209.054688 76.195312 209.875 76.121094 C 210.25 76.046875 210.550781 76.046875 210.921875 75.972656 C 210.996094 75.972656 211.894531 75.820312 211.894531 75.820312 C 211.894531 75.074219 211.820312 74.324219 211.746094 73.578125 C 211.519531 71.261719 211.222656 68.867188 210.699219 66.625 C 210.175781 64.457031 209.425781 62.734375 208.53125 62.210938 C 205.613281 60.34375 199.707031 60.566406 195.292969 60.792969 C 194.546875 60.792969 193.871094 60.867188 193.125 60.867188 C 192.75 60.867188 192.300781 60.867188 191.929688 60.941406 C 191.40625 61.015625 191.03125 61.238281 190.582031 61.539062 C 189.460938 62.363281 188.636719 63.78125 188.113281 64.828125 C 187.964844 65.054688 187.890625 65.351562 187.816406 65.578125 C 187.738281 65.726562 187.738281 65.875 187.816406 66.027344 C 187.664062 66.027344 187.738281 66.101562 187.738281 66.25 Z M 187.738281 66.25 " fill-opacity="1" fill-rule="nonzero"/><path fill="#ffffff" d="M 236.574219 128.015625 C 236.574219 129.359375 236.425781 130.632812 236.199219 131.902344 C 235.601562 134.96875 234.332031 138.859375 232.535156 143.269531 C 230.742188 147.832031 228.347656 152.992188 225.804688 158.226562 C 225.429688 158.449219 225.058594 158.75 224.609375 158.972656 C 224.457031 159.121094 224.234375 159.195312 224.085938 159.273438 C 223.261719 159.644531 222.441406 160.019531 221.617188 160.242188 C 220.71875 160.542969 219.820312 160.691406 218.851562 160.765625 C 217.953125 160.84375 217.128906 160.84375 216.234375 160.765625 C 216.234375 160.765625 216.605469 160.992188 217.128906 161.441406 C 218.328125 162.488281 219.222656 163.832031 219.523438 165.402344 C 219.820312 166.972656 219.523438 168.46875 218.773438 169.816406 C 218.25 170.789062 217.355469 172.207031 216.15625 173.851562 C 216.082031 173.929688 216.007812 174.078125 215.933594 174.152344 C 215.859375 174.226562 215.859375 174.300781 215.785156 174.375 C 215.632812 174.527344 215.558594 174.75 215.410156 174.898438 C 210.773438 180.957031 205.6875 186.640625 199.929688 191.574219 C 196.5625 194.492188 193.050781 197.332031 189.234375 199.578125 C 186.167969 201.371094 183.101562 202.71875 180.1875 203.316406 C 170.988281 205.335938 158.273438 204.363281 159.472656 182.828125 C 159.472656 182.828125 154.609375 194.492188 164.40625 204.4375 C 172.410156 212.585938 174.054688 212.960938 177.269531 218.121094 C 179.289062 221.335938 182.878906 222.980469 186.46875 222.609375 C 186.769531 222.609375 187.066406 222.53125 187.367188 222.457031 C 187.441406 222.457031 187.589844 222.382812 187.664062 222.382812 C 187.738281 222.382812 187.890625 222.308594 187.964844 222.308594 C 188.113281 222.308594 188.1875 222.234375 188.339844 222.234375 C 188.414062 222.234375 188.488281 222.160156 188.5625 222.160156 C 188.636719 222.160156 188.785156 222.085938 188.863281 222.007812 C 189.832031 221.636719 190.730469 221.039062 191.480469 220.4375 C 192.75 224.703125 197.3125 239.804688 200.976562 252.070312 C 201.722656 257.304688 202.695312 367.148438 204.117188 374.328125 L 131.128906 374.328125 C 133 366.476562 136.8125 259.097656 137.859375 251.917969 C 139.503906 240.328125 130.605469 238.386719 130.605469 238.386719 C 136.960938 234.421875 140.027344 242.574219 152.367188 233.75 C 153.414062 233 154.609375 232.105469 155.808594 231.058594 C 154.6875 231.355469 153.636719 231.582031 152.667969 231.804688 C 132.027344 236.140625 142.347656 223.503906 153.488281 222.308594 C 153.488281 222.308594 153.5625 222.308594 153.5625 222.308594 C 149.449219 221.785156 145.488281 220.738281 141.597656 219.242188 C 138.007812 217.820312 134.492188 216.027344 131.351562 213.785156 C 129.183594 212.289062 127.164062 210.492188 125.144531 208.847656 C 120.0625 204.585938 114.453125 198.53125 109.21875 176.769531 C 108.769531 174.75 108.171875 172.207031 107.570312 169.292969 C 107.648438 167.570312 107.796875 165.925781 107.945312 164.207031 C 108.09375 162.261719 108.171875 160.167969 107.796875 156.878906 C 107.796875 156.878906 107.796875 156.878906 107.796875 156.804688 C 107.273438 153.4375 106.601562 150.074219 105.851562 146.710938 C 104.058594 139.007812 110.5625 136.316406 110.113281 133.546875 C 106.601562 138.410156 102.636719 133.25 107.199219 130.707031 C 108.019531 130.257812 104.503906 127.265625 103.160156 129.0625 C 105.851562 123.003906 111.234375 130.929688 114.078125 129.585938 C 112.058594 127.640625 105.554688 119.265625 107.421875 117.171875 C 108.320312 116.199219 109.589844 117.171875 110.789062 118.445312 C 110.863281 118.59375 110.9375 118.742188 111.011719 118.890625 C 111.386719 119.863281 111.835938 120.761719 112.207031 121.585938 C 113.554688 124.425781 114.976562 127.265625 116.621094 129.960938 C 116.84375 130.257812 116.996094 130.632812 117.21875 130.929688 L 117.292969 131.082031 L 117.292969 131.15625 C 118.265625 132.652344 119.761719 133.773438 121.632812 134.296875 C 121.855469 134.371094 122.078125 134.445312 122.378906 134.445312 C 122.453125 134.445312 122.601562 134.519531 122.679688 134.519531 C 122.679688 134.519531 122.753906 134.519531 122.753906 134.519531 C 125.820312 135.117188 129.035156 135.195312 132.027344 134.222656 C 134.046875 133.546875 135.914062 132.351562 137.335938 130.78125 C 138.082031 129.960938 138.757812 128.988281 139.355469 128.089844 C 140.027344 127.117188 140.550781 125.996094 140.777344 124.800781 C 140.777344 124.726562 140.851562 124.574219 140.851562 124.5 C 140.851562 124.5 142.347656 125.097656 142.496094 125.171875 C 143.09375 125.398438 143.691406 125.621094 144.289062 125.773438 C 145.636719 126.144531 146.984375 126.296875 148.328125 126.371094 C 148.328125 126.371094 148.402344 126.371094 148.402344 126.371094 C 143.84375 129.882812 139.652344 133.773438 135.839844 138.035156 C 133.96875 140.203125 132.175781 142.445312 130.605469 144.839844 C 129.78125 146.035156 129.109375 147.234375 128.4375 148.503906 C 129.257812 147.234375 130.082031 145.960938 131.054688 144.765625 C 131.726562 144.09375 132.25 143.269531 132.847656 142.597656 C 133.523438 141.847656 134.195312 141.101562 134.941406 140.351562 C 138.382812 136.6875 142.273438 133.398438 146.382812 130.484375 C 149.300781 128.390625 152.367188 126.519531 155.507812 124.875 C 156.480469 124.351562 157.378906 123.679688 158.351562 123.15625 C 158.425781 123.078125 158.5 123.078125 158.648438 123.003906 C 158.722656 122.929688 158.875 122.855469 158.949219 122.855469 C 160.292969 122.109375 161.714844 121.433594 163.0625 120.835938 C 162.464844 121.285156 161.941406 121.808594 161.417969 122.332031 C 157.527344 126.296875 155.210938 131.378906 154.238281 136.839844 C 154.238281 136.988281 154.164062 137.136719 154.164062 137.289062 C 154.164062 137.4375 154.085938 137.660156 154.085938 137.8125 C 153.789062 140.128906 153.789062 142.445312 154.085938 144.765625 C 154.460938 142.296875 155.058594 139.828125 155.882812 137.4375 C 156.03125 137.4375 157.152344 134.148438 157.304688 133.847656 C 157.976562 132.5 158.648438 131.15625 159.546875 129.882812 C 161.417969 127.042969 163.808594 124.351562 166.726562 122.480469 C 167.175781 122.183594 167.625 121.882812 168.148438 121.585938 C 168.296875 121.507812 168.445312 121.433594 168.59375 121.359375 C 169.042969 121.136719 169.417969 120.910156 169.867188 120.6875 C 171.210938 120.015625 172.632812 119.492188 174.128906 119.117188 C 176.148438 118.96875 178.09375 118.59375 179.886719 117.921875 C 180.5625 117.695312 181.53125 117.769531 182.207031 117.695312 C 182.953125 117.621094 183.703125 117.621094 184.449219 117.546875 C 186.167969 117.472656 187.890625 117.546875 189.609375 117.546875 C 192.976562 117.695312 196.414062 117.996094 199.78125 118.367188 C 195.070312 116.425781 190.132812 115.226562 185.046875 114.78125 C 185.121094 114.703125 185.199219 114.628906 185.273438 114.554688 C 185.945312 113.808594 186.542969 112.984375 186.992188 112.085938 C 186.992188 112.011719 187.066406 111.9375 187.066406 111.9375 C 187.066406 111.9375 187.066406 111.863281 187.066406 111.863281 C 187.066406 111.863281 187.066406 111.863281 187.066406 111.789062 C 187.292969 111.714844 187.515625 111.714844 187.738281 111.640625 C 187.738281 111.640625 187.816406 111.640625 187.816406 111.640625 C 191.777344 110.816406 195.742188 109.917969 199.554688 108.5 C 200.828125 108.050781 202.097656 107.527344 203.371094 106.929688 C 202.847656 111.191406 202.921875 115.527344 203.742188 119.714844 C 203.59375 119.789062 203.371094 119.863281 203.21875 120.015625 C 203.070312 120.089844 202.847656 120.164062 202.695312 120.3125 C 202.171875 120.539062 201.722656 120.835938 201.199219 121.0625 C 201.125 121.0625 201.050781 121.136719 201.050781 121.136719 C 201.050781 121.136719 200.976562 121.136719 200.976562 121.136719 C 200.902344 121.210938 200.828125 121.210938 200.753906 121.285156 C 200.675781 121.359375 200.601562 121.359375 200.527344 121.433594 C 200.527344 121.433594 200.527344 121.433594 200.453125 121.433594 L 200.378906 121.507812 C 197.238281 123.15625 193.871094 125.023438 190.65625 127.042969 C 190.28125 127.265625 189.832031 127.566406 189.460938 127.789062 C 188.339844 128.464844 187.292969 129.210938 186.167969 129.960938 C 185.945312 130.109375 185.722656 130.257812 185.496094 130.484375 C 185.347656 130.632812 185.199219 130.707031 184.972656 130.855469 C 184.675781 131.082031 184.375 131.304688 184.074219 131.53125 C 183.101562 132.277344 182.132812 133.023438 181.160156 133.773438 C 176.894531 137.210938 172.933594 141.25 169.941406 145.886719 C 167.023438 150.375 165.15625 155.609375 164.929688 160.992188 C 165.082031 159.71875 165.230469 158.523438 165.527344 157.328125 C 165.527344 157.328125 165.527344 157.253906 165.527344 157.253906 C 169.640625 140.351562 189.535156 130.035156 204.640625 123.679688 C 205.613281 126.96875 207.035156 130.183594 208.980469 133.023438 C 207.40625 129.882812 206.4375 126.519531 205.914062 123.15625 C 205.914062 122.929688 205.835938 122.632812 205.835938 122.40625 C 205.089844 116.5 205.761719 110.441406 207.707031 104.835938 C 208.828125 104.160156 209.949219 103.488281 210.996094 102.664062 C 210.847656 102.742188 210.699219 102.816406 210.550781 102.890625 C 209.578125 103.414062 208.605469 103.863281 207.558594 104.234375 C 207.257812 104.386719 206.960938 104.460938 206.660156 104.609375 C 205.613281 104.984375 204.566406 105.359375 203.445312 105.65625 C 201.351562 106.253906 199.257812 106.703125 197.164062 107.003906 C 196.714844 107.078125 196.339844 107.152344 195.890625 107.226562 C 194.621094 107.375 193.421875 107.527344 192.152344 107.675781 C 190.132812 107.824219 188.113281 108.050781 186.09375 107.976562 C 184.523438 107.898438 182.878906 107.824219 181.382812 107.453125 C 180.039062 107.152344 178.765625 106.628906 177.644531 105.957031 C 175.402344 104.683594 173.679688 102.742188 172.410156 100.570312 C 171.8125 99.601562 171.289062 98.554688 170.914062 97.507812 C 170.464844 96.386719 169.867188 94.140625 169.867188 94.140625 C 169.792969 93.769531 169.71875 93.394531 169.640625 93.09375 C 169.492188 92.199219 169.867188 91.300781 170.539062 90.851562 C 170.6875 90.777344 170.839844 90.628906 171.0625 90.628906 C 171.734375 90.402344 172.484375 90.179688 173.308594 89.878906 C 173.753906 89.730469 174.203125 89.503906 174.726562 89.429688 C 175.699219 89.132812 176.671875 88.757812 177.792969 88.457031 C 181.308594 87.335938 184.898438 86.289062 188.488281 85.242188 C 193.125 83.972656 197.835938 82.777344 202.546875 81.804688 C 203.894531 81.503906 205.238281 81.28125 206.511719 81.054688 C 209.726562 80.457031 212.941406 79.933594 216.15625 79.785156 C 216.679688 79.785156 217.203125 79.710938 217.726562 79.636719 C 218.175781 79.558594 218.625 79.558594 219.148438 79.710938 C 219.820312 79.933594 220.421875 80.382812 220.867188 80.757812 C 221.691406 81.503906 222.515625 82.402344 223.410156 83.597656 C 224.757812 85.46875 225.804688 87.410156 226.777344 89.429688 C 227.75 91.449219 228.648438 93.542969 229.394531 95.636719 C 231.710938 101.617188 233.433594 107.824219 234.703125 114.105469 C 235.226562 116.5 235.601562 118.96875 235.976562 121.359375 C 236.273438 123.230469 236.574219 125.695312 236.574219 128.015625 Z M 236.574219 128.015625 " fill-opacity="1" fill-rule="nonzero"/><path fill="#ffffff" d="M 141 120.089844 C 141.148438 120.089844 141.449219 120.3125 141.597656 120.386719 C 143.242188 121.0625 144.890625 121.660156 146.609375 122.03125 C 148.179688 122.40625 149.972656 122.707031 151.542969 122.183594 C 155.808594 120.835938 161.339844 116.050781 161.640625 113.507812 C 161.640625 113.507812 161.640625 113.433594 161.566406 113.433594 C 161.492188 113.359375 161.492188 113.210938 161.417969 113.058594 C 161.417969 112.984375 161.339844 112.910156 161.339844 112.835938 C 161.191406 112.535156 161.117188 112.238281 160.96875 111.9375 C 157.003906 101.769531 155.210938 90.253906 153.863281 79.410156 C 153.636719 77.617188 153.636719 75.597656 152.890625 73.878906 C 152.441406 72.90625 151.621094 72.007812 150.945312 71.261719 C 150.347656 70.585938 149.601562 69.613281 148.554688 69.613281 C 147.65625 69.613281 144.964844 70.363281 142.046875 71.335938 C 139.429688 72.15625 136.886719 73.054688 134.34375 74.175781 C 133.671875 74.476562 133.074219 74.773438 132.773438 75 C 132.101562 75.597656 131.277344 78.738281 130.828125 82.175781 C 130.828125 82.328125 130.828125 82.402344 130.753906 82.550781 C 130.753906 82.550781 130.753906 82.625 130.753906 82.625 C 130.679688 83.222656 130.605469 83.898438 130.605469 84.496094 C 131.054688 87.261719 131.726562 90.328125 132.476562 93.394531 C 132.699219 94.441406 133 95.488281 133.296875 96.460938 C 133.296875 96.984375 133.671875 97.730469 133.820312 98.253906 C 135.617188 104.386719 137.558594 110.519531 139.804688 116.574219 C 140.253906 118.144531 140.699219 119.339844 141 120.089844 Z M 141 120.089844 " fill-opacity="1" fill-rule="nonzero"/><path fill="#e6e6e6" d="M 236.5 130.332031 C 232.535156 113.210938 225.65625 92.421875 221.839844 90.253906 C 218.027344 88.085938 205.613281 88.011719 199.78125 89.429688 C 193.945312 90.851562 181.980469 94.589844 176.820312 93.84375 C 173.230469 93.246094 171.660156 91.375 171.0625 90.179688 C 171.0625 90.179688 171.0625 90.179688 171.136719 90.179688 C 172.933594 89.582031 175.175781 88.832031 177.792969 88.011719 C 189.683594 84.195312 201.949219 80.832031 214.289062 79.410156 C 215.035156 79.335938 215.710938 79.261719 216.457031 79.261719 C 217.128906 79.1875 217.726562 79.1875 218.328125 79.113281 C 219.222656 79.035156 220.195312 79.710938 220.867188 80.308594 C 227.824219 86.363281 235.824219 110.441406 236.648438 128.164062 C 236.648438 128.761719 236.574219 129.511719 236.5 130.332031 Z M 187.738281 66.25 C 187.738281 66.550781 187.816406 66.847656 187.816406 67.148438 C 187.816406 67.671875 187.664062 68.121094 187.890625 68.566406 C 189.535156 73.054688 205.761719 73.878906 210.996094 67.96875 C 211.074219 67.894531 210.921875 67.519531 210.921875 67.445312 C 210.847656 67.148438 210.773438 66.847656 210.699219 66.550781 C 210.472656 65.652344 210.175781 64.753906 209.875 63.933594 C 209.578125 63.183594 209.203125 62.4375 208.53125 61.988281 C 206.660156 60.792969 204.117188 60.566406 201.949219 60.492188 C 199.332031 60.34375 196.789062 60.566406 194.171875 60.640625 C 193.796875 60.640625 193.347656 60.640625 192.976562 60.640625 C 192.152344 60.640625 191.328125 60.867188 190.65625 61.316406 C 189.535156 62.136719 188.710938 63.558594 188.1875 64.605469 C 188.039062 64.980469 187.890625 65.277344 187.816406 65.652344 C 187.664062 65.875 187.664062 66.101562 187.738281 66.25 Z M 122.976562 82.101562 C 121.109375 81.730469 118.863281 82.253906 117.21875 83 C 114.527344 84.121094 111.757812 86.140625 109.964844 88.457031 C 109.890625 88.535156 109.816406 88.683594 109.742188 88.757812 C 109.589844 89.058594 109.441406 89.355469 109.367188 89.730469 C 111.757812 97.132812 126.714844 89.65625 125.820312 83.746094 C 125.070312 82.777344 124.097656 82.328125 122.976562 82.101562 Z M 183.703125 65.277344 C 183.703125 65.203125 183.703125 65.128906 183.703125 65.054688 C 183.625 64.753906 183.625 64.082031 183.550781 63.933594 C 183.402344 63.484375 183.253906 62.960938 182.953125 62.511719 C 182.207031 60.941406 181.160156 59.445312 179.886719 58.175781 C 178.839844 57.128906 177.644531 56.304688 176.597656 56.15625 C 176.597656 56.15625 176.597656 56.15625 176.523438 56.15625 C 176.449219 56.15625 176.371094 56.15625 176.296875 56.15625 C 174.953125 56.15625 173.605469 56.453125 172.335938 56.828125 C 172.257812 56.828125 172.183594 56.828125 172.109375 56.902344 C 169.34375 57.652344 166.652344 58.472656 163.957031 59.445312 C 163.433594 59.667969 162.835938 59.820312 162.238281 60.042969 C 161.566406 60.269531 160.816406 60.492188 160.144531 60.867188 C 158.949219 61.613281 158.125 62.734375 157.828125 64.15625 C 157.675781 64.980469 157.453125 65.800781 157.378906 66.625 C 157.304688 66.921875 157.304688 67.222656 157.226562 67.445312 C 157.152344 67.671875 157.078125 67.96875 157.078125 68.195312 C 156.929688 69.988281 158.796875 70.660156 160.519531 71.410156 C 167.25 74.25 180.410156 72.308594 183.703125 65.277344 Z M 151.097656 71.484375 C 150.722656 71.035156 150.347656 70.660156 149.972656 70.363281 C 149.601562 69.988281 149.003906 69.613281 148.480469 69.613281 C 147.582031 69.613281 144.890625 70.363281 141.898438 71.335938 C 139.28125 72.15625 136.738281 73.128906 134.195312 74.175781 C 133.523438 74.476562 132.921875 74.773438 132.625 75 C 131.953125 75.597656 131.128906 78.738281 130.679688 82.175781 C 130.679688 82.328125 130.679688 82.402344 130.605469 82.550781 C 136.140625 87.410156 152.589844 79.335938 152.144531 73.054688 C 151.84375 72.457031 151.46875 72.007812 151.097656 71.484375 Z M 151.097656 71.484375 " fill-opacity="1" fill-rule="nonzero"/><path fill="#f2f2f2" d="M 182.730469 97.058594 C 172.558594 98.480469 169.867188 93.691406 169.867188 93.691406 C 169.792969 93.320312 169.71875 92.945312 169.640625 92.644531 C 169.492188 91.75 169.867188 90.851562 170.539062 90.402344 C 170.6875 90.328125 170.839844 90.179688 171.0625 90.179688 C 171.734375 89.953125 172.484375 89.730469 173.308594 89.429688 C 173.753906 89.28125 174.203125 89.058594 174.726562 88.980469 C 175.699219 88.683594 176.671875 88.308594 177.792969 88.011719 C 181.308594 86.886719 184.898438 85.839844 188.488281 84.792969 C 194.171875 93.84375 190.058594 96.011719 182.730469 97.058594 Z M 182.730469 97.058594 " fill-opacity="1" fill-rule="nonzero"/><path fill="#b3b3b3" d="M 148.480469 126.21875 C 147.132812 126.21875 145.785156 125.996094 144.515625 125.621094 C 144.214844 125.546875 143.992188 125.472656 143.691406 125.398438 C 143.46875 125.324219 140.925781 124.5 141 124.425781 C 141 124.5 140.925781 124.648438 140.925781 124.726562 C 140.925781 124.726562 140.925781 124.800781 140.925781 124.800781 C 139.878906 128.015625 137.859375 130.855469 135.015625 132.726562 C 134.34375 133.175781 133.671875 133.546875 132.921875 133.847656 C 132.398438 134.070312 131.875 134.222656 131.351562 134.371094 C 130.753906 134.519531 130.230469 134.671875 129.632812 134.746094 C 129.035156 134.820312 128.363281 134.894531 127.6875 134.894531 C 127.015625 134.894531 126.269531 134.894531 125.59375 134.820312 C 124.847656 134.746094 124.097656 134.671875 123.277344 134.519531 C 122.753906 134.445312 122.15625 134.296875 121.632812 134.148438 C 119.835938 133.699219 118.265625 132.578125 117.292969 131.082031 L 117.292969 131.007812 L 117.21875 130.855469 C 115.347656 127.867188 113.703125 124.726562 112.207031 121.585938 C 111.835938 120.6875 111.386719 119.789062 111.011719 118.894531 C 110.9375 118.742188 110.863281 118.59375 110.789062 118.445312 C 109.589844 117.171875 108.246094 116.277344 107.421875 117.171875 C 105.476562 119.265625 111.984375 127.640625 114.078125 129.585938 C 111.160156 130.855469 105.777344 122.929688 103.160156 129.0625 C 104.582031 127.34375 108.019531 130.257812 107.199219 130.707031 C 102.636719 133.25 106.675781 138.410156 110.113281 133.546875 C 110.5625 136.242188 104.058594 139.007812 105.851562 146.710938 C 105.851562 146.859375 105.925781 146.933594 105.925781 147.082031 C 106.75 150.597656 107.496094 154.261719 107.871094 157.851562 C 108.246094 161.664062 107.648438 165.476562 107.570312 169.292969 C 108.171875 172.132812 108.695312 174.675781 109.21875 176.769531 C 110.9375 184.023438 112.730469 189.480469 114.527344 193.820312 C 110.710938 182.675781 112.359375 173.328125 112.132812 167.871094 C 111.535156 153.066406 104.355469 140.054688 111.683594 136.539062 C 111.683594 136.539062 119.6875 145.8125 130.828125 144.839844 C 132.398438 142.445312 134.195312 140.203125 136.0625 138.035156 C 139.804688 133.546875 143.992188 129.660156 148.480469 126.21875 C 148.554688 126.21875 148.480469 126.21875 148.480469 126.21875 Z M 153.488281 222.234375 L 153.339844 222.234375 C 142.195312 223.429688 131.875 236.140625 152.515625 231.730469 C 152.515625 231.730469 152.515625 231.65625 152.515625 231.65625 C 142.871094 230.832031 153.488281 222.234375 153.488281 222.234375 Z M 182.355469 111.265625 C 181.683594 111.117188 181.007812 111.042969 180.335938 110.890625 C 180.039062 110.816406 179.738281 110.742188 179.4375 110.667969 C 179.363281 110.667969 179.289062 110.59375 179.214844 110.59375 C 177.570312 110.070312 176.074219 109.320312 174.652344 108.347656 C 172.632812 107.003906 170.988281 105.207031 169.640625 103.191406 C 169.417969 102.890625 169.269531 102.589844 169.042969 102.292969 C 167.324219 102.144531 165.453125 101.917969 164.109375 101.621094 C 163.0625 101.46875 162.238281 102.367188 162.539062 103.414062 C 162.835938 104.460938 163.0625 105.433594 163.359375 106.332031 C 163.660156 107.300781 163.957031 108.199219 164.183594 109.171875 C 164.480469 109.996094 164.707031 110.667969 164.855469 111.117188 C 165.15625 111.863281 165.679688 112.535156 166.277344 112.984375 C 166.726562 113.359375 167.324219 113.734375 167.996094 114.03125 C 168.820312 114.40625 169.792969 114.707031 170.765625 114.855469 C 170.988281 114.929688 171.136719 114.929688 171.363281 114.929688 C 172.933594 115.078125 174.652344 115.078125 176.449219 114.707031 C 178.019531 114.40625 179.363281 113.882812 180.484375 113.285156 C 180.785156 113.136719 181.160156 112.910156 181.457031 112.6875 C 181.757812 112.460938 182.054688 112.238281 182.28125 111.9375 C 182.28125 111.9375 182.355469 111.863281 182.355469 111.863281 C 182.503906 111.714844 182.65625 111.566406 182.730469 111.488281 C 182.578125 111.339844 182.503906 111.265625 182.355469 111.265625 Z M 200.828125 252.144531 C 197.089844 239.882812 192.601562 224.777344 191.328125 220.515625 C 190.582031 221.1875 189.683594 221.710938 188.710938 222.085938 C 188.339844 222.234375 187.964844 222.382812 187.589844 222.457031 C 187.214844 222.53125 186.84375 222.683594 186.46875 222.683594 C 184.972656 224.703125 183.703125 226.796875 184.148438 230.535156 C 186.691406 252.890625 191.03125 367.597656 193.945312 374.402344 L 203.96875 374.402344 C 202.621094 367.226562 201.574219 257.378906 200.828125 252.144531 Z M 203.519531 106.703125 C 203.371094 106.777344 203.21875 106.855469 203.070312 106.929688 C 199.183594 108.648438 195.070312 109.84375 190.957031 110.742188 C 189.910156 110.964844 188.863281 111.191406 187.890625 111.339844 C 187.664062 111.414062 187.441406 111.414062 187.214844 111.488281 C 187.214844 111.488281 187.214844 111.566406 187.214844 111.566406 C 187.214844 111.566406 187.214844 111.566406 187.214844 111.640625 C 187.214844 111.714844 187.140625 111.714844 187.140625 111.789062 C 186.992188 112.164062 186.769531 112.535156 186.542969 112.910156 C 186.246094 113.433594 185.871094 113.882812 185.421875 114.332031 C 185.347656 114.40625 185.273438 114.480469 185.199219 114.554688 C 190.28125 115.003906 195.21875 116.199219 199.929688 118.144531 C 196.5625 117.769531 193.199219 117.472656 189.757812 117.324219 C 188.039062 117.246094 186.320312 117.246094 184.597656 117.324219 C 183.179688 117.398438 181.382812 117.171875 180.039062 117.621094 C 178.242188 118.292969 176.296875 118.667969 174.277344 118.816406 C 172.859375 119.265625 171.4375 119.789062 170.015625 120.386719 C 166.726562 121.882812 163.882812 124.203125 161.566406 127.042969 C 159.097656 130.035156 157.378906 133.472656 156.105469 137.136719 C 160.96875 135.941406 165.753906 133.398438 167.175781 127.714844 C 167.175781 127.714844 183.777344 125.324219 186.917969 121.210938 C 186.917969 121.210938 187.515625 123.605469 188.9375 123.605469 C 188.9375 123.605469 184.300781 127.191406 181.160156 133.472656 C 182.132812 132.726562 183.027344 131.976562 184.074219 131.230469 C 186.246094 129.660156 188.414062 128.164062 190.730469 126.742188 C 192.527344 125.621094 194.394531 124.5 196.339844 123.453125 C 198.136719 122.40625 200.003906 121.433594 201.875 120.539062 C 202.097656 120.464844 203.96875 119.566406 203.96875 119.492188 C 203.070312 115.304688 202.996094 110.964844 203.519531 106.703125 Z M 152.21875 233.75 C 139.878906 242.574219 136.8125 234.496094 130.457031 238.386719 C 130.457031 238.386719 139.355469 240.328125 137.710938 251.917969 C 136.664062 259.097656 132.847656 366.476562 130.980469 374.328125 L 147.953125 374.328125 C 148.925781 364.535156 149.300781 256.707031 146.683594 248.253906 C 144.214844 240.179688 150.496094 243.394531 152.21875 233.75 Z M 161.640625 113.507812 C 161.566406 113.285156 161.417969 113.058594 161.339844 112.835938 C 161.191406 112.535156 161.117188 112.238281 160.96875 111.9375 C 152.292969 119.863281 143.019531 116.875 139.207031 115.078125 C 139.355469 115.453125 139.503906 115.902344 139.652344 116.277344 C 140.253906 117.996094 140.777344 119.339844 141.074219 120.089844 C 141.074219 120.089844 141.148438 120.089844 141.222656 120.089844 C 141.300781 120.089844 141.449219 120.164062 141.523438 120.238281 C 141.824219 120.386719 142.121094 120.539062 142.421875 120.613281 C 142.871094 120.835938 143.320312 120.988281 143.765625 121.136719 C 145.039062 121.585938 146.308594 122.035156 147.65625 122.183594 C 149.078125 122.40625 150.496094 122.480469 151.621094 122.183594 C 155.808594 120.835938 161.339844 115.976562 161.640625 113.507812 Z M 136.886719 120.464844 C 131.578125 123.304688 127.390625 124.351562 124.097656 124.351562 C 120.882812 124.351562 118.566406 123.378906 116.917969 122.257812 C 116.917969 122.332031 116.996094 122.332031 116.996094 122.40625 C 117.144531 122.707031 117.292969 123.078125 117.519531 123.378906 C 117.890625 124.125 118.265625 124.875 118.640625 125.472656 C 119.015625 126.144531 119.386719 126.820312 119.761719 127.492188 C 119.984375 127.867188 120.136719 128.164062 120.359375 128.539062 C 120.585938 128.835938 120.734375 129.210938 121.03125 129.511719 C 121.109375 129.585938 121.183594 129.660156 121.257812 129.734375 C 121.632812 130.109375 122.078125 130.332031 122.601562 130.40625 C 124.472656 130.929688 126.492188 131.15625 128.4375 130.929688 C 130.382812 130.707031 132.25 130.035156 133.746094 128.761719 C 133.96875 128.613281 134.121094 128.464844 134.34375 128.238281 C 135.691406 126.894531 136.664062 125.171875 137.113281 123.378906 C 137.113281 123.304688 137.113281 123.304688 137.113281 123.230469 C 137.261719 122.78125 137.335938 122.257812 137.335938 121.734375 C 137.261719 121.433594 137.113281 120.988281 136.886719 120.464844 Z M 232.460938 143.492188 C 228.871094 149.699219 223.710938 156.355469 217.953125 160.84375 C 220.570312 160.765625 222.738281 160.019531 224.609375 159.046875 C 225.058594 158.824219 225.429688 158.597656 225.804688 158.300781 C 228.421875 152.992188 230.742188 147.90625 232.535156 143.34375 C 232.535156 143.34375 232.460938 143.417969 232.460938 143.492188 Z M 219.597656 166.226562 C 219.597656 166 219.523438 165.777344 219.523438 165.554688 C 219.296875 164.058594 218.476562 162.785156 217.429688 161.738281 C 217.355469 161.664062 217.203125 161.515625 217.128906 161.441406 C 215.109375 162.9375 213.015625 164.207031 210.847656 165.03125 C 203.96875 167.796875 184.074219 182.003906 188.9375 198.976562 C 189.011719 199.203125 189.085938 199.425781 189.085938 199.652344 C 190.355469 198.902344 191.628906 198.082031 192.898438 197.183594 C 194.394531 196.136719 195.816406 195.015625 197.238281 193.894531 C 201.949219 190.003906 206.359375 185.667969 210.324219 181.03125 C 212.34375 178.714844 214.289062 176.320312 216.082031 173.851562 C 217.28125 172.132812 218.175781 170.789062 218.699219 169.816406 C 219.296875 168.769531 219.671875 167.496094 219.597656 166.226562 Z M 212.941406 101.171875 C 211.371094 97.730469 181.007812 110.519531 170.988281 97.132812 C 171.136719 97.433594 171.210938 97.730469 171.363281 98.03125 C 171.960938 99.375 172.632812 100.574219 173.53125 101.769531 C 174.355469 102.816406 175.25 103.789062 176.296875 104.609375 C 176.894531 105.132812 177.570312 105.507812 178.316406 105.882812 C 179.738281 106.628906 181.382812 107.078125 182.953125 107.300781 C 184.148438 107.527344 185.421875 107.527344 186.617188 107.527344 C 190.878906 107.527344 195.292969 107.003906 199.480469 106.179688 C 202.246094 105.65625 205.089844 104.910156 207.707031 103.863281 C 208.679688 103.488281 209.726562 102.964844 210.699219 102.515625 C 210.847656 102.441406 210.996094 102.367188 211.148438 102.292969 C 210.101562 103.039062 208.980469 103.789062 207.855469 104.460938 C 205.988281 110.070312 205.238281 116.125 205.988281 122.03125 C 205.988281 122.257812 206.0625 122.554688 206.0625 122.78125 C 206.585938 126.21875 207.558594 129.511719 209.128906 132.652344 C 207.183594 129.808594 205.761719 126.59375 204.789062 123.304688 C 189.683594 129.660156 169.792969 140.054688 165.679688 156.878906 C 165.679688 156.878906 165.679688 156.953125 165.679688 156.953125 C 169.640625 142.894531 191.480469 131.082031 200.976562 130.855469 C 200.976562 130.855469 204.191406 138.859375 211.894531 134.371094 C 211.820312 134.519531 205.835938 113.136719 212.941406 101.171875 Z M 159.097656 122.558594 C 159.023438 122.632812 158.875 122.632812 158.796875 122.707031 C 158.722656 122.78125 158.648438 122.78125 158.5 122.855469 C 158.050781 123.15625 157.527344 123.527344 157.078125 123.828125 C 156.40625 124.277344 155.65625 124.648438 154.984375 124.949219 C 152.066406 126.519531 149.226562 128.238281 146.535156 130.183594 C 146.234375 130.40625 145.9375 130.632812 145.636719 130.855469 C 140.851562 134.296875 136.511719 138.410156 132.699219 142.820312 C 132.25 143.34375 131.800781 143.867188 131.429688 144.390625 C 131.429688 144.464844 131.351562 144.464844 131.351562 144.539062 C 135.539062 144.09375 140.101562 142.148438 144.8125 137.886719 C 144.8125 137.886719 149.375 138.410156 154.386719 137.511719 C 155.058594 132.054688 157.378906 126.820312 161.042969 122.632812 C 161.265625 122.40625 161.492188 122.183594 161.640625 121.957031 C 162.164062 121.433594 162.6875 120.910156 163.285156 120.464844 C 161.863281 121.210938 160.519531 121.882812 159.097656 122.558594 Z M 159.097656 122.558594 " fill-opacity="1" fill-rule="nonzero"/><path fill="#000000" d="M 201.425781 207.429688 C 207.332031 201.070312 223.785156 173.105469 233.359375 151.34375 C 237.769531 141.25 240.761719 132.578125 240.539062 127.867188 C 240.3125 123.304688 239.566406 118.070312 238.441406 112.6875 C 235.453125 98.105469 229.617188 82.625 223.335938 77.242188 C 221.46875 75.671875 219.671875 74.925781 217.804688 75.148438 C 217.128906 75.222656 216.382812 75.296875 215.710938 75.296875 C 215.710938 75.148438 215.710938 74.925781 215.710938 74.773438 C 215.558594 71.335938 215.109375 67.820312 214.136719 64.457031 C 213.464844 62.363281 212.492188 59.894531 210.550781 58.621094 C 206.511719 56.003906 200.003906 56.304688 194.84375 56.605469 C 193.945312 56.679688 193.050781 56.679688 192.300781 56.679688 C 189.910156 56.753906 187.816406 58.023438 186.320312 59.894531 C 186.320312 59.96875 186.246094 59.96875 186.246094 60.042969 C 186.246094 59.96875 186.167969 59.96875 186.167969 59.894531 C 185.945312 59.519531 185.796875 59.222656 185.570312 58.847656 C 183.777344 55.929688 180.785156 52.640625 177.195312 52.117188 C 175.925781 51.96875 173.90625 52.265625 170.988281 53.015625 C 170.089844 53.238281 169.042969 53.539062 167.921875 53.910156 C 165.605469 54.585938 162.988281 55.480469 159.921875 56.605469 C 157.003906 57.652344 154.835938 60.117188 154.238281 63.183594 C 153.9375 64.753906 153.5625 66.398438 153.414062 67.96875 C 153.339844 67.894531 153.339844 67.894531 153.265625 67.820312 C 151.992188 66.625 150.347656 65.503906 148.554688 65.503906 C 146.308594 65.503906 139.28125 67.746094 134.570312 69.613281 C 132.773438 70.363281 131.277344 71.035156 130.53125 71.558594 C 129.558594 72.230469 128.960938 73.429688 128.511719 74.476562 C 127.914062 75.671875 127.613281 77.019531 127.390625 78.289062 C 127.316406 78.664062 127.238281 79.035156 127.164062 79.410156 C 127.164062 79.410156 127.089844 79.410156 127.089844 79.410156 C 124.921875 77.988281 122.230469 77.691406 119.613281 78.140625 C 113.929688 79.035156 109.066406 83.300781 106.972656 85.839844 C 105.402344 87.785156 105.328125 90.105469 105.328125 92.496094 C 105.328125 92.796875 105.328125 93.019531 105.328125 93.246094 C 105.328125 93.617188 103.980469 94.738281 103.757812 95.113281 C 103.085938 96.085938 102.5625 97.132812 102.039062 98.253906 C 101.066406 100.496094 100.316406 102.816406 99.71875 105.207031 C 98.449219 110.144531 97.851562 115.230469 97.699219 120.3125 C 97.402344 128.238281 98.222656 136.164062 99.34375 144.09375 C 100.765625 154.636719 102.488281 165.179688 104.953125 175.574219 C 107.945312 188.210938 111.3125 201.820312 121.332031 210.792969 C 122.230469 211.617188 123.203125 212.363281 124.175781 213.1875 C 124.847656 213.710938 125.519531 214.234375 126.117188 214.832031 L 125.144531 374.402344 L 131.054688 374.402344 C 132.921875 366.550781 136.738281 259.171875 137.785156 251.996094 C 139.429688 240.40625 130.53125 238.460938 130.53125 238.460938 C 136.886719 234.496094 139.953125 242.648438 152.292969 233.824219 C 153.339844 233.078125 154.535156 232.179688 155.734375 231.132812 C 154.609375 231.429688 153.5625 231.65625 152.589844 231.878906 C 131.953125 236.214844 142.273438 223.578125 153.414062 222.382812 C 153.414062 222.382812 153.488281 222.382812 153.488281 222.382812 C 149.375 221.859375 145.414062 220.8125 141.523438 219.316406 C 137.933594 217.898438 134.417969 216.101562 131.277344 213.859375 C 129.109375 212.363281 127.089844 210.570312 125.070312 208.921875 C 119.984375 204.660156 114.378906 198.605469 109.140625 176.84375 C 108.695312 174.824219 108.09375 172.28125 107.496094 169.367188 C 107.570312 167.570312 107.871094 165.851562 107.945312 164.058594 C 108.019531 162.039062 108.019531 159.945312 107.871094 157.925781 C 107.871094 157.625 107.796875 157.253906 107.796875 156.953125 C 107.796875 156.953125 107.796875 156.953125 107.796875 156.878906 C 107.273438 153.515625 106.601562 150.148438 105.851562 146.785156 C 104.058594 139.082031 110.5625 136.390625 110.113281 133.625 C 106.601562 138.484375 102.636719 133.324219 107.199219 130.78125 C 108.019531 130.332031 104.503906 127.34375 103.160156 129.136719 C 105.851562 123.078125 111.234375 131.007812 114.078125 129.660156 C 112.058594 127.714844 105.550781 119.339844 107.421875 117.246094 C 108.320312 116.273438 109.589844 117.246094 110.789062 118.519531 C 110.863281 118.667969 110.9375 118.816406 111.011719 118.96875 C 111.386719 119.9375 111.835938 120.835938 112.207031 121.660156 C 113.703125 124.875 115.347656 128.015625 117.21875 130.929688 L 117.292969 131.082031 L 117.292969 131.15625 C 118.265625 132.652344 119.761719 133.773438 121.632812 134.296875 C 122.003906 134.371094 122.378906 134.445312 122.828125 134.519531 C 126.191406 135.195312 129.78125 135.195312 132.921875 133.921875 C 136.738281 132.351562 139.730469 128.761719 140.925781 124.800781 C 140.925781 124.800781 140.925781 124.726562 140.925781 124.726562 C 140.925781 124.648438 141 124.5 141 124.425781 C 141 124.574219 144.066406 125.546875 144.367188 125.621094 C 145.710938 125.996094 147.058594 126.144531 148.480469 126.21875 C 148.480469 126.21875 148.554688 126.21875 148.554688 126.21875 C 143.992188 129.734375 139.804688 133.625 135.988281 137.886719 C 133.148438 141.101562 130.53125 144.539062 128.585938 148.355469 C 131.429688 143.71875 135.242188 139.679688 139.28125 136.089844 C 139.578125 135.792969 139.953125 135.492188 140.328125 135.195312 C 144.964844 131.082031 150.199219 127.492188 155.65625 124.648438 C 156.628906 124.125 157.527344 123.453125 158.5 122.929688 C 158.574219 122.855469 158.648438 122.855469 158.796875 122.78125 C 158.875 122.707031 159.023438 122.632812 159.097656 122.632812 C 160.445312 121.882812 161.863281 121.210938 163.210938 120.613281 C 162.613281 121.0625 162.089844 121.585938 161.566406 122.109375 C 161.417969 122.257812 161.265625 122.40625 161.117188 122.554688 C 158.5 125.398438 156.554688 128.835938 155.359375 132.578125 C 154.761719 134.371094 154.386719 136.164062 154.238281 138.035156 C 154.085938 139.15625 154.085938 140.203125 154.085938 141.324219 C 154.085938 142.296875 154.460938 143.644531 154.3125 144.617188 C 154.6875 142.148438 155.285156 139.679688 156.105469 137.289062 C 158.5 130.332031 163.136719 123.679688 170.015625 120.613281 C 171.363281 119.9375 172.785156 119.414062 174.277344 119.042969 C 176.296875 118.890625 178.242188 118.519531 180.039062 117.84375 C 180.710938 117.621094 181.683594 117.695312 182.355469 117.621094 C 183.101562 117.546875 183.851562 117.546875 184.597656 117.472656 C 186.320312 117.398438 188.039062 117.472656 189.757812 117.472656 C 193.125 117.621094 196.566406 117.921875 199.929688 118.292969 C 195.21875 116.351562 190.28125 115.152344 185.199219 114.703125 C 185.273438 114.628906 185.347656 114.554688 185.421875 114.480469 C 185.421875 114.480469 185.496094 114.40625 185.496094 114.40625 C 185.570312 114.332031 185.644531 114.257812 185.722656 114.179688 C 185.722656 114.105469 185.796875 114.105469 185.796875 114.03125 C 185.871094 113.957031 185.945312 113.882812 186.019531 113.734375 C 186.167969 113.507812 186.394531 113.285156 186.542969 112.984375 C 186.769531 112.613281 186.992188 112.164062 187.140625 111.789062 C 187.140625 111.789062 187.140625 111.714844 187.140625 111.714844 C 187.140625 111.714844 187.140625 111.640625 187.140625 111.640625 C 187.367188 111.5625 187.589844 111.5625 187.816406 111.488281 C 187.816406 111.488281 187.890625 111.488281 187.890625 111.488281 C 191.03125 110.890625 194.246094 110.144531 197.3125 109.171875 C 199.105469 108.648438 200.828125 107.976562 202.546875 107.226562 C 202.695312 107.152344 202.847656 107.078125 202.996094 107.003906 C 203.144531 106.929688 203.296875 106.855469 203.445312 106.777344 C 202.921875 111.039062 202.996094 115.378906 203.820312 119.566406 C 203.667969 119.640625 203.445312 119.714844 203.296875 119.863281 C 199.480469 121.808594 195.667969 123.828125 192.003906 126.070312 C 188.261719 128.3125 184.523438 130.855469 181.160156 133.625 C 176.894531 137.0625 172.933594 141.101562 169.941406 145.738281 C 167.023438 150.222656 165.15625 155.457031 164.929688 160.84375 C 165.082031 159.570312 165.230469 158.375 165.527344 157.179688 C 165.527344 157.179688 165.527344 157.101562 165.527344 157.101562 C 169.640625 140.277344 189.460938 129.960938 204.492188 123.601562 C 204.566406 123.753906 204.714844 123.902344 204.789062 124.050781 C 205.761719 127.191406 207.109375 130.183594 208.980469 132.875 C 207.78125 130.484375 206.960938 127.941406 206.359375 125.398438 C 206.660156 125.621094 207.035156 125.773438 207.40625 125.847656 C 209.652344 126.519531 211.894531 125.847656 213.914062 124.949219 C 211.96875 125.398438 209.652344 125.621094 207.855469 124.726562 C 206.660156 124.050781 205.988281 122.929688 205.6875 121.660156 C 205.613281 121.136719 205.613281 120.613281 205.539062 120.089844 C 205.539062 120.089844 205.539062 120.015625 205.539062 120.015625 C 205.164062 114.929688 205.914062 109.84375 207.484375 105.058594 C 209.652344 103.863281 211.746094 102.515625 213.390625 100.648438 C 212.269531 101.695312 210.921875 102.515625 209.578125 103.191406 C 208.902344 103.488281 208.15625 103.863281 207.484375 104.085938 C 207.183594 104.238281 206.882812 104.3125 206.585938 104.460938 C 205.539062 104.835938 204.492188 105.207031 203.371094 105.507812 C 203.21875 105.582031 203.070312 105.582031 202.847656 105.65625 C 201.277344 106.105469 199.707031 106.40625 198.136719 106.703125 C 195.667969 107.152344 193.199219 107.375 190.730469 107.601562 C 186.320312 107.976562 181.382812 108.050781 177.417969 105.804688 C 175.175781 104.535156 173.457031 102.589844 172.183594 100.421875 C 171.289062 98.925781 170.613281 97.28125 170.089844 95.636719 C 170.390625 95.863281 170.6875 96.085938 170.988281 96.234375 C 174.429688 98.179688 178.691406 97.878906 182.503906 97.28125 C 178.390625 97.65625 172.632812 97.582031 169.941406 93.992188 C 169.71875 93.769531 169.566406 93.46875 169.492188 93.167969 C 169.492188 93.09375 169.417969 92.945312 169.417969 92.871094 C 169.269531 91.972656 169.640625 91.074219 170.316406 90.628906 C 170.464844 90.550781 170.613281 90.476562 170.765625 90.402344 C 170.765625 90.402344 170.765625 90.402344 170.839844 90.402344 C 171.511719 90.179688 172.261719 89.953125 173.082031 89.65625 C 174.578125 89.132812 176 88.683594 177.496094 88.234375 C 180.785156 87.1875 184.152344 86.214844 187.441406 85.242188 C 188.339844 86.515625 189.234375 87.785156 189.832031 89.207031 C 190.507812 90.628906 190.957031 92.273438 190.433594 93.84375 C 191.703125 91.074219 190.058594 87.488281 188.710938 84.871094 C 193.199219 83.671875 197.6875 82.550781 202.25 81.578125 C 203.59375 81.28125 204.941406 81.054688 206.210938 80.832031 C 208.605469 80.382812 210.996094 80.007812 213.390625 79.785156 C 215.410156 79.785156 217.355469 80.53125 218.402344 82.402344 C 219.746094 84.644531 219.820312 87.785156 218.625 90.179688 C 219.523438 89.058594 220.121094 87.710938 220.421875 86.214844 C 220.871094 83.671875 220.421875 81.429688 219.148438 79.710938 C 219.671875 79.933594 220.121094 80.308594 220.496094 80.605469 C 221.316406 81.355469 222.140625 82.253906 223.039062 83.449219 C 224.382812 85.316406 225.429688 87.261719 226.402344 89.28125 C 227.375 91.300781 228.273438 93.394531 229.019531 95.488281 C 231.339844 101.46875 233.058594 107.675781 234.332031 113.957031 C 234.855469 116.351562 235.226562 118.816406 235.601562 121.210938 C 235.902344 123.527344 236.273438 125.996094 236.273438 128.390625 C 236.273438 129.734375 236.125 131.007812 235.902344 132.277344 C 235.300781 135.34375 234.03125 139.230469 232.234375 143.644531 C 230.441406 148.203125 228.046875 153.363281 225.503906 158.597656 C 225.132812 158.824219 224.757812 159.121094 224.308594 159.347656 C 222.140625 160.542969 219.296875 161.441406 215.933594 161.066406 C 215.933594 161.066406 216.308594 161.289062 216.832031 161.738281 C 217.953125 162.785156 218.851562 164.058594 219.148438 165.628906 C 219.449219 167.199219 219.148438 168.769531 218.402344 170.113281 C 217.878906 171.085938 216.980469 172.507812 215.785156 174.152344 C 215.710938 174.226562 215.632812 174.375 215.558594 174.453125 C 212.566406 178.5625 209.203125 182.453125 205.613281 186.117188 C 201.648438 190.230469 197.3125 194.191406 192.601562 197.40625 C 191.328125 198.304688 190.058594 199.128906 188.785156 199.875 C 185.722656 201.671875 182.65625 203.015625 179.738281 203.613281 C 170.539062 205.632812 157.828125 204.660156 159.023438 183.125 C 159.023438 183.125 154.164062 194.789062 163.957031 204.734375 C 171.960938 212.886719 173.605469 213.261719 176.820312 218.417969 C 178.839844 221.636719 182.429688 223.28125 186.019531 222.90625 C 186.769531 222.832031 187.589844 222.605469 188.339844 222.308594 C 189.308594 221.933594 190.207031 221.335938 190.957031 220.738281 C 192.226562 225 202.25 367.449219 203.59375 374.703125 L 211.296875 374.703125 C 200.152344 333.574219 200.527344 211.691406 200.753906 208.027344 C 201.277344 207.652344 201.351562 207.503906 201.425781 207.429688 Z M 137.113281 123.230469 C 136.664062 125.097656 135.691406 126.820312 134.269531 128.164062 C 133.96875 128.464844 133.597656 128.761719 133.296875 129.0625 C 133.148438 129.136719 133.074219 129.210938 132.921875 129.285156 C 129.78125 131.378906 126.117188 131.230469 122.601562 130.332031 C 122.527344 130.332031 122.453125 130.332031 122.378906 130.257812 C 122.378906 130.257812 122.378906 130.257812 122.304688 130.257812 C 122.304688 130.257812 122.304688 130.257812 122.230469 130.257812 C 122.15625 130.257812 122.078125 130.183594 122.078125 130.183594 C 122.003906 130.183594 121.929688 130.109375 121.855469 130.109375 C 121.78125 130.109375 121.707031 130.035156 121.632812 129.960938 C 121.632812 129.960938 121.632812 129.960938 121.554688 129.960938 C 121.554688 129.960938 121.480469 129.960938 121.480469 129.882812 C 121.40625 129.882812 121.40625 129.808594 121.332031 129.808594 C 121.332031 129.808594 121.257812 129.734375 121.257812 129.734375 C 121.183594 129.660156 121.109375 129.585938 121.03125 129.511719 C 120.210938 128.613281 119.539062 127.191406 119.015625 126.21875 C 118.117188 124.648438 117.292969 123.003906 116.546875 121.433594 C 116.472656 121.285156 116.394531 121.210938 116.394531 121.0625 C 115.574219 119.339844 114.75 117.398438 113.929688 115.304688 C 113.929688 115.230469 113.855469 115.230469 113.855469 115.152344 C 111.160156 107.378906 109.140625 99.226562 109.367188 91 C 109.367188 90.253906 109.441406 89.503906 109.890625 88.90625 C 109.964844 88.832031 110.039062 88.683594 110.113281 88.609375 C 110.710938 87.859375 111.535156 86.964844 112.507812 86.140625 C 112.582031 86.066406 112.730469 85.992188 112.808594 85.839844 C 114.378906 84.570312 116.246094 83.449219 118.117188 82.777344 C 120.660156 81.878906 124.25 81.503906 126.042969 84.046875 C 126.042969 84.121094 126.117188 84.121094 126.117188 84.195312 C 126.34375 84.496094 126.417969 84.71875 126.492188 84.945312 C 126.492188 85.019531 126.566406 85.019531 126.566406 85.09375 C 126.566406 85.167969 126.566406 85.316406 126.640625 85.394531 C 128.210938 93.691406 130.457031 101.84375 133.148438 109.84375 C 134.34375 113.433594 135.617188 117.023438 136.960938 120.613281 C 137.1875 121.136719 137.335938 121.585938 137.410156 121.882812 C 137.335938 122.257812 137.261719 122.707031 137.113281 123.230469 Z M 151.542969 122.183594 C 150.273438 122.558594 148.777344 122.480469 147.429688 122.183594 C 147.207031 122.109375 146.984375 122.109375 146.832031 122.035156 C 146.757812 122.035156 146.683594 122.035156 146.683594 121.957031 C 145.710938 121.734375 144.738281 121.433594 143.765625 121.0625 C 143.320312 120.910156 142.871094 120.761719 142.421875 120.539062 C 142.195312 120.464844 141.972656 120.3125 141.671875 120.238281 C 141.597656 120.238281 141.523438 120.164062 141.375 120.089844 C 141.375 120.089844 141.300781 120.089844 141.300781 120.015625 C 141.300781 120.015625 141.222656 120.015625 141.222656 120.015625 C 141.222656 120.015625 141.148438 120.015625 141.148438 120.015625 C 141.148438 120.015625 141.148438 120.015625 141.074219 120.015625 C 140.777344 119.265625 140.328125 118.070312 139.730469 116.425781 C 139.730469 116.351562 139.652344 116.277344 139.652344 116.199219 C 139.503906 115.828125 139.355469 115.378906 139.207031 115.003906 C 137.1875 109.472656 135.390625 103.863281 133.746094 98.179688 C 133.597656 97.65625 133.222656 96.910156 133.222656 96.386719 C 132.921875 95.339844 132.699219 94.292969 132.398438 93.320312 C 131.652344 90.253906 130.980469 87.1875 130.53125 84.421875 C 130.605469 83.824219 130.605469 83.148438 130.679688 82.550781 C 130.679688 82.550781 130.679688 82.476562 130.679688 82.476562 C 130.679688 82.328125 130.679688 82.253906 130.753906 82.101562 C 131.203125 78.589844 132.027344 75.449219 132.699219 74.925781 C 133 74.699219 133.597656 74.402344 134.269531 74.101562 C 136.738281 72.980469 139.355469 72.082031 141.972656 71.261719 C 144.890625 70.289062 147.582031 69.539062 148.476562 69.539062 C 149.449219 69.539062 150.273438 70.4375 150.871094 71.183594 C 151.542969 71.933594 152.441406 72.832031 152.816406 73.800781 C 153.5625 75.523438 153.5625 77.542969 153.789062 79.335938 C 155.132812 90.105469 157.003906 101.695312 160.894531 111.863281 C 161.042969 112.164062 161.117188 112.460938 161.265625 112.761719 C 161.265625 112.835938 161.339844 112.910156 161.339844 112.984375 C 161.417969 113.136719 161.417969 113.210938 161.492188 113.359375 C 161.492188 113.359375 161.492188 113.433594 161.566406 113.433594 C 161.339844 115.976562 155.808594 120.835938 151.542969 122.183594 Z M 178.167969 83.671875 C 175.773438 84.421875 173.308594 85.09375 170.914062 85.992188 C 167.625 87.1875 165.003906 89.804688 165.753906 93.542969 C 166.203125 95.785156 166.875 97.878906 167.699219 99.75 C 167.773438 99.824219 167.773438 99.972656 167.847656 100.050781 C 167.847656 100.050781 167.847656 100.125 167.921875 100.125 C 168.296875 100.871094 168.671875 101.621094 169.042969 102.292969 C 170.464844 104.609375 172.335938 106.777344 174.652344 108.347656 C 176.074219 109.320312 177.570312 110.070312 179.214844 110.59375 C 180.261719 110.964844 181.308594 111.117188 182.355469 111.339844 C 182.503906 111.339844 182.65625 111.414062 182.730469 111.414062 C 182.730469 111.414062 182.730469 111.414062 182.65625 111.414062 C 182.429688 111.566406 182.28125 111.789062 182.132812 111.9375 C 181.90625 112.164062 181.683594 112.386719 181.382812 112.535156 C 179.886719 113.660156 178.09375 114.257812 176.296875 114.628906 C 174.503906 115.003906 172.632812 115.078125 171.0625 114.855469 C 170.988281 114.855469 170.914062 114.855469 170.765625 114.78125 C 170.765625 114.78125 170.6875 114.78125 170.6875 114.78125 C 170.613281 114.78125 170.539062 114.78125 170.464844 114.707031 C 168.445312 114.257812 166.351562 113.582031 165.15625 111.714844 C 164.632812 110.890625 164.332031 110.070312 164.109375 109.171875 C 163.808594 108.125 163.433594 107.078125 163.136719 106.03125 C 160.292969 96.011719 158.125 85.542969 157.226562 75.074219 L 157.152344 74.324219 C 156.929688 71.035156 157.003906 67.746094 157.828125 64.457031 C 158.050781 63.410156 158.425781 62.363281 159.097656 61.539062 C 159.921875 60.566406 161.191406 60.117188 162.3125 59.746094 C 165.976562 58.472656 169.566406 57.203125 173.308594 56.304688 C 174.503906 56.003906 175.699219 55.78125 176.820312 56.003906 C 178.019531 56.304688 179.066406 57.128906 179.960938 58.023438 C 181.382812 59.519531 182.578125 61.390625 183.179688 63.332031 C 184 65.875 183.777344 68.71875 183.777344 71.335938 C 183.777344 74.625 183.851562 77.839844 183.925781 81.128906 C 183.925781 81.28125 183.925781 81.429688 183.925781 81.578125 C 181.980469 82.476562 179.960938 83.074219 178.167969 83.671875 Z M 211.671875 75.671875 C 211.597656 75.671875 211.519531 75.671875 211.519531 75.671875 C 209.800781 75.894531 208.082031 76.195312 206.285156 76.496094 C 204.714844 76.792969 203.144531 77.09375 201.574219 77.390625 C 199.03125 77.914062 196.5625 78.511719 194.097656 79.113281 C 193.648438 79.261719 193.125 79.335938 192.675781 79.484375 C 191.253906 79.859375 189.832031 80.234375 188.414062 80.605469 C 188.339844 80.605469 188.339844 80.605469 188.261719 80.683594 C 188.1875 80.683594 188.1875 80.683594 188.113281 80.757812 C 188.113281 80.308594 188.113281 79.859375 188.113281 79.335938 C 188.113281 76.941406 188.039062 74.625 188.039062 72.230469 C 187.964844 70.363281 187.964844 68.417969 187.816406 66.472656 C 187.738281 65.800781 187.816406 65.351562 188.039062 64.753906 C 188.039062 64.679688 188.113281 64.679688 188.113281 64.605469 C 188.9375 62.808594 190.28125 60.867188 192.453125 60.640625 C 193.347656 60.566406 194.246094 60.566406 195.144531 60.492188 C 195.21875 60.492188 195.21875 60.492188 195.292969 60.492188 C 199.707031 60.269531 205.613281 60.042969 208.53125 61.914062 C 209.425781 62.511719 210.175781 64.230469 210.699219 66.324219 C 211.296875 68.644531 211.597656 70.960938 211.746094 73.277344 C 211.820312 74.027344 211.820312 74.847656 211.894531 75.523438 C 211.746094 75.671875 211.746094 75.671875 211.671875 75.671875 Z M 159.996094 233.75 L 163.285156 374.402344 L 157.152344 374.402344 Z M 167.773438 250.347656 L 171.210938 374.402344 L 167.546875 374.402344 Z M 167.773438 250.347656 " fill-opacity="1" fill-rule="nonzero"/><path fill="#000000" d="M 141 124.351562 C 141 124.425781 140.925781 124.574219 140.925781 124.648438 C 140.925781 124.648438 140.925781 124.726562 140.925781 124.726562 C 140.625 125.847656 140.101562 126.894531 139.578125 127.867188 L 147.058594 125.996094 C 144.964844 125.847656 143.019531 125.171875 141 124.351562 Z M 141 124.351562 " fill-opacity="1" fill-rule="nonzero"/><path fill="#000000" d="M 15.140625 134.296875 L 19.253906 152.167969 C 19.851562 154.933594 22.617188 156.65625 25.382812 155.980469 L 119.015625 132.949219 C 118.339844 132.425781 117.742188 131.828125 117.292969 131.15625 L 117.292969 131.082031 L 117.21875 130.929688 C 115.347656 127.941406 113.703125 124.800781 112.207031 121.660156 C 112.132812 121.585938 112.132812 121.433594 112.058594 121.359375 L 21.945312 141.847656 C 18.652344 142.671875 16.933594 139.230469 15.140625 134.296875 Z M 15.140625 134.296875 " fill-opacity="1" fill-rule="nonzero"/><path fill="#000000" d="M 203.519531 106.703125 C 203.371094 106.777344 202.769531 107.078125 202.546875 107.152344 C 200.828125 107.902344 199.105469 108.5 197.3125 109.097656 C 194.246094 110.070312 191.105469 110.816406 187.890625 111.414062 C 187.890625 111.414062 187.367188 111.488281 187.140625 111.566406 C 187.140625 111.566406 187.140625 111.640625 187.140625 111.640625 C 187.140625 111.640625 187.066406 111.714844 187.066406 111.714844 C 186.917969 112.164062 185.722656 114.183594 184.300781 115.152344 C 183.027344 115.976562 181.832031 116.722656 180.484375 117.324219 C 179.289062 117.847656 178.019531 118.21875 176.746094 118.445312 C 175.625 118.667969 174.429688 118.742188 173.308594 118.742188 C 172.257812 118.742188 171.289062 118.667969 170.242188 118.445312 C 169.417969 118.292969 168.519531 118.070312 167.699219 117.769531 C 167.023438 117.546875 166.425781 117.324219 165.828125 116.949219 C 165.453125 116.722656 165.082031 116.5 164.707031 116.277344 C 164.558594 116.199219 164.40625 116.050781 164.480469 115.902344 C 164.109375 116.949219 162.539062 120.3125 157.078125 123.453125 L 203.21875 112.089844 C 203.21875 108.949219 203.59375 106.628906 203.519531 106.703125 Z M 203.519531 106.703125 " fill-opacity="1" fill-rule="nonzero"/><g clip-path="url(#1625b5f6b6)"><path fill="#000000" d="M 203.296875 115.230469 L 136.289062 131.753906 C 135.242188 132.652344 134.121094 133.324219 132.847656 133.847656 C 130.15625 134.96875 127.164062 135.117188 124.25 134.746094 L 22.765625 159.71875 C 19.550781 160.46875 16.335938 158.449219 15.589844 155.234375 L 10.652344 133.847656 C 9.90625 130.632812 11.921875 127.417969 15.140625 126.667969 L 107.347656 106.855469 C 107.046875 105.730469 106.824219 104.535156 106.523438 103.414062 L 14.464844 123.230469 C 9.230469 124.351562 6.015625 129.511719 7.210938 134.671875 L 12.148438 156.054688 C 13.34375 161.214844 18.578125 164.429688 23.738281 163.160156 L 203.742188 118.816406 C 203.519531 117.546875 203.371094 116.351562 203.296875 115.230469 Z M 203.296875 115.230469 " fill-opacity="1" fill-rule="nonzero"/></g><path fill="#000000" d="M 108.46875 111.265625 C 108.46875 111.191406 108.394531 111.042969 108.394531 110.964844 L 92.242188 114.554688 Z M 108.46875 111.265625 " fill-opacity="1" fill-rule="nonzero"/><path fill="#000000" d="M 110.789062 118.21875 C 110.488281 117.546875 110.1875 116.648438 109.816406 115.601562 C 82.667969 121.808594 55.597656 128.3125 28.601562 135.269531 C 56.046875 129.960938 83.417969 124.277344 110.789062 118.21875 Z M 110.789062 118.21875 " fill-opacity="1" fill-rule="nonzero"/><path fill="#ffffff" d="M 10.652344 133.921875 L 15.589844 155.308594 C 16.335938 158.523438 19.550781 160.542969 22.765625 159.796875 L 124.25 134.746094 C 123.726562 134.671875 123.277344 134.59375 122.753906 134.519531 C 122.378906 134.445312 122.003906 134.371094 121.554688 134.296875 C 120.585938 134.070312 119.6875 133.625 118.9375 133.023438 L 25.382812 155.980469 C 22.691406 156.65625 19.925781 154.933594 19.253906 152.167969 L 15.140625 134.296875 C 16.933594 139.230469 18.578125 142.671875 21.871094 141.847656 L 112.058594 121.285156 C 111.683594 120.539062 111.386719 119.714844 111.011719 118.894531 C 110.9375 118.742188 110.863281 118.59375 110.789062 118.445312 C 110.789062 118.371094 110.710938 118.292969 110.710938 118.292969 C 83.417969 124.351562 55.972656 129.960938 28.527344 135.269531 C 55.523438 128.390625 82.59375 121.808594 109.742188 115.601562 C 109.367188 114.332031 108.917969 112.910156 108.46875 111.265625 L 92.242188 114.554688 L 108.394531 110.964844 C 108.019531 109.695312 107.722656 108.273438 107.347656 106.855469 L 15.140625 126.742188 C 11.921875 127.492188 9.90625 130.707031 10.652344 133.921875 Z M 10.652344 133.921875 " fill-opacity="1" fill-rule="nonzero"/><path fill="#ffffff" d="M 203.21875 112.238281 L 157.078125 123.601562 C 156.628906 123.902344 156.105469 124.125 155.582031 124.425781 C 152.367188 125.996094 149.601562 126.371094 146.984375 126.144531 L 139.503906 128.015625 C 138.683594 129.4375 137.558594 130.78125 136.289062 131.902344 L 203.296875 115.378906 C 203.21875 114.183594 203.21875 113.136719 203.21875 112.238281 Z M 203.21875 112.238281 " fill-opacity="1" fill-rule="nonzero"/></svg>