<svg xmlns="http://www.w3.org/2000/svg" xmlns:xlink="http://www.w3.org/1999/xlink" width="500" zoomAndPan="magnify" viewBox="0 0 375 374.999991" height="500" preserveAspectRatio="xMidYMid meet" version="1.0"><rect x="-37.5" width="450" fill="#ffffff" y="-37.499999" height="449.999989" fill-opacity="1"/><rect x="-37.5" width="450" fill="#4839f4" y="-37.499999" height="449.999989" fill-opacity="1"/><rect x="-37.5" width="450" fill="#ffffff" y="-37.499999" height="449.999989" fill-opacity="1"/><rect x="-37.5" width="450" fill="#4839f4" y="-37.499999" height="449.999989" fill-opacity="1"/><path fill="#ffffff" d="M 73.949219 29.761719 L 73.949219 345.40625 L 300.800781 345.40625 L 300.800781 29.761719 Z M 137.125 282.277344 L 137.125 181.273438 L 212.660156 181.273438 L 212.660156 118.144531 L 162.34375 118.144531 L 162.34375 156.148438 L 137.125 156.148438 L 137.125 92.890625 L 237.753906 92.890625 L 237.753906 282.277344 Z M 137.125 282.277344 " fill-opacity="1" fill-rule="nonzero"/><path fill="#4839f4" d="M 137.125 282.277344 L 137.125 181.273438 L 212.660156 181.273438 L 212.660156 118.144531 L 162.34375 118.144531 L 162.34375 156.148438 L 137.125 156.148438 L 137.125 92.890625 L 237.753906 92.890625 L 237.753906 282.277344 Z M 137.125 282.277344 " fill-opacity="1" fill-rule="nonzero"/></svg>