<svg xmlns="http://www.w3.org/2000/svg" xmlns:xlink="http://www.w3.org/1999/xlink" width="500" zoomAndPan="magnify" viewBox="0 0 375 374.999991" height="500" preserveAspectRatio="xMidYMid meet" version="1.0"><defs><clipPath id="b9a5e71d2b"><path d="M 35 29 L 340 29 L 340 354.253906 L 35 354.253906 Z M 35 29 " clip-rule="nonzero"/></clipPath></defs><path fill="#393536" d="M 187.425781 288.925781 C 187.425781 288.832031 187.433594 288.746094 187.433594 288.652344 C 187.433594 288.652344 187.425781 288.75 187.425781 288.925781 " fill-opacity="1" fill-rule="nonzero"/><path fill="#393536" d="M 236.742188 154.71875 C 231.214844 149.871094 223.597656 148.925781 217.265625 151.660156 C 220.375 151.332031 223.601562 152.253906 226.132812 154.476562 C 230.945312 158.699219 231.421875 166.019531 227.191406 170.828125 C 222.964844 175.636719 215.636719 176.113281 210.820312 171.886719 C 208.289062 169.664062 206.960938 166.589844 206.882812 163.46875 C 204.988281 170.09375 206.90625 177.515625 212.4375 182.367188 C 220.078125 189.070312 231.714844 188.316406 238.425781 180.683594 C 245.140625 173.050781 244.386719 161.425781 236.742188 154.71875 " fill-opacity="1" fill-rule="nonzero"/><path fill="#393536" d="M 169.113281 180.683594 C 175.828125 173.050781 175.074219 161.425781 167.433594 154.71875 C 161.902344 149.871094 154.285156 148.925781 147.953125 151.660156 C 151.058594 151.332031 154.289062 152.253906 156.820312 154.476562 C 161.632812 158.699219 162.109375 166.019531 157.882812 170.828125 C 153.652344 175.636719 146.324219 176.113281 141.507812 171.886719 C 138.976562 169.664062 137.648438 166.589844 137.570312 163.46875 C 135.671875 170.09375 137.59375 177.515625 143.121094 182.367188 C 150.765625 189.070312 162.402344 188.316406 169.113281 180.683594 " fill-opacity="1" fill-rule="nonzero"/><path fill="#a7a5a6" d="M 210.003906 272.648438 C 204.308594 271.769531 198.699219 270.445312 193.277344 269.160156 C 187.023438 267.679688 181.121094 266.28125 175.0625 265.503906 C 161.789062 263.8125 147.976562 267.359375 133.171875 276.300781 C 135.523438 278.8125 139.105469 282.320312 143.75 285.953125 L 143.753906 285.953125 C 143.753906 285.953125 160.132812 299.167969 174.019531 289.316406 C 174.019531 289.316406 172.726562 294.613281 163.742188 297.683594 C 163.804688 297.710938 163.875 297.738281 163.941406 297.765625 C 167.480469 299.183594 171.40625 299.457031 175.082031 298.445312 C 176.828125 297.964844 178.121094 297.339844 178.695312 296.539062 C 178.695312 296.539062 178.683594 298.785156 177.730469 301.6875 L 177.75 301.691406 C 179.285156 301.949219 180.867188 301.632812 182.160156 300.777344 C 184.792969 299.03125 187.566406 295.613281 187.746094 288.925781 C 187.75 288.75 187.757812 288.652344 187.757812 288.652344 C 187.753906 288.746094 187.75 288.832031 187.746094 288.925781 C 187.726562 289.90625 187.820312 293.417969 189.914062 297.230469 C 191.691406 300.472656 195.378906 302.226562 199.023438 301.570312 L 199.074219 301.5625 C 198.164062 298.722656 198.152344 296.539062 198.152344 296.539062 C 198.648438 297.234375 199.683594 297.792969 201.082031 298.242188 C 204.695312 299.398438 208.609375 299.191406 212.136719 297.789062 C 212.332031 297.710938 212.527344 297.632812 212.722656 297.550781 C 204.085938 294.460938 202.828125 289.316406 202.828125 289.316406 C 212.570312 296.222656 223.539062 291.785156 229.21875 288.519531 C 234.398438 284.945312 239.695312 280.59375 245.089844 275.335938 C 247.804688 272.378906 250.464844 268.953125 252.625 265.136719 C 240.574219 272.277344 225.617188 275.042969 210.003906 272.648438 " fill-opacity="1" fill-rule="nonzero"/><path fill="#a7a5a6" d="M 249.980469 129.652344 C 249.683594 129.65625 249.375 129.660156 249.070312 129.671875 C 249.070312 129.671875 256.375 127.496094 263.648438 126.515625 L 263.546875 126.417969 C 257.410156 120.394531 249.148438 117 240.546875 116.769531 C 233.054688 116.570312 225.171875 117.84375 217.785156 121.785156 C 217.785156 121.785156 221.378906 117.695312 227.273438 113.488281 C 208.921875 115.171875 193.609375 127.65625 187.480469 144.683594 C 181.160156 127.117188 165.066406 114.386719 145.9375 113.359375 C 151.9375 117.613281 155.601562 121.785156 155.601562 121.785156 C 149.625 118.59375 143.324219 117.152344 137.164062 116.828125 C 127.742188 116.324219 118.507812 119.890625 112.015625 126.726562 L 111.90625 126.839844 C 118.398438 127.910156 124.320312 129.671875 124.320312 129.671875 C 124.234375 129.667969 124.144531 129.664062 124.058594 129.664062 C 113.050781 129.371094 103.277344 136.882812 100.84375 147.609375 C 99.160156 155.046875 99.347656 163.066406 101.863281 170.996094 C 110.046875 196.8125 131.324219 219.835938 131.324219 219.835938 C 131.324219 219.835938 125.113281 236.09375 131.324219 245.730469 C 131.324219 245.730469 125.679688 240.949219 122.097656 232.519531 C 121.921875 232.84375 121.660156 233.347656 121.335938 234.019531 L 121.304688 234.089844 C 118.96875 238.871094 118.734375 244.445312 120.816406 249.339844 C 121.871094 251.816406 123.320312 253.921875 125.285156 255.367188 L 116.949219 250.253906 C 116.945312 250.355469 116.9375 250.457031 116.933594 250.554688 C 116.511719 256.988281 117.625 264.335938 122.324219 271.292969 L 122.328125 271.292969 C 141.222656 258.472656 158.988281 253.296875 176.339844 255.511719 C 182.929688 256.355469 189.371094 257.882812 195.605469 259.359375 C 200.832031 260.59375 206.238281 261.875 211.535156 262.6875 C 225.960938 264.902344 239.640625 261.980469 250.09375 254.777344 C 251.40625 253.628906 252.464844 252.160156 253.3125 250.472656 C 255.921875 245.269531 255.824219 239.109375 253.25 233.886719 C 253.027344 233.4375 252.796875 232.984375 252.554688 232.53125 C 248.976562 240.953125 243.332031 245.730469 243.332031 245.730469 C 249.542969 236.09375 243.332031 219.835938 243.332031 219.835938 C 243.632812 219.507812 243.929688 219.171875 244.226562 218.835938 C 258.566406 202.589844 272.066406 181.992188 275.339844 160.242188 C 275.480469 159.300781 275.585938 158.363281 275.660156 157.429688 C 276.804688 142.46875 265.003906 129.503906 249.980469 129.652344 " fill-opacity="1" fill-rule="nonzero"/><path fill="#a7a5a6" d="M 143.445312 182.367188 C 137.917969 177.515625 135.996094 170.09375 137.894531 163.46875 C 137.972656 166.589844 139.300781 169.664062 141.832031 171.886719 C 146.648438 176.113281 153.976562 175.636719 158.203125 170.828125 C 162.433594 166.019531 161.957031 158.699219 157.144531 154.476562 C 154.613281 152.253906 151.386719 151.332031 148.277344 151.660156 C 154.609375 148.925781 162.226562 149.871094 167.753906 154.71875 C 175.394531 161.425781 176.152344 173.050781 169.4375 180.683594 C 162.726562 188.316406 151.089844 189.070312 143.445312 182.367188 " fill-opacity="1" fill-rule="nonzero"/><path fill="#a7a5a6" d="M 165.269531 219.640625 C 161.988281 219.640625 160.253906 215.75 162.464844 213.328125 C 163.417969 212.285156 164.761719 211.285156 166.664062 210.484375 C 174.019531 207.398438 183.929688 219.640625 183.929688 219.640625 L 165.269531 219.640625 " fill-opacity="1" fill-rule="nonzero"/><path fill="#a7a5a6" d="M 210.242188 219.640625 L 191.585938 219.640625 C 191.585938 219.640625 201.492188 207.398438 208.851562 210.484375 C 210.753906 211.285156 212.097656 212.285156 213.050781 213.328125 C 215.257812 215.75 213.523438 219.640625 210.242188 219.640625 " fill-opacity="1" fill-rule="nonzero"/><path fill="#a7a5a6" d="M 238.75 180.683594 C 232.039062 188.316406 220.398438 189.070312 212.757812 182.367188 C 207.230469 177.515625 205.308594 170.09375 207.207031 163.46875 C 207.28125 166.589844 208.613281 169.664062 211.144531 171.886719 C 215.960938 176.113281 223.289062 175.636719 227.519531 170.828125 C 231.742188 166.019531 231.269531 158.699219 226.453125 154.476562 C 223.921875 152.253906 220.695312 151.332031 217.589844 151.660156 C 223.921875 148.925781 231.535156 149.871094 237.066406 154.71875 C 244.707031 161.425781 245.460938 173.050781 238.75 180.683594 " fill-opacity="1" fill-rule="nonzero"/><path fill="#393536" d="M 169.113281 180.683594 C 175.828125 173.050781 175.074219 161.425781 167.433594 154.71875 C 161.902344 149.871094 154.285156 148.925781 147.953125 151.660156 C 151.0625 151.332031 154.289062 152.253906 156.820312 154.476562 C 161.632812 158.699219 162.109375 166.019531 157.882812 170.828125 C 153.652344 175.636719 146.324219 176.113281 141.507812 171.886719 C 138.976562 169.664062 137.648438 166.589844 137.570312 163.46875 C 135.671875 170.09375 137.59375 177.515625 143.121094 182.367188 C 150.765625 189.070312 162.402344 188.316406 169.113281 180.683594 " fill-opacity="1" fill-rule="nonzero"/><path fill="#393536" d="M 166.34375 210.484375 C 164.441406 211.285156 163.09375 212.285156 162.144531 213.328125 C 159.933594 215.75 161.664062 219.640625 164.945312 219.640625 L 183.605469 219.640625 C 183.605469 219.640625 173.695312 207.398438 166.34375 210.484375 " fill-opacity="1" fill-rule="nonzero"/><path fill="#393536" d="M 236.742188 154.71875 C 231.214844 149.871094 223.597656 148.925781 217.265625 151.660156 C 220.375 151.332031 223.601562 152.253906 226.132812 154.476562 C 230.945312 158.699219 231.421875 166.019531 227.191406 170.828125 C 222.964844 175.636719 215.636719 176.113281 210.820312 171.886719 C 208.289062 169.664062 206.960938 166.589844 206.882812 163.46875 C 204.988281 170.09375 206.90625 177.515625 212.4375 182.367188 C 220.078125 189.070312 231.714844 188.316406 238.425781 180.683594 C 245.140625 173.050781 244.386719 161.425781 236.742188 154.71875 " fill-opacity="1" fill-rule="nonzero"/><path fill="#393536" d="M 208.523438 210.484375 C 201.171875 207.398438 191.261719 219.640625 191.261719 219.640625 L 209.921875 219.640625 C 213.203125 219.640625 214.9375 215.75 212.726562 213.328125 C 211.777344 212.285156 210.429688 211.285156 208.523438 210.484375 " fill-opacity="1" fill-rule="nonzero"/><path fill="#393536" d="M 187.425781 288.925781 C 187.425781 288.832031 187.433594 288.746094 187.433594 288.652344 C 187.433594 288.652344 187.425781 288.75 187.425781 288.925781 " fill-opacity="1" fill-rule="nonzero"/><path fill="#a6a6a6" d="M 244.34375 218.835938 C 258.679688 202.589844 272.183594 181.992188 275.453125 160.242188 C 275.597656 159.300781 275.699219 158.363281 275.773438 157.429688 C 276.890625 142.839844 265.699219 130.15625 251.210938 129.671875 L 250.398438 129.671875 C 262.492188 130.097656 261.898438 143.628906 261.898438 143.628906 C 262.070312 146.261719 261.8125 149.429688 261.042969 153.203125 L 261.035156 153.242188 C 260.761719 155.695312 260.125 158.292969 259.015625 161.007812 C 246.960938 198.640625 211.929688 192.328125 211.925781 192.324219 C 208.460938 191.84375 204.953125 190.785156 201.4375 189.046875 C 199.019531 187.976562 197.691406 186.941406 197.691406 186.941406 L 197.691406 205.90625 C 197.691406 205.90625 209.640625 199.554688 218.566406 205.21875 C 221.046875 206.320312 222.523438 207.988281 223.285156 209.972656 L 223.296875 209.988281 L 223.292969 209.984375 C 226.402344 218.132812 217.460938 231.5 216.617188 231.773438 C 216.617188 231.773438 227.796875 228.199219 230.136719 217.855469 C 230.136719 217.855469 240.558594 235.328125 212.398438 239.960938 C 208.46875 240.605469 204.839844 242.605469 202.394531 245.746094 C 199.117188 249.949219 198.328125 255.316406 202.082031 260.832031 C 205.269531 261.546875 208.480469 262.203125 211.652344 262.6875 C 226.074219 264.902344 239.753906 261.980469 250.207031 254.777344 C 251.523438 253.628906 252.582031 252.160156 253.425781 250.472656 C 256.039062 245.269531 255.941406 239.109375 253.363281 233.886719 C 253.144531 233.4375 252.910156 232.984375 252.671875 232.53125 C 249.089844 240.953125 243.445312 245.730469 243.445312 245.730469 C 249.660156 236.09375 243.445312 219.835938 243.445312 219.835938 C 243.75 219.507812 244.046875 219.171875 244.34375 218.835938 " fill-opacity="1" fill-rule="nonzero"/><path fill="#a6a6a6" d="M 254.171875 126.664062 C 254.429688 127.171875 254.671875 127.679688 254.902344 128.1875 C 257.464844 127.589844 260.617188 126.941406 263.761719 126.515625 L 263.660156 126.417969 C 257.523438 120.394531 249.261719 117 240.664062 116.769531 C 236.941406 116.671875 233.125 116.9375 229.324219 117.710938 C 245.933594 115.519531 252.238281 123.269531 254.171875 126.664062 " fill-opacity="1" fill-rule="nonzero"/><path fill="#a6a6a6" d="M 210.121094 272.648438 C 204.425781 271.769531 198.816406 270.445312 193.394531 269.160156 C 193.394531 269.160156 211.394531 274.84375 220.722656 287 C 213.0625 280.496094 206.933594 283.4375 206.933594 283.4375 C 213.460938 285.996094 215.644531 289.835938 216.257812 292.886719 C 221.492188 292.460938 226.210938 290.316406 229.332031 288.519531 C 234.511719 284.945312 239.8125 280.59375 245.207031 275.335938 C 247.921875 272.378906 250.578125 268.953125 252.742188 265.136719 C 240.691406 272.277344 225.734375 275.042969 210.121094 272.648438 " fill-opacity="1" fill-rule="nonzero"/><path fill="#a7a5a6" d="M 75.996094 158.699219 C 79.6875 154.484375 71.464844 148.257812 62.921875 151.898438 C 62.921875 151.898438 67.832031 143.128906 79.6875 148.25 L 67.035156 140.265625 C 67.035156 140.265625 68.03125 135.296875 76.792969 136.945312 C 73.460938 135.839844 53.097656 129.90625 52.496094 150.148438 L 49.207031 147.222656 C 49.207031 147.222656 46.75 156.425781 52.167969 164.140625 C 56.890625 169.226562 65.203125 172.929688 79.6875 171.863281 C 79.6875 171.863281 72.304688 162.910156 75.996094 158.699219 " fill-opacity="1" fill-rule="nonzero"/><path fill="#a7a5a6" d="M 323.460938 145.253906 L 320.171875 147.945312 C 320.125 131.714844 300.273438 136.113281 296.902344 136.972656 C 296.796875 137.054688 296.738281 137.105469 296.738281 137.105469 C 306.226562 135 307.28125 140.265625 307.28125 140.265625 L 294.628906 148.25 C 306.484375 143.128906 311.394531 151.898438 311.394531 151.898438 C 302.851562 148.257812 294.628906 154.484375 298.320312 158.699219 C 302.011719 162.910156 294.628906 171.863281 294.628906 171.863281 C 304.917969 172.621094 312.085938 170.972656 317.074219 168.132812 C 326.65625 157.609375 323.460938 145.253906 323.460938 145.253906 " fill-opacity="1" fill-rule="nonzero"/><path fill="#a6a6a6" d="M 319.75 134.195312 C 309.308594 127.789062 298.34375 135.851562 296.902344 136.972656 C 300.273438 136.113281 320.125 131.714844 320.171875 147.945312 L 323.460938 145.253906 C 323.460938 145.253906 326.65625 157.609375 317.074219 168.132812 C 324.128906 164.109375 326.804688 157.703125 327.722656 152.351562 C 328.945312 145.238281 325.90625 137.972656 319.75 134.195312 " fill-opacity="1" fill-rule="nonzero"/><g clip-path="url(#b9a5e71d2b)"><path fill="#393536" d="M 298.4375 158.699219 C 294.746094 154.484375 302.964844 148.257812 311.511719 151.898438 C 311.511719 151.898438 306.601562 143.128906 294.746094 148.25 L 307.398438 140.265625 C 307.398438 140.265625 306.347656 135 296.855469 137.105469 C 296.855469 137.105469 308.664062 127.320312 319.867188 134.195312 C 326.019531 137.972656 329.0625 145.238281 327.839844 152.351562 C 326.269531 161.488281 319.589844 173.695312 294.746094 171.863281 C 294.746094 171.863281 302.125 162.910156 298.4375 158.699219 Z M 275.773438 157.429688 C 275.699219 158.363281 275.597656 159.300781 275.453125 160.242188 C 272.183594 181.992188 258.679688 202.589844 244.34375 218.835938 C 244.046875 219.171875 243.75 219.507812 243.445312 219.835938 C 243.445312 219.835938 249.660156 236.09375 243.445312 245.730469 C 243.445312 245.730469 249.089844 240.953125 252.671875 232.53125 C 252.910156 232.984375 253.144531 233.4375 253.363281 233.886719 C 255.941406 239.109375 256.039062 245.269531 253.425781 250.472656 C 252.582031 252.160156 251.523438 253.628906 250.207031 254.777344 C 239.753906 261.980469 226.074219 264.902344 211.652344 262.6875 C 206.355469 261.875 200.949219 260.59375 195.71875 259.359375 C 189.488281 257.882812 183.042969 256.355469 176.457031 255.511719 C 159.105469 253.296875 141.339844 258.472656 122.445312 271.292969 L 122.441406 271.292969 C 117.738281 264.335938 116.628906 256.988281 117.050781 250.554688 C 117.050781 250.457031 117.0625 250.355469 117.066406 250.253906 L 125.402344 255.367188 C 123.433594 253.921875 121.988281 251.816406 120.933594 249.339844 C 118.851562 244.445312 119.085938 238.871094 121.417969 234.089844 L 121.453125 234.019531 C 121.773438 233.347656 122.039062 232.84375 122.214844 232.519531 C 125.789062 240.949219 131.441406 245.730469 131.441406 245.730469 C 125.226562 236.09375 131.441406 219.835938 131.441406 219.835938 C 131.441406 219.835938 110.164062 196.8125 101.976562 170.996094 C 99.464844 163.066406 99.273438 155.046875 100.960938 147.609375 C 103.390625 136.882812 113.167969 129.371094 124.171875 129.664062 C 124.261719 129.664062 124.347656 129.667969 124.4375 129.671875 C 124.4375 129.671875 118.515625 127.910156 112.019531 126.839844 L 112.132812 126.726562 C 118.621094 119.890625 127.859375 116.324219 137.277344 116.828125 C 143.4375 117.152344 149.738281 118.59375 155.714844 121.785156 C 155.714844 121.785156 152.054688 117.613281 146.050781 113.359375 C 165.179688 114.386719 181.277344 127.117188 187.597656 144.683594 C 193.726562 127.65625 209.035156 115.171875 227.390625 113.488281 C 221.496094 117.695312 217.902344 121.785156 217.902344 121.785156 C 225.289062 117.84375 233.167969 116.570312 240.664062 116.769531 C 249.261719 117 257.523438 120.394531 263.660156 126.417969 L 263.761719 126.515625 C 256.488281 127.496094 249.183594 129.671875 249.183594 129.671875 C 249.492188 129.660156 249.796875 129.65625 250.097656 129.652344 C 265.121094 129.503906 276.917969 142.46875 275.773438 157.429688 Z M 245.207031 275.335938 C 239.8125 280.59375 234.511719 284.945312 229.332031 288.519531 C 223.652344 291.785156 212.683594 296.222656 202.945312 289.316406 C 202.945312 289.316406 204.199219 294.460938 212.839844 297.550781 C 212.644531 297.632812 212.445312 297.710938 212.253906 297.789062 C 208.726562 299.191406 204.8125 299.398438 201.195312 298.242188 C 199.800781 297.792969 198.765625 297.234375 198.265625 296.539062 C 198.265625 296.539062 198.28125 298.722656 199.1875 301.5625 L 199.136719 301.570312 C 195.496094 302.226562 191.808594 300.472656 190.027344 297.230469 C 187.9375 293.417969 187.84375 289.90625 187.863281 288.925781 C 187.683594 295.613281 184.90625 299.03125 182.277344 300.777344 C 180.980469 301.632812 179.398438 301.949219 177.867188 301.691406 L 177.847656 301.6875 C 178.796875 298.785156 178.808594 296.539062 178.808594 296.539062 C 178.234375 297.339844 176.941406 297.964844 175.199219 298.445312 C 171.523438 299.457031 167.597656 299.183594 164.058594 297.765625 C 163.992188 297.738281 163.921875 297.710938 163.855469 297.683594 C 172.84375 294.613281 174.132812 289.316406 174.132812 289.316406 C 160.25 299.167969 143.867188 285.953125 143.867188 285.953125 C 139.222656 282.320312 135.640625 278.8125 133.289062 276.300781 C 148.089844 267.359375 161.902344 263.8125 175.179688 265.503906 C 181.234375 266.28125 187.140625 267.679688 193.394531 269.160156 C 198.816406 270.445312 204.425781 271.769531 210.121094 272.648438 C 225.734375 275.042969 240.691406 272.277344 252.742188 265.136719 C 250.578125 268.953125 247.921875 272.378906 245.207031 275.335938 Z M 128.222656 73.289062 C 128.476562 72.984375 128.832031 72.523438 129.304688 71.953125 C 129.78125 71.382812 130.351562 70.6875 131.03125 69.90625 C 131.730469 69.148438 132.523438 68.292969 133.402344 67.375 C 133.847656 66.921875 134.296875 66.429688 134.796875 65.960938 C 135.292969 65.488281 135.808594 65 136.335938 64.5 C 136.867188 64 137.417969 63.488281 137.976562 62.96875 C 138.546875 62.460938 139.148438 61.957031 139.75 61.4375 C 140.355469 60.921875 140.972656 60.398438 141.597656 59.867188 C 142.234375 59.355469 142.882812 58.84375 143.542969 58.332031 C 144.203125 57.820312 144.855469 57.289062 145.535156 56.789062 C 146.222656 56.292969 146.90625 55.796875 147.589844 55.296875 C 148.960938 54.296875 150.371094 53.355469 151.761719 52.433594 C 152.449219 51.960938 153.15625 51.53125 153.847656 51.097656 C 154.542969 50.664062 155.222656 50.234375 155.90625 49.824219 C 157.277344 49.019531 158.589844 48.234375 159.875 47.542969 C 160.515625 47.195312 161.136719 46.859375 161.742188 46.535156 C 162.351562 46.222656 162.9375 45.921875 163.507812 45.632812 C 164.636719 45.054688 165.699219 44.570312 166.632812 44.132812 C 167.570312 43.703125 168.398438 43.347656 169.082031 43.0625 C 170.449219 42.488281 171.253906 42.210938 171.253906 42.210938 C 171.253906 42.210938 168.460938 44.105469 164.273438 46.941406 C 163.230469 47.648438 162.101562 48.414062 160.90625 49.222656 C 159.71875 50.035156 158.460938 50.890625 157.164062 51.773438 C 155.875 52.671875 154.542969 53.597656 153.191406 54.539062 C 151.855469 55.5 150.464844 56.433594 149.121094 57.429688 C 148.445312 57.917969 147.761719 58.402344 147.085938 58.886719 C 146.417969 59.378906 145.75 59.871094 145.085938 60.359375 C 144.421875 60.847656 143.761719 61.328125 143.113281 61.808594 C 142.472656 62.296875 141.835938 62.777344 141.214844 63.25 C 140.585938 63.722656 139.96875 64.183594 139.367188 64.636719 C 138.769531 65.101562 138.1875 65.558594 137.625 66 C 136.488281 66.882812 135.394531 67.699219 134.429688 68.503906 C 133.449219 69.292969 132.535156 70.003906 131.722656 70.632812 C 130.945312 71.296875 130.25 71.859375 129.675781 72.324219 C 129.109375 72.796875 128.640625 73.148438 128.332031 73.394531 C 128.015625 73.640625 127.851562 73.769531 127.851562 73.769531 C 127.851562 73.769531 127.980469 73.605469 128.222656 73.289062 Z M 175.785156 58.328125 C 176.191406 57.960938 176.785156 57.398438 177.585938 56.753906 C 178.390625 56.105469 179.371094 55.316406 180.558594 54.5 C 181.144531 54.078125 181.789062 53.660156 182.453125 53.203125 C 183.136719 52.765625 183.859375 52.3125 184.625 51.863281 C 186.144531 50.941406 187.839844 50.019531 189.671875 49.121094 C 191.503906 48.234375 193.464844 47.332031 195.546875 46.53125 C 197.621094 45.722656 199.800781 44.96875 202.050781 44.316406 C 203.175781 43.992188 204.3125 43.660156 205.464844 43.394531 C 206.042969 43.257812 206.617188 43.105469 207.199219 42.980469 L 208.941406 42.613281 C 211.277344 42.140625 213.628906 41.78125 215.953125 41.507812 C 217.117188 41.367188 218.277344 41.289062 219.417969 41.191406 C 220.5625 41.105469 221.695312 41.066406 222.804688 41.019531 C 225.03125 40.957031 227.183594 40.976562 229.21875 41.089844 C 229.726562 41.109375 230.226562 41.128906 230.722656 41.152344 C 231.214844 41.191406 231.699219 41.222656 232.175781 41.273438 C 233.128906 41.367188 234.050781 41.433594 234.929688 41.546875 C 236.691406 41.777344 238.300781 41.96875 239.714844 42.261719 C 241.128906 42.519531 242.359375 42.742188 243.363281 43 C 244.367188 43.234375 245.148438 43.445312 245.683594 43.574219 C 246.214844 43.714844 246.5 43.789062 246.5 43.789062 C 246.5 43.789062 246.207031 43.773438 245.65625 43.75 C 245.101562 43.714844 244.292969 43.683594 243.273438 43.601562 C 242.253906 43.507812 241.003906 43.507812 239.589844 43.425781 C 238.875 43.386719 238.125 43.355469 237.324219 43.355469 C 236.527344 43.339844 235.695312 43.320312 234.820312 43.304688 C 233.949219 43.285156 233.042969 43.316406 232.101562 43.324219 C 231.632812 43.332031 231.15625 43.324219 230.671875 43.324219 C 230.1875 43.34375 229.699219 43.359375 229.199219 43.375 C 227.210938 43.421875 225.117188 43.578125 222.960938 43.734375 C 221.878906 43.847656 220.78125 43.917969 219.675781 44.046875 C 219.125 44.113281 218.566406 44.183594 218.011719 44.25 C 217.449219 44.320312 216.886719 44.367188 216.328125 44.460938 C 214.082031 44.789062 211.804688 45.144531 209.546875 45.617188 L 207.855469 45.960938 C 207.292969 46.078125 206.738281 46.21875 206.175781 46.347656 C 205.621094 46.484375 205.058594 46.601562 204.507812 46.742188 C 203.953125 46.886719 203.402344 47.03125 202.855469 47.171875 C 202.304688 47.3125 201.761719 47.46875 201.222656 47.625 C 200.679688 47.78125 200.140625 47.933594 199.609375 48.085938 C 198.546875 48.421875 197.496094 48.734375 196.46875 49.082031 C 195.445312 49.425781 194.4375 49.773438 193.460938 50.128906 C 192.472656 50.46875 191.527344 50.847656 190.597656 51.207031 C 188.761719 51.960938 187.019531 52.679688 185.441406 53.414062 C 183.867188 54.144531 182.425781 54.84375 181.167969 55.496094 C 179.910156 56.152344 178.824219 56.746094 177.9375 57.253906 C 176.160156 58.269531 175.179688 58.921875 175.179688 58.921875 C 175.179688 58.921875 175.378906 58.707031 175.785156 58.328125 Z M 76.113281 158.699219 C 72.421875 162.910156 79.800781 171.863281 79.800781 171.863281 C 54.957031 173.695312 48.273438 161.488281 46.707031 152.351562 C 45.488281 145.238281 48.523438 137.972656 54.679688 134.195312 C 65.882812 127.320312 77.691406 137.105469 77.691406 137.105469 C 68.203125 135 67.148438 140.265625 67.148438 140.265625 L 79.800781 148.25 C 67.949219 143.128906 63.039062 151.898438 63.039062 151.898438 C 71.582031 148.257812 79.800781 154.484375 76.113281 158.699219 Z M 337.199219 137.585938 C 326.671875 108.671875 293.429688 124.214844 293.429688 124.214844 C 293.640625 71.429688 236.648438 54.238281 236.648438 54.238281 L 266.90625 44.28125 C 212.96875 20.628906 176.132812 44.28125 176.132812 44.28125 L 187.597656 29.824219 C 91.183594 62.679688 81.761719 124.214844 81.761719 124.214844 C 81.761719 124.214844 48.519531 108.671875 37.996094 137.585938 C 27.832031 165.503906 49.003906 188.101562 78.585938 186.265625 C 79.640625 186.179688 80.695312 186.085938 81.761719 185.980469 C 81.761719 185.980469 53.75 237.234375 81.761719 272.714844 L 92.660156 255.628906 C 92.660156 255.628906 91.101562 312.136719 131.570312 330.535156 L 131.570312 308.195312 C 131.570312 308.195312 154.910156 343.675781 187.597656 354.191406 C 220.28125 343.675781 243.625 308.195312 243.625 308.195312 L 243.625 330.535156 C 284.09375 312.136719 282.535156 255.628906 282.535156 255.628906 L 293.429688 272.714844 C 321.441406 237.234375 293.429688 185.980469 293.429688 185.980469 C 294.496094 186.085938 295.554688 186.179688 296.605469 186.265625 C 326.1875 188.101562 347.363281 165.503906 337.199219 137.585938 " fill-opacity="1" fill-rule="nonzero"/></g><path fill="#ffffff" d="M 170.136719 196.484375 C 174.308594 198.875 176.644531 201.804688 176.644531 201.804688 C 172.523438 199.933594 169.046875 199.46875 166.316406 199.617188 L 166.191406 199.710938 C 164.457031 199.808594 162.996094 200.105469 161.765625 200.542969 C 160.875 200.871094 160.21875 201.21875 159.808594 201.46875 C 159.632812 201.574219 159.460938 201.6875 159.296875 201.804688 C 153.414062 205.972656 156.039062 214.8125 156.039062 214.8125 C 173.144531 194.378906 187.597656 214.8125 187.597656 214.8125 L 187.597656 177.4375 C 187.597656 177.4375 178.183594 189.246094 170.136719 196.484375 " fill-opacity="1" fill-rule="nonzero"/><path fill="#ffffff" d="M 133.289062 276.300781 C 135.640625 278.8125 139.222656 282.320312 143.867188 285.953125 C 143.867188 285.953125 152.429688 292.855469 162.417969 292.960938 C 170.730469 286.8125 171.523438 277.300781 171.523438 277.300781 C 163.339844 280.367188 155.453125 275.109375 155.453125 275.109375 C 164.832031 275.109375 171.429688 271.648438 175.117188 268.992188 C 177.667969 267.492188 178.535156 266.066406 178.570312 266.007812 C 177.441406 265.824219 176.3125 265.648438 175.179688 265.503906 C 161.902344 263.8125 148.089844 267.359375 133.289062 276.300781 " fill-opacity="1" fill-rule="nonzero"/><path fill="#ffffff" d="M 173.136719 124.03125 C 165.671875 117.820312 156.296875 113.910156 146.050781 113.359375 C 152.054688 117.613281 155.714844 121.785156 155.714844 121.785156 C 149.738281 118.59375 143.4375 117.152344 137.277344 116.828125 C 127.859375 116.324219 118.621094 119.890625 112.132812 126.726562 L 112.019531 126.839844 C 118.515625 127.910156 124.4375 129.671875 124.4375 129.671875 C 124.347656 129.667969 124.261719 129.664062 124.171875 129.664062 C 113.167969 129.371094 103.390625 136.882812 100.960938 147.609375 C 99.273438 155.046875 99.464844 163.066406 101.976562 170.996094 C 104.832031 180 109.28125 188.660156 113.859375 196.125 C 90.113281 118.585938 172.832031 124.011719 173.136719 124.03125 " fill-opacity="1" fill-rule="nonzero"/><path fill="#ffffff" d="M 182.4375 256.453125 C 182.4375 256.453125 182.484375 255.941406 182.144531 255.007812 L 182.4375 256.453125 " fill-opacity="1" fill-rule="nonzero"/><path fill="#ffffff" d="M 146.292969 237.878906 C 146.292969 237.878906 151.648438 233.5 158.226562 234.816406 C 158.226562 234.816406 152.449219 221.066406 131.441406 219.835938 C 131.441406 219.835938 125.226562 236.09375 131.441406 245.730469 C 131.441406 245.730469 125.789062 240.949219 122.214844 232.519531 C 122.039062 232.84375 121.773438 233.347656 121.453125 234.019531 L 121.417969 234.089844 C 119.085938 238.871094 118.851562 244.445312 120.933594 249.339844 C 121.988281 251.816406 123.433594 253.921875 125.402344 255.367188 L 117.066406 250.253906 C 117.0625 250.355469 117.050781 250.457031 117.050781 250.554688 C 117.050781 250.554688 115.8125 262.207031 122.441406 271.292969 L 122.445312 271.292969 C 141.339844 258.472656 159.105469 253.296875 176.457031 255.511719 C 178.464844 255.769531 180.457031 256.09375 182.433594 256.457031 L 182.4375 256.453125 C 182.4375 256.453125 176.898438 241.386719 146.292969 237.878906 " fill-opacity="1" fill-rule="nonzero"/><path fill="#ffffff" d="M 55.003906 134.195312 C 48.847656 137.972656 45.808594 145.238281 47.03125 152.351562 C 47.683594 156.160156 49.226562 160.503906 52.609375 164.140625 C 47.1875 156.425781 49.644531 147.222656 49.644531 147.222656 L 52.933594 150.148438 C 53.535156 129.90625 73.902344 135.839844 77.230469 136.945312 C 77.488281 136.992188 77.746094 137.046875 78.015625 137.105469 C 78.015625 137.105469 66.207031 127.320312 55.003906 134.195312 " fill-opacity="1" fill-rule="nonzero"/><path fill="#a7a5a6" d="M 139.261719 145.308594 C 124.195312 145.300781 106.632812 147.707031 107.574219 159.070312 C 107.574219 159.070312 107.949219 168.21875 112.144531 176.9375 L 112.148438 176.9375 L 139.261719 145.308594 " fill-opacity="1" fill-rule="nonzero"/><path fill="#a7a5a6" d="M 226.554688 145.546875 C 220.378906 145.78125 207.828125 146.515625 203.230469 148.710938 C 197.804688 150.761719 195.925781 153.9375 195.445312 156.695312 C 195.445312 156.695312 194.105469 162.699219 198.503906 172.535156 C 198.953125 173.578125 199.445312 174.570312 199.957031 175.511719 L 199.980469 175.5625 C 200.347656 176.226562 200.722656 176.867188 201.101562 177.476562 L 226.527344 145.824219 L 226.554688 145.546875 " fill-opacity="1" fill-rule="nonzero"/><path fill="#393536" d="M 277.566406 144.285156 C 276.703125 144.285156 276.007812 143.585938 276.007812 142.730469 C 276.007812 141.871094 276.703125 141.171875 277.566406 141.171875 C 278.425781 141.171875 279.125 141.871094 279.125 142.730469 C 279.125 143.585938 278.425781 144.285156 277.566406 144.285156 Z M 277.566406 148.9375 C 276.703125 148.9375 276.007812 148.238281 276.007812 147.382812 C 276.007812 146.523438 276.703125 145.824219 277.566406 145.824219 C 278.425781 145.824219 279.125 146.523438 279.125 147.382812 C 279.125 148.238281 278.425781 148.9375 277.566406 148.9375 Z M 226.527344 145.824219 L 201.101562 177.476562 C 200.722656 176.867188 200.347656 176.226562 199.980469 175.5625 L 199.957031 175.511719 C 199.445312 174.570312 198.953125 173.578125 198.503906 172.535156 C 194.105469 162.699219 195.445312 156.695312 195.445312 156.695312 C 195.925781 153.9375 197.804688 150.761719 203.230469 148.710938 C 207.828125 146.515625 220.378906 145.78125 226.554688 145.546875 Z M 112.148438 176.9375 C 107.949219 168.21875 107.574219 159.070312 107.574219 159.070312 C 106.632812 147.707031 124.195312 145.300781 139.261719 145.308594 Z M 98.335938 144.285156 C 97.476562 144.285156 96.777344 143.585938 96.777344 142.730469 C 96.777344 141.871094 97.476562 141.171875 98.335938 141.171875 C 99.195312 141.171875 99.894531 141.871094 99.894531 142.730469 C 99.894531 143.585938 99.195312 144.285156 98.335938 144.285156 Z M 98.335938 148.9375 C 97.476562 148.9375 96.777344 148.238281 96.777344 147.382812 C 96.777344 146.523438 97.476562 145.824219 98.335938 145.824219 C 99.195312 145.824219 99.894531 146.523438 99.894531 147.382812 C 99.894531 148.238281 99.195312 148.9375 98.335938 148.9375 Z M 279.992188 137.238281 C 241.339844 136.863281 216.375 139.058594 201.738281 141.109375 C 197.132812 141.757812 192.496094 142.078125 187.855469 142.078125 C 183.214844 142.078125 178.578125 141.757812 173.972656 141.109375 C 159.335938 139.058594 134.371094 136.863281 95.71875 137.238281 C 94.980469 137.242188 94.375 137.847656 94.375 138.585938 L 94.375 149.871094 C 94.375 150.382812 94.664062 150.847656 95.121094 151.078125 L 98.710938 152.871094 C 100.902344 153.964844 102.429688 156.046875 102.796875 158.464844 C 103.441406 162.691406 104.804688 169.875 107.378906 177.074219 C 107.378906 177.074219 107.542969 177.523438 107.890625 178.300781 C 115.296875 194.8125 131.441406 198.320312 147.941406 198.132812 C 167.402344 197.910156 182.480469 180.664062 184.359375 161.980469 C 184.390625 161.660156 184.421875 161.335938 184.449219 161.011719 C 184.585938 159.523438 185.636719 158.222656 187.097656 157.90625 C 187.355469 157.851562 187.609375 157.824219 187.855469 157.824219 C 188.101562 157.824219 188.355469 157.851562 188.613281 157.90625 C 190.074219 158.222656 191.125 159.523438 191.261719 161.011719 C 191.289062 161.335938 191.320312 161.660156 191.351562 161.980469 C 193.230469 180.664062 208.308594 197.910156 227.769531 198.132812 C 244.265625 198.320312 260.414062 194.8125 267.820312 178.300781 C 268.167969 177.523438 268.332031 177.074219 268.332031 177.074219 C 270.90625 169.875 272.265625 162.691406 272.914062 158.464844 C 273.28125 156.046875 274.808594 153.964844 277 152.871094 L 280.585938 151.078125 C 281.046875 150.847656 281.335938 150.382812 281.335938 149.871094 L 281.335938 138.585938 C 281.335938 137.847656 280.730469 137.242188 279.992188 137.238281 " fill-opacity="1" fill-rule="nonzero"/></svg>