<svg xmlns="http://www.w3.org/2000/svg" xmlns:xlink="http://www.w3.org/1999/xlink" width="500" zoomAndPan="magnify" viewBox="0 0 375 374.999991" height="500" preserveAspectRatio="xMidYMid meet" version="1.0"><defs><clipPath id="436879d1f4"><path d="M 34.738281 113 L 35 113 L 35 114 L 34.738281 114 Z M 34.738281 113 " clip-rule="nonzero"/></clipPath></defs><path fill="#231f20" d="M 160.195312 355.121094 C 158.613281 356.320312 157.375 357.851562 155.535156 358.714844 C 153.492188 359.671875 150.992188 359.445312 148.792969 359.382812 C 144.101562 359.253906 139.445312 358.476562 134.953125 357.121094 C 134.097656 356.863281 133.738281 358.191406 134.585938 358.457031 C 139.496094 359.996094 144.59375 360.832031 149.742188 360.867188 C 151.90625 360.878906 154.164062 360.757812 156.082031 359.652344 C 157.792969 358.664062 159.355469 356.964844 160.316406 355.242188 C 160.351562 355.171875 160.269531 355.066406 160.195312 355.121094 " fill-opacity="1" fill-rule="nonzero"/><path fill="#231f20" d="M 170.953125 297.542969 C 170.679688 296.984375 170.425781 296.417969 170.1875 295.847656 C 169.730469 294.742188 169.328125 293.617188 168.984375 292.46875 C 168.882812 292.128906 168.359375 292.273438 168.449219 292.617188 C 168.773438 293.808594 169.152344 294.988281 169.597656 296.140625 C 169.808594 296.695312 170.039062 297.25 170.28125 297.792969 C 170.523438 298.34375 170.746094 298.945312 171.140625 299.417969 C 171.351562 299.671875 171.757812 299.394531 171.675781 299.101562 C 171.527344 298.554688 171.199219 298.050781 170.953125 297.542969 " fill-opacity="1" fill-rule="nonzero"/><path fill="#231f20" d="M 165.753906 265.492188 C 165.652344 265.492188 165.652344 265.652344 165.753906 265.652344 C 165.859375 265.652344 165.859375 265.492188 165.753906 265.492188 " fill-opacity="1" fill-rule="nonzero"/><path fill="#231f20" d="M 170.722656 264.289062 C 170.558594 264.222656 170.347656 264.230469 170.171875 264.210938 C 170.066406 264.203125 169.972656 264.199219 169.867188 264.21875 C 169.773438 264.234375 169.679688 264.257812 169.589844 264.28125 C 169.234375 264.359375 168.875 264.4375 168.519531 264.515625 C 168.300781 264.566406 168.152344 264.832031 168.222656 265.042969 C 168.296875 265.265625 168.515625 265.402344 168.75 265.34375 L 169.804688 265.066406 C 169.890625 265.046875 169.976562 265.023438 170.0625 265 C 170.167969 264.96875 170.253906 264.917969 170.347656 264.859375 C 170.492188 264.765625 170.675781 264.679688 170.789062 264.542969 C 170.867188 264.449219 170.832031 264.335938 170.722656 264.289062 " fill-opacity="1" fill-rule="nonzero"/><path fill="#231f20" d="M 162.707031 234.070312 C 162.160156 233.960938 161.761719 233.484375 161.453125 233.054688 C 160.683594 231.980469 160.046875 230.785156 159.382812 229.644531 C 158.054688 227.375 156.855469 225.039062 156.019531 222.546875 C 156.8125 222.121094 157.40625 221.46875 157.796875 220.621094 C 160.269531 223 162.339844 231.175781 163.175781 234.046875 C 163.042969 234.089844 162.894531 234.109375 162.707031 234.070312 M 125.898438 218.996094 C 125.75 219.34375 125.480469 219.574219 125.183594 219.800781 C 124.515625 220.308594 123.757812 220.6875 123.019531 221.089844 C 121.304688 222.03125 119.574219 222.96875 117.828125 223.851562 C 116.078125 224.738281 114.273438 225.46875 112.402344 226.054688 C 111.480469 226.34375 110.292969 226.84375 109.371094 226.324219 C 108.636719 225.910156 108.453125 225.109375 108.699219 224.40625 C 108.738281 224.375 108.773438 224.339844 108.8125 224.3125 C 111.179688 222.601562 114.082031 221.523438 116.683594 220.234375 C 119.585938 218.800781 122.488281 217.367188 125.394531 215.929688 C 125.664062 216.871094 125.832031 217.859375 125.945312 218.859375 C 125.929688 218.902344 125.917969 218.945312 125.898438 218.996094 M 108.328125 222.089844 C 104.113281 224.800781 101.640625 229.863281 99.25 234.113281 C 94.464844 242.625 90.648438 251.695312 87.894531 261.070312 C 87.5625 259.902344 87.140625 258.757812 86.667969 257.632812 C 85.183594 254.09375 83.558594 250.917969 84.539062 246.972656 C 85.503906 243.101562 87.304688 239.304688 88.652344 235.550781 C 90.03125 231.707031 91.265625 227.816406 92.601562 223.957031 C 94.105469 219.613281 95.507812 215.074219 97.371094 210.78125 C 97.726562 211.363281 98.375 211.75 99.070312 211.800781 C 100.347656 211.898438 101.496094 210.964844 102.472656 210.265625 C 104.773438 208.609375 106.886719 206.660156 108.8125 204.582031 C 110.703125 202.53125 112.574219 200.289062 113.976562 197.867188 C 113.984375 197.855469 113.992188 197.839844 114 197.824219 C 114.179688 198.867188 114.324219 199.917969 114.398438 200.976562 C 114.894531 208.203125 112.796875 215.488281 109.050781 221.671875 C 108.808594 221.816406 108.558594 221.941406 108.328125 222.089844 M 80.960938 209.785156 C 80.898438 206.96875 81.167969 204.132812 81.960938 201.429688 C 82.566406 199.347656 83.613281 197.460938 84.707031 195.601562 C 86.375 196.707031 88.542969 196.738281 90.164062 195.449219 C 91.085938 194.722656 91.765625 193.742188 92.421875 192.777344 C 93.175781 191.664062 93.890625 190.515625 94.507812 189.320312 C 95.671875 187.066406 96.289062 184.738281 96.171875 182.195312 C 96.152344 181.742188 96.113281 181.195312 96.03125 180.640625 C 97.410156 183.34375 98.269531 186.351562 98.925781 189.261719 C 99.855469 193.382812 99.125 197.390625 97.964844 201.328125 C 97.507812 202.082031 97.03125 202.824219 96.648438 203.613281 C 96.15625 204.625 95.769531 205.714844 95.410156 206.78125 C 95.070312 207.804688 94.816406 208.839844 94.625 209.902344 C 94.429688 210.984375 94.175781 212.222656 94.511719 213.300781 C 94.535156 213.371094 94.589844 213.410156 94.625 213.46875 C 94.605469 213.519531 94.585938 213.574219 94.5625 213.628906 C 91.714844 221.410156 88.78125 229.175781 86.007812 236.988281 C 85.210938 227.800781 81.179688 219.085938 80.960938 209.785156 M 78.675781 199.613281 C 78.113281 197.84375 77.417969 196.125 76.675781 194.425781 C 77.476562 193.570312 77.621094 192 77.472656 190.929688 C 77.195312 188.953125 76.234375 186.992188 75.347656 185.226562 C 74.429688 183.40625 73.34375 181.671875 72.105469 180.058594 C 71.691406 179.511719 71.21875 178.929688 70.453125 179.078125 C 70 179.164062 69.605469 179.460938 69.171875 179.613281 C 68.707031 179.78125 68.226562 179.859375 67.734375 179.894531 C 66.910156 178.921875 65.839844 177.851562 65.457031 176.660156 C 64.820312 174.644531 66.949219 174.503906 68.378906 174.480469 C 71.035156 174.441406 73.625 175.191406 76 176.339844 C 80.671875 178.597656 84.121094 182.601562 86.898438 186.894531 C 85.847656 188.8125 84.816406 190.742188 83.824219 192.703125 C 82.160156 195.996094 80.519531 199.492188 79.574219 203.121094 C 79.324219 201.945312 79.042969 200.773438 78.675781 199.613281 M 76.226562 192.53125 C 76.1875 192.703125 76.128906 192.863281 76.058594 193.019531 C 75.992188 192.875 75.9375 192.726562 75.867188 192.585938 C 73.871094 188.332031 71.363281 184.453125 68.445312 180.789062 C 68.867188 180.730469 69.28125 180.640625 69.679688 180.496094 C 70.054688 180.355469 70.371094 180.089844 70.75 180.21875 C 71.136719 180.347656 71.414062 180.910156 71.648438 181.242188 C 72.585938 182.585938 73.425781 183.992188 74.15625 185.460938 C 74.886719 186.925781 75.550781 188.457031 76.011719 190.03125 C 76.25 190.839844 76.414062 191.699219 76.226562 192.53125 M 94.074219 178.902344 C 95.628906 179.609375 95.351562 182.347656 94.984375 183.765625 C 94.511719 185.613281 93.746094 187.367188 92.828125 189.03125 C 91.453125 191.515625 88.808594 196.5 85.375 194.457031 C 85.632812 194.023438 85.894531 193.589844 86.144531 193.152344 C 88.859375 188.433594 91.46875 183.675781 94.074219 178.902344 M 102.167969 202.304688 C 104.417969 199.339844 107.117188 196.703125 110 194.363281 C 110.730469 193.769531 111.96875 192.277344 112.925781 193.289062 C 113.28125 193.667969 113.414062 194.972656 113.542969 195.59375 C 113.335938 196.496094 112.785156 197.398438 112.203125 198.242188 C 110.953125 200.058594 109.570312 201.78125 108.074219 203.394531 C 106.644531 204.933594 105.109375 206.378906 103.488281 207.714844 C 102.691406 208.367188 98.753906 212.121094 97.949219 209.945312 C 97.917969 209.867188 97.859375 209.828125 97.808594 209.785156 C 99.015625 207.140625 100.417969 204.609375 102.167969 202.304688 M 193.613281 303.65625 C 192.824219 296.996094 191.445312 290.394531 189.957031 283.859375 C 189.070312 279.988281 188.121094 276.132812 187.082031 272.296875 C 186.4375 269.921875 185.828125 267.464844 185.101562 265.066406 C 185.007812 263.320312 184.777344 261.703125 183.945312 260.058594 C 182.917969 258.042969 181.597656 256.191406 180.183594 254.429688 C 177.0625 250.535156 173.34375 247.171875 170.1875 243.3125 C 166.359375 238.636719 164.757812 233.273438 162.9375 227.613281 C 162.078125 224.941406 159.429688 216.160156 155.019531 218.933594 C 154.824219 219.054688 154.726562 219.222656 154.691406 219.394531 C 147.171875 225.011719 144.660156 234.890625 146.496094 243.949219 C 147.625 249.507812 150.277344 254.683594 153.605469 259.238281 C 154.324219 260.21875 155.074219 261.179688 155.851562 262.121094 C 156.28125 262.636719 156.71875 263.148438 157.164062 263.652344 C 158.078125 264.679688 158.863281 265.019531 158.339844 266.601562 C 157.574219 268.917969 155.738281 270.800781 154.601562 272.988281 C 149.398438 267.734375 143.886719 262.714844 140.132812 256.265625 C 139.984375 256.019531 139.742188 255.984375 139.542969 256.070312 C 138.347656 254.539062 137.117188 253.035156 135.890625 251.535156 C 131.210938 245.800781 126.226562 240.347656 121 235.109375 C 122.628906 233.699219 123.910156 231.992188 125.023438 230.125 C 127.6875 225.65625 128.65625 220.367188 127.140625 215.351562 C 127.023438 214.957031 126.734375 214.773438 126.421875 214.730469 C 126.304688 214.664062 126.191406 214.597656 126.066406 214.550781 C 126.042969 214.546875 126.015625 214.546875 125.992188 214.539062 C 125.773438 214.339844 125.453125 214.238281 125.117188 214.386719 C 122.214844 215.664062 119.3125 216.9375 116.414062 218.214844 C 114.867188 218.894531 113.273438 219.546875 111.722656 220.269531 C 115.066406 215.363281 116.691406 209.570312 116.71875 203.476562 C 116.738281 199.84375 116.210938 195.871094 114.671875 192.550781 C 113.078125 189.113281 110.144531 191.925781 108.269531 193.574219 C 105.199219 196.28125 102.316406 199.191406 99.960938 202.554688 C 99.449219 203.289062 98.980469 204.046875 98.542969 204.820312 C 98.558594 204.769531 98.574219 204.714844 98.589844 204.667969 C 98.726562 204.289062 98.847656 203.910156 98.972656 203.535156 C 99.039062 203.476562 99.105469 203.40625 99.152344 203.304688 C 101.386719 198.808594 101.53125 193.558594 101.144531 188.652344 C 100.746094 183.609375 98.152344 179.300781 95.109375 175.398438 C 94.667969 174.832031 93.742188 175.082031 93.417969 175.617188 C 91.597656 178.617188 89.832031 181.628906 88.121094 184.671875 C 85.128906 180.351562 81.429688 176.421875 76.566406 174.246094 C 74.027344 173.109375 71.164062 172.523438 68.378906 172.683594 C 66.566406 172.785156 63.96875 173.1875 63.472656 175.3125 C 62.898438 177.753906 65.703125 180.566406 66.953125 182.375 C 68.714844 184.917969 70.285156 187.578125 71.785156 190.277344 C 73.335938 193.0625 74.640625 195.945312 75.828125 198.902344 C 76.925781 201.625 78.066406 204.390625 78.859375 207.226562 C 78.824219 207.640625 78.777344 208.054688 78.765625 208.46875 C 78.480469 219.566406 83.863281 229.882812 84.632812 240.878906 C 84.621094 240.910156 84.609375 240.945312 84.597656 240.980469 C 83.105469 245.304688 81.976562 249.238281 83.15625 253.773438 C 84.242188 257.941406 86.566406 262.085938 86.269531 266.476562 C 86.257812 266.644531 86.285156 266.785156 86.328125 266.914062 C 85.945312 268.542969 85.621094 270.191406 85.515625 271.863281 C 85.335938 274.640625 85.882812 277.375 86.703125 280.019531 C 88.40625 285.546875 90.566406 290.964844 92.546875 296.398438 C 96.589844 307.503906 100.941406 318.4375 106.027344 329.109375 C 109.53125 336.464844 113.335938 344.203125 118.78125 350.394531 C 118.785156 350.445312 118.761719 350.492188 118.773438 350.542969 C 118.855469 350.859375 119.042969 351.125 119.1875 351.410156 C 119.195312 351.425781 119.191406 351.421875 119.195312 351.429688 C 119.199219 351.441406 119.207031 351.453125 119.210938 351.460938 C 119.226562 351.511719 119.246094 351.558594 119.261719 351.609375 C 119.308594 351.738281 119.34375 351.871094 119.375 352.003906 C 119.386719 352.074219 119.398438 352.144531 119.414062 352.210938 L 119.414062 352.21875 L 119.417969 352.261719 C 119.429688 352.382812 119.4375 352.5 119.4375 352.621094 C 119.4375 352.6875 119.429688 352.753906 119.425781 352.820312 C 118.976562 353.269531 118.582031 353.796875 118.371094 354.132812 C 116.472656 357.105469 114.765625 360.1875 113.058594 363.269531 C 109.765625 369.214844 106.679688 375.253906 103.617188 381.320312 C 100.558594 387.378906 97.441406 393.40625 94.417969 399.484375 C 92.90625 402.523438 91.414062 405.570312 89.949219 408.628906 C 89.15625 410.28125 88.378906 411.933594 87.636719 413.605469 C 87.039062 414.945312 86.316406 416.214844 86.15625 417.683594 C 86.085938 418.324219 86.992188 418.625 87.398438 418.195312 C 89.296875 416.207031 90.320312 412.914062 91.515625 410.453125 C 92.882812 407.636719 94.269531 404.828125 95.675781 402.035156 C 98.488281 396.441406 101.339844 390.863281 104.351562 385.371094 C 107.359375 379.882812 110.453125 374.441406 113.453125 368.941406 C 114.890625 366.304688 116.304688 363.65625 117.710938 361.003906 C 118.445312 359.617188 119.148438 358.21875 119.828125 356.804688 C 119.863281 356.730469 119.910156 356.628906 119.964844 356.503906 C 120.335938 356.328125 120.738281 356.195312 121.132812 356.171875 C 122.546875 356.070312 123.824219 356.582031 125.015625 357.296875 C 125.480469 357.53125 125.902344 357.261719 126.054688 356.890625 C 126.089844 356.914062 126.121094 356.941406 126.152344 356.964844 C 126.59375 357.257812 126.964844 356.570312 126.558594 356.269531 C 124.214844 354.535156 122.1875 352.472656 120.351562 350.238281 C 120.296875 350.136719 120.234375 350.042969 120.15625 349.957031 C 120.136719 349.933594 120.109375 349.921875 120.085938 349.902344 C 115.578125 344.304688 112.351562 337.542969 109.269531 331.179688 C 104.375 321.082031 100.261719 310.59375 96.300781 300.101562 C 94.410156 295.097656 92.585938 290.066406 90.773438 285.035156 C 88.78125 279.503906 86.957031 274.4375 88.203125 268.496094 C 90.34375 258.273438 94.257812 248.25 99.042969 239 C 100.371094 236.4375 101.78125 233.921875 103.277344 231.457031 C 104.550781 229.351562 105.828125 227.074219 107.617188 225.339844 C 107.664062 226.199219 108.121094 227.027344 108.984375 227.484375 C 109.953125 227.988281 111.101562 227.730469 112.09375 227.460938 C 113.390625 227.109375 114.660156 226.679688 115.914062 226.199219 C 118.335938 225.265625 120.71875 224.300781 123.007812 223.070312 C 123.953125 222.566406 125.148438 222.027344 126.058594 221.273438 C 125.984375 225.183594 124.691406 229.113281 121.910156 231.824219 C 119.738281 233.929688 117.308594 234.925781 114.8125 236.480469 C 112.71875 237.785156 111.925781 239.527344 111.316406 241.753906 C 110.964844 241.835938 110.671875 242.144531 110.808594 242.59375 C 110.855469 242.757812 110.90625 242.925781 110.949219 243.089844 C 110.144531 246.128906 109.164062 249.058594 107.609375 251.824219 C 106.933594 253.03125 105.828125 254.207031 105.382812 255.523438 C 104.9375 256.839844 105.507812 257.976562 106.019531 259.160156 C 107.480469 262.542969 108.1875 266.519531 108.644531 270.175781 C 108.859375 271.851562 108.820312 273.550781 109.035156 275.222656 C 109.289062 277.191406 109.789062 278.980469 109.730469 280.996094 C 109.726562 281.21875 110.082031 281.273438 110.128906 281.050781 C 110.496094 279.207031 111.175781 277.394531 111.417969 275.546875 C 111.417969 275.539062 111.417969 275.535156 111.417969 275.527344 C 111.765625 276.136719 112.25 276.675781 112.742188 277.183594 C 113.65625 278.125 114.589844 279.035156 115.625 279.839844 C 116.625 280.621094 117.550781 281.511719 118.515625 282.335938 C 119.003906 282.75 119.488281 283.160156 119.980469 283.570312 C 120.417969 283.9375 120.84375 284.402344 121.4375 284.460938 C 121.566406 284.472656 121.664062 284.390625 121.714844 284.285156 C 125.121094 288.320312 129.113281 291.84375 133.316406 295.175781 C 136.664062 297.824219 140.023438 300.480469 143.109375 303.4375 C 146.179688 306.382812 148.972656 309.585938 151.867188 312.679688 C 151.933594 312.753906 152.0625 312.679688 152.035156 312.582031 C 149.738281 304.535156 141.996094 299.097656 135.75 294.1875 C 129 288.882812 121.367188 283.847656 116.722656 276.429688 C 116.605469 276.238281 116.3125 276.410156 116.417969 276.609375 C 117.433594 278.472656 118.574219 280.230469 119.8125 281.898438 C 119.691406 281.777344 119.566406 281.660156 119.445312 281.542969 C 118.582031 280.703125 117.699219 279.867188 116.875 278.988281 C 116.066406 278.128906 115.289062 277.253906 114.429688 276.4375 C 113.714844 275.765625 112.78125 275.070312 112.527344 274.074219 C 112.386719 273.527344 111.875 273.421875 111.480469 273.59375 C 111.441406 272.6875 111.34375 271.773438 111.242188 270.894531 C 110.863281 267.570312 110.175781 264.292969 108.84375 261.222656 C 108.425781 260.246094 107.871094 259.132812 107.617188 258.09375 C 107.253906 256.628906 107.59375 255.800781 108.367188 254.613281 C 109.226562 253.292969 110 251.917969 110.648438 250.480469 C 111.199219 249.257812 111.640625 247.992188 112.011719 246.703125 L 112.625 248.78125 C 112.917969 249.773438 113.183594 250.78125 113.578125 251.738281 C 113.980469 252.730469 114.414062 253.753906 115.050781 254.609375 C 115.167969 254.765625 115.417969 254.71875 115.425781 254.507812 C 115.472656 253.449219 115.25 252.375 115.039062 251.339844 C 114.835938 250.324219 114.472656 249.339844 114.15625 248.359375 C 113.652344 246.800781 113.144531 245.246094 112.640625 243.6875 C 112.746094 242.898438 112.851562 242.113281 113.046875 241.339844 C 113.800781 238.328125 117.609375 237.5625 119.949219 235.957031 C 124.894531 241.242188 129.636719 246.726562 134.167969 252.375 C 136.402344 255.164062 138.488281 258.066406 140.710938 260.867188 C 141.972656 262.453125 143.253906 264.027344 144.464844 265.652344 C 145.496094 267.035156 146.441406 268.5 147.699219 269.695312 C 147.933594 269.914062 148.421875 269.699219 148.289062 269.351562 C 148.269531 269.308594 148.25 269.269531 148.230469 269.226562 C 149.75 270.929688 151.320312 272.585938 152.910156 274.207031 C 153.222656 274.523438 153.511719 274.859375 153.824219 275.179688 C 153.84375 275.707031 154.265625 276.109375 154.75 276.167969 C 159.246094 280.941406 163.34375 285.964844 167.460938 291.09375 C 167.519531 291.167969 167.628906 291.085938 167.609375 291.007812 C 165.953125 284.535156 161.054688 279.507812 156.4375 274.84375 C 158.023438 272.757812 159.140625 269.964844 160.289062 267.738281 C 160.589844 267.15625 160.757812 266.632812 160.824219 266.144531 C 161.078125 266.292969 161.332031 266.4375 161.605469 266.546875 C 161.988281 266.707031 162.445312 266.886719 162.863281 266.832031 C 163.160156 266.792969 163.453125 266.644531 163.527344 266.324219 C 163.59375 266.039062 163.492188 265.679688 163.210938 265.539062 C 163.09375 265.480469 162.976562 265.417969 162.847656 265.386719 C 162.757812 265.363281 162.671875 265.347656 162.582031 265.328125 C 162.417969 265.285156 162.253906 265.238281 162.09375 265.179688 C 162.078125 265.175781 161.9375 265.125 161.898438 265.105469 C 161.878906 265.101562 161.863281 265.089844 161.84375 265.082031 C 161.8125 265.066406 161.777344 265.054688 161.746094 265.039062 C 161.582031 264.957031 161.425781 264.875 161.273438 264.777344 C 161.128906 264.691406 160.988281 264.59375 160.847656 264.492188 C 160.84375 264.492188 160.847656 264.492188 160.84375 264.488281 C 160.808594 264.457031 160.773438 264.429688 160.738281 264.398438 C 160.679688 264.347656 160.617188 264.292969 160.558594 264.238281 C 160.484375 264.171875 160.417969 264.097656 160.351562 264.027344 C 160.164062 263.714844 159.9375 263.394531 159.644531 263.0625 C 155.714844 258.519531 152.082031 253.859375 149.9375 248.167969 C 146.410156 238.808594 147.542969 227.136719 155.359375 220.265625 C 155.480469 220.269531 155.609375 220.253906 155.742188 220.171875 C 156.0625 219.984375 156.382812 219.933594 156.703125 219.988281 C 156.367188 220.75 155.820312 221.308594 155.019531 221.570312 C 154.6875 221.675781 154.453125 222.023438 154.5625 222.378906 C 155.566406 225.738281 157.238281 228.824219 159.003906 231.835938 C 159.710938 233.046875 160.398438 234.605469 161.703125 235.285156 C 162.234375 235.5625 163.023438 235.660156 163.695312 235.492188 C 165.132812 239.261719 167.234375 242.558594 169.785156 245.699219 C 172.40625 248.925781 175.355469 251.851562 178.007812 255.046875 C 179.34375 256.65625 180.59375 258.347656 181.617188 260.179688 C 181.785156 260.472656 181.957031 260.773438 182.128906 261.074219 C 182.125 261.152344 182.117188 261.222656 182.136719 261.304688 C 182.980469 265.292969 184.421875 269.199219 185.472656 273.140625 C 186.527344 277.105469 187.5 281.085938 188.371094 285.09375 C 190.109375 293.078125 191.660156 301.164062 192.167969 309.332031 C 192.644531 316.988281 192.40625 324.492188 188.300781 331.207031 C 186.675781 333.871094 184.367188 336.605469 182.144531 338.796875 C 179.785156 341.125 176.964844 343.125 173.855469 344.300781 C 173.007812 344.621094 173.339844 345.957031 174.238281 345.683594 C 178.40625 344.417969 181.980469 342.222656 184.953125 339.152344 C 183.648438 343.425781 182.964844 347.9375 181.917969 352.234375 C 180.300781 358.886719 178.527344 365.496094 176.476562 372.027344 C 174.433594 378.546875 172.605469 385.132812 170.144531 391.515625 C 168.832031 394.929688 167.339844 398.285156 165.789062 401.601562 C 164.394531 404.585938 162.714844 407.507812 161.5625 410.59375 C 161.191406 411.59375 162.71875 412.167969 163.242188 411.300781 C 164.933594 408.496094 166.09375 405.285156 167.359375 402.265625 C 168.703125 399.054688 169.988281 395.824219 171.289062 392.597656 C 173.800781 386.359375 176.570312 380.195312 178.621094 373.777344 C 180.660156 367.382812 182.507812 360.90625 184.042969 354.371094 C 184.839844 350.980469 185.589844 347.570312 186.230469 344.148438 C 186.847656 340.855469 187.175781 337.421875 188.628906 334.363281 C 188.691406 334.234375 188.714844 334.109375 188.714844 333.992188 C 190.453125 330.652344 191.535156 326.769531 192.339844 323.292969 C 193.863281 316.738281 194.417969 310.363281 193.613281 303.65625 " fill-opacity="1" fill-rule="nonzero"/><path fill="#231f20" d="M 157.203125 325.242188 L 156.804688 323.441406 C 156.542969 322.265625 156.28125 321.085938 156.023438 319.90625 C 155.945312 319.558594 155.539062 319.351562 155.203125 319.441406 C 154.832031 319.546875 154.667969 319.90625 154.734375 320.261719 C 154.960938 321.429688 155.179688 322.59375 155.402344 323.761719 C 155.621094 324.910156 155.707031 326.171875 156.339844 327.175781 C 156.554688 327.511719 157.207031 327.519531 157.28125 327.054688 C 157.328125 326.730469 157.378906 326.4375 157.34375 326.113281 C 157.320312 325.816406 157.265625 325.535156 157.203125 325.242188 " fill-opacity="1" fill-rule="nonzero"/><path fill="#231f20" d="M 157.867188 329.25 C 157.765625 328.894531 157.558594 328.558594 157.265625 328.332031 C 157.136719 328.230469 156.960938 328.214844 156.851562 328.359375 C 156.742188 328.496094 156.792969 328.667969 156.925781 328.765625 C 156.96875 328.792969 156.917969 328.753906 156.941406 328.777344 C 156.957031 328.789062 156.972656 328.800781 156.988281 328.8125 C 157.015625 328.839844 157.042969 328.863281 157.070312 328.890625 C 157.09375 328.914062 157.117188 328.941406 157.144531 328.96875 C 157.148438 328.976562 157.183594 329.027344 157.167969 329 C 157.152344 328.976562 157.179688 329.019531 157.179688 329.023438 C 157.226562 329.085938 157.265625 329.152344 157.300781 329.222656 C 157.3125 329.238281 157.320312 329.261719 157.328125 329.277344 C 157.347656 329.316406 157.316406 329.246094 157.332031 329.285156 C 157.347656 329.320312 157.359375 329.359375 157.371094 329.398438 C 157.394531 329.46875 157.410156 329.539062 157.425781 329.613281 C 157.425781 329.628906 157.433594 329.667969 157.429688 329.628906 C 157.429688 329.644531 157.429688 329.664062 157.433594 329.679688 C 157.441406 329.738281 157.453125 329.785156 157.46875 329.839844 C 157.503906 329.976562 157.511719 330.113281 157.5 330.257812 C 157.488281 330.378906 157.65625 330.40625 157.710938 330.316406 C 157.800781 330.171875 157.871094 330.007812 157.910156 329.839844 C 157.957031 329.644531 157.921875 329.441406 157.867188 329.25 " fill-opacity="1" fill-rule="nonzero"/><path fill="#231f20" d="M 158.511719 335.429688 C 158.410156 335.429688 158.410156 335.59375 158.511719 335.59375 C 158.617188 335.59375 158.617188 335.429688 158.511719 335.429688 " fill-opacity="1" fill-rule="nonzero"/><path fill="#231f20" d="M 225.828125 355.121094 C 227.40625 356.320312 228.644531 357.851562 230.488281 358.714844 C 232.527344 359.671875 235.027344 359.445312 237.230469 359.382812 C 241.921875 359.253906 246.578125 358.476562 251.070312 357.121094 C 251.925781 356.863281 252.285156 358.191406 251.4375 358.457031 C 246.527344 359.996094 241.429688 360.832031 236.28125 360.867188 C 234.117188 360.878906 231.855469 360.757812 229.941406 359.652344 C 228.230469 358.664062 226.667969 356.964844 225.707031 355.242188 C 225.667969 355.171875 225.753906 355.066406 225.828125 355.121094 " fill-opacity="1" fill-rule="nonzero"/><path fill="#231f20" d="M 215.0625 297.542969 C 215.335938 296.984375 215.589844 296.417969 215.828125 295.847656 C 216.285156 294.742188 216.6875 293.617188 217.03125 292.46875 C 217.132812 292.128906 217.65625 292.273438 217.566406 292.617188 C 217.246094 293.808594 216.863281 294.988281 216.421875 296.140625 C 216.207031 296.695312 215.976562 297.25 215.734375 297.792969 C 215.492188 298.34375 215.269531 298.945312 214.875 299.417969 C 214.664062 299.671875 214.257812 299.394531 214.339844 299.101562 C 214.492188 298.554688 214.816406 298.050781 215.0625 297.542969 " fill-opacity="1" fill-rule="nonzero"/><path fill="#231f20" d="M 220.261719 265.492188 C 220.367188 265.492188 220.367188 265.652344 220.261719 265.652344 C 220.15625 265.652344 220.15625 265.492188 220.261719 265.492188 " fill-opacity="1" fill-rule="nonzero"/><path fill="#231f20" d="M 215.292969 264.289062 C 215.457031 264.222656 215.671875 264.230469 215.84375 264.210938 C 215.949219 264.203125 216.042969 264.199219 216.148438 264.21875 C 216.242188 264.234375 216.335938 264.257812 216.425781 264.28125 C 216.78125 264.359375 217.140625 264.4375 217.496094 264.515625 C 217.714844 264.566406 217.863281 264.832031 217.792969 265.042969 C 217.722656 265.265625 217.5 265.402344 217.265625 265.34375 L 216.210938 265.066406 C 216.125 265.046875 216.039062 265.023438 215.953125 265 C 215.847656 264.96875 215.761719 264.917969 215.671875 264.859375 C 215.523438 264.765625 215.339844 264.679688 215.226562 264.542969 C 215.148438 264.449219 215.183594 264.335938 215.292969 264.289062 " fill-opacity="1" fill-rule="nonzero"/><path fill="#231f20" d="M 222.839844 234.070312 C 223.671875 231.199219 225.746094 223.019531 228.214844 220.644531 C 228.605469 221.492188 229.199219 222.140625 229.996094 222.566406 C 229.160156 225.058594 227.957031 227.398438 226.632812 229.667969 C 225.96875 230.804688 225.328125 232 224.5625 233.074219 C 224.253906 233.507812 223.855469 233.980469 223.304688 234.09375 C 223.117188 234.128906 222.972656 234.109375 222.839844 234.070312 M 260.070312 218.882812 C 260.183594 217.882812 260.347656 216.894531 260.621094 215.953125 C 263.523438 217.390625 266.425781 218.824219 269.332031 220.257812 C 271.933594 221.542969 274.835938 222.621094 277.199219 224.332031 C 277.242188 224.359375 277.277344 224.398438 277.316406 224.425781 C 277.5625 225.128906 277.378906 225.933594 276.644531 226.347656 C 275.722656 226.867188 274.535156 226.363281 273.613281 226.078125 C 271.738281 225.492188 269.9375 224.757812 268.1875 223.875 C 266.4375 222.992188 264.710938 222.054688 262.992188 221.113281 C 262.261719 220.707031 261.5 220.328125 260.832031 219.820312 C 260.53125 219.597656 260.265625 219.367188 260.113281 219.015625 C 260.097656 218.96875 260.085938 218.925781 260.070312 218.882812 M 276.964844 221.695312 C 273.21875 215.507812 271.121094 208.226562 271.617188 201 C 271.691406 199.9375 271.832031 198.890625 272.015625 197.847656 C 272.023438 197.859375 272.03125 197.878906 272.035156 197.890625 C 273.441406 200.308594 275.308594 202.554688 277.203125 204.601562 C 279.128906 206.683594 281.242188 208.628906 283.546875 210.285156 C 284.519531 210.984375 285.664062 211.917969 286.945312 211.824219 C 287.640625 211.773438 288.285156 211.382812 288.644531 210.804688 C 290.507812 215.09375 291.910156 219.636719 293.410156 223.980469 C 294.746094 227.839844 295.980469 231.730469 297.363281 235.574219 C 298.710938 239.328125 300.507812 243.121094 301.472656 246.992188 C 302.453125 250.9375 300.832031 254.113281 299.34375 257.65625 C 298.875 258.777344 298.449219 259.921875 298.117188 261.089844 C 295.367188 251.714844 291.550781 242.644531 286.761719 234.132812 C 284.375 229.886719 281.902344 224.820312 277.6875 222.113281 C 277.453125 221.960938 277.203125 221.835938 276.964844 221.695312 M 300.007812 237.011719 C 297.238281 229.195312 294.300781 221.433594 291.449219 213.648438 C 291.433594 213.59375 291.410156 213.542969 291.386719 213.492188 C 291.425781 213.433594 291.480469 213.394531 291.5 213.324219 C 291.839844 212.246094 291.585938 211.007812 291.386719 209.925781 C 291.195312 208.859375 290.941406 207.828125 290.605469 206.804688 C 290.246094 205.734375 289.859375 204.648438 289.367188 203.636719 C 288.984375 202.847656 288.503906 202.101562 288.050781 201.351562 C 286.890625 197.410156 286.160156 193.40625 287.089844 189.285156 C 287.75 186.371094 288.605469 183.367188 289.988281 180.660156 C 289.898438 181.21875 289.863281 181.765625 289.839844 182.21875 C 289.726562 184.757812 290.347656 187.085938 291.507812 189.34375 C 292.125 190.539062 292.839844 191.6875 293.59375 192.800781 C 294.246094 193.765625 294.925781 194.742188 295.847656 195.472656 C 297.472656 196.761719 299.636719 196.726562 301.304688 195.625 C 302.402344 197.480469 303.449219 199.367188 304.050781 201.449219 C 304.84375 204.15625 305.121094 206.992188 305.054688 209.804688 C 304.832031 219.105469 300.800781 227.824219 300.007812 237.011719 M 306.4375 203.144531 C 305.492188 199.515625 303.855469 196.015625 302.191406 192.722656 C 301.195312 190.761719 300.167969 188.832031 299.117188 186.914062 C 301.894531 182.625 305.339844 178.621094 310.015625 176.363281 C 312.390625 175.210938 314.980469 174.464844 317.632812 174.503906 C 319.0625 174.527344 321.195312 174.667969 320.554688 176.683594 C 320.175781 177.875 319.105469 178.945312 318.277344 179.914062 C 317.789062 179.878906 317.308594 179.800781 316.839844 179.636719 C 316.410156 179.484375 316.011719 179.1875 315.558594 179.097656 C 314.796875 178.953125 314.324219 179.535156 313.90625 180.078125 C 312.667969 181.695312 311.585938 183.429688 310.671875 185.246094 C 309.777344 187.011719 308.816406 188.976562 308.542969 190.953125 C 308.394531 192.019531 308.539062 193.59375 309.339844 194.445312 C 308.597656 196.144531 307.902344 197.867188 307.335938 199.636719 C 306.96875 200.796875 306.6875 201.96875 306.4375 203.144531 M 310 190.054688 C 310.464844 188.480469 311.125 186.949219 311.859375 185.480469 C 312.589844 184.015625 313.429688 182.605469 314.367188 181.265625 C 314.601562 180.929688 314.878906 180.371094 315.265625 180.238281 C 315.640625 180.113281 315.960938 180.378906 316.332031 180.515625 C 316.734375 180.664062 317.148438 180.75 317.566406 180.8125 C 314.648438 184.472656 312.140625 188.351562 310.144531 192.605469 C 310.078125 192.75 310.019531 192.898438 309.957031 193.042969 C 309.886719 192.886719 309.828125 192.722656 309.789062 192.550781 C 309.601562 191.71875 309.761719 190.859375 310 190.054688 M 299.867188 193.175781 C 300.117188 193.609375 300.378906 194.042969 300.636719 194.480469 C 297.207031 196.519531 294.558594 191.535156 293.1875 189.054688 C 292.269531 187.390625 291.5 185.636719 291.027344 183.789062 C 290.664062 182.371094 290.382812 179.632812 291.941406 178.925781 C 294.542969 183.695312 297.15625 188.457031 299.867188 193.175781 M 288.207031 209.804688 C 288.15625 209.851562 288.09375 209.886719 288.066406 209.96875 C 287.261719 212.144531 283.320312 208.386719 282.527344 207.734375 C 280.902344 206.402344 279.371094 204.957031 277.941406 203.417969 C 276.441406 201.800781 275.058594 200.082031 273.808594 198.265625 C 273.230469 197.421875 272.679688 196.519531 272.46875 195.617188 C 272.601562 194.992188 272.730469 193.6875 273.085938 193.3125 C 274.046875 192.296875 275.285156 193.792969 276.011719 194.382812 C 278.898438 196.722656 281.597656 199.363281 283.847656 202.328125 C 285.597656 204.632812 287 207.164062 288.207031 209.804688 M 193.671875 323.316406 C 194.480469 326.792969 195.5625 330.675781 197.300781 334.011719 C 197.300781 334.132812 197.324219 334.257812 197.386719 334.386719 C 198.839844 337.441406 199.167969 340.875 199.78125 344.167969 C 200.425781 347.59375 201.175781 351.003906 201.96875 354.394531 C 203.503906 360.929688 205.355469 367.402344 207.394531 373.800781 C 209.441406 380.214844 212.210938 386.378906 214.726562 392.621094 C 216.023438 395.847656 217.3125 399.078125 218.65625 402.285156 C 219.921875 405.308594 221.078125 408.515625 222.773438 411.320312 C 223.296875 412.1875 224.824219 411.613281 224.453125 410.617188 C 223.296875 407.527344 221.621094 404.605469 220.226562 401.621094 C 218.675781 398.308594 217.183594 394.953125 215.867188 391.535156 C 213.410156 385.15625 211.578125 378.566406 209.535156 372.050781 C 207.488281 365.515625 205.714844 358.910156 204.097656 352.257812 C 203.050781 347.960938 202.367188 343.449219 201.0625 339.175781 C 204.035156 342.246094 207.605469 344.441406 211.777344 345.707031 C 212.675781 345.980469 213.003906 344.644531 212.15625 344.320312 C 209.046875 343.144531 206.230469 341.148438 203.871094 338.820312 C 201.644531 336.625 199.339844 333.890625 197.710938 331.230469 C 193.609375 324.515625 193.371094 317.011719 193.847656 309.351562 C 194.351562 301.1875 195.910156 293.097656 197.644531 285.117188 C 198.515625 281.109375 199.492188 277.125 200.542969 273.164062 C 201.589844 269.222656 203.035156 265.3125 203.878906 261.328125 C 203.894531 261.242188 203.886719 261.171875 203.886719 261.097656 C 204.058594 260.796875 204.230469 260.492188 204.394531 260.199219 C 205.421875 258.371094 206.667969 256.679688 208.007812 255.066406 C 210.65625 251.875 213.613281 248.949219 216.230469 245.722656 C 218.777344 242.582031 220.878906 239.285156 222.320312 235.511719 C 222.988281 235.679688 223.78125 235.582031 224.308594 235.304688 C 225.617188 234.625 226.304688 233.066406 227.011719 231.855469 C 228.773438 228.847656 230.445312 225.757812 231.453125 222.402344 C 231.558594 222.046875 231.328125 221.699219 230.992188 221.589844 C 230.191406 221.328125 229.644531 220.773438 229.3125 220.011719 C 229.628906 219.957031 229.949219 220.007812 230.273438 220.195312 C 230.40625 220.273438 230.53125 220.292969 230.65625 220.289062 C 238.46875 227.160156 239.605469 238.828125 236.074219 248.191406 C 233.929688 253.878906 230.300781 258.539062 226.367188 263.082031 C 226.078125 263.417969 225.847656 263.734375 225.660156 264.046875 C 225.59375 264.117188 225.527344 264.195312 225.457031 264.261719 C 225.398438 264.316406 225.335938 264.371094 225.273438 264.421875 C 225.238281 264.453125 225.207031 264.480469 225.167969 264.507812 C 225.164062 264.511719 225.167969 264.511719 225.164062 264.515625 C 225.027344 264.613281 224.886719 264.710938 224.742188 264.800781 C 224.589844 264.894531 224.429688 264.980469 224.269531 265.058594 C 224.234375 265.074219 224.203125 265.089844 224.171875 265.105469 C 224.152344 265.113281 224.136719 265.121094 224.117188 265.128906 C 224.074219 265.148438 223.9375 265.195312 223.917969 265.203125 C 223.761719 265.257812 223.597656 265.308594 223.429688 265.347656 C 223.34375 265.371094 223.253906 265.386719 223.167969 265.40625 C 223.039062 265.4375 222.921875 265.503906 222.800781 265.5625 C 222.523438 265.703125 222.421875 266.058594 222.484375 266.34375 C 222.558594 266.667969 222.859375 266.8125 223.152344 266.851562 C 223.566406 266.90625 224.027344 266.726562 224.40625 266.570312 C 224.679688 266.457031 224.933594 266.3125 225.191406 266.167969 C 225.257812 266.65625 225.425781 267.175781 225.726562 267.761719 C 226.871094 269.984375 227.996094 272.777344 229.578125 274.863281 C 224.960938 279.53125 220.0625 284.554688 218.40625 291.03125 C 218.386719 291.109375 218.496094 291.1875 218.554688 291.117188 C 222.667969 285.984375 226.769531 280.960938 231.265625 276.1875 C 231.746094 276.132812 232.171875 275.730469 232.191406 275.203125 C 232.5 274.878906 232.792969 274.546875 233.105469 274.226562 C 234.695312 272.609375 236.261719 270.953125 237.78125 269.25 C 237.761719 269.289062 237.746094 269.332031 237.730469 269.371094 C 237.589844 269.71875 238.082031 269.9375 238.316406 269.714844 C 239.570312 268.523438 240.519531 267.054688 241.546875 265.671875 C 242.761719 264.046875 244.039062 262.476562 245.304688 260.886719 C 247.527344 258.089844 249.609375 255.183594 251.847656 252.394531 C 256.375 246.75 261.121094 241.261719 266.066406 235.980469 C 268.40625 237.585938 272.210938 238.351562 272.96875 241.363281 C 273.164062 242.136719 273.265625 242.921875 273.375 243.707031 C 272.871094 245.265625 272.363281 246.824219 271.859375 248.378906 C 271.539062 249.363281 271.183594 250.347656 270.972656 251.359375 C 270.765625 252.398438 270.539062 253.46875 270.585938 254.527344 C 270.597656 254.738281 270.84375 254.785156 270.960938 254.632812 C 271.601562 253.773438 272.035156 252.75 272.4375 251.761719 C 272.828125 250.804688 273.097656 249.796875 273.386719 248.804688 L 274 246.726562 C 274.375 248.011719 274.8125 249.28125 275.363281 250.503906 C 276.015625 251.941406 276.789062 253.316406 277.648438 254.636719 C 278.421875 255.820312 278.757812 256.652344 278.398438 258.117188 C 278.144531 259.15625 277.589844 260.269531 277.167969 261.242188 C 275.839844 264.316406 275.152344 267.589844 274.773438 270.914062 C 274.671875 271.796875 274.570312 272.707031 274.535156 273.613281 C 274.136719 273.441406 273.628906 273.550781 273.488281 274.097656 C 273.234375 275.09375 272.296875 275.789062 271.585938 276.460938 C 270.722656 277.273438 269.949219 278.148438 269.140625 279.007812 C 268.316406 279.890625 267.429688 280.722656 266.566406 281.5625 C 266.445312 281.683594 266.320312 281.800781 266.199219 281.917969 C 267.4375 280.25 268.582031 278.496094 269.59375 276.632812 C 269.703125 276.429688 269.410156 276.261719 269.289062 276.453125 C 264.644531 283.871094 257.011719 288.902344 250.265625 294.210938 C 244.019531 299.121094 236.273438 304.558594 233.980469 312.601562 C 233.953125 312.699219 234.078125 312.773438 234.148438 312.699219 C 237.039062 309.609375 239.839844 306.40625 242.90625 303.460938 C 245.988281 300.5 249.347656 297.847656 252.699219 295.195312 C 256.902344 291.863281 260.894531 288.34375 264.300781 284.308594 C 264.355469 284.414062 264.449219 284.496094 264.574219 284.480469 C 265.167969 284.421875 265.59375 283.957031 266.035156 283.589844 C 266.523438 283.183594 267.011719 282.769531 267.496094 282.359375 C 268.464844 281.535156 269.390625 280.644531 270.390625 279.863281 C 271.425781 279.054688 272.359375 278.148438 273.269531 277.203125 C 273.761719 276.699219 274.246094 276.160156 274.59375 275.550781 C 274.597656 275.554688 274.597656 275.5625 274.597656 275.566406 C 274.835938 277.417969 275.519531 279.226562 275.886719 281.070312 C 275.929688 281.296875 276.289062 281.242188 276.28125 281.015625 C 276.226562 279 276.726562 277.210938 276.980469 275.242188 C 277.195312 273.574219 277.160156 271.875 277.367188 270.199219 C 277.828125 266.542969 278.53125 262.566406 279.996094 259.183594 C 280.507812 257.996094 281.074219 256.859375 280.632812 255.546875 C 280.1875 254.226562 279.082031 253.050781 278.40625 251.847656 C 276.847656 249.082031 275.871094 246.152344 275.0625 243.109375 C 275.113281 242.945312 275.160156 242.78125 275.210938 242.617188 C 275.339844 242.164062 275.050781 241.855469 274.699219 241.777344 C 274.085938 239.546875 273.296875 237.804688 271.203125 236.503906 C 268.707031 234.945312 266.273438 233.949219 264.109375 231.84375 C 261.320312 229.136719 260.027344 225.203125 259.957031 221.292969 C 260.867188 222.050781 262.0625 222.589844 263.003906 223.09375 C 265.296875 224.324219 267.675781 225.285156 270.101562 226.21875 C 271.355469 226.703125 272.625 227.132812 273.921875 227.484375 C 274.914062 227.75 276.0625 228.011719 277.027344 227.503906 C 277.894531 227.050781 278.351562 226.21875 278.398438 225.363281 C 280.1875 227.097656 281.460938 229.371094 282.738281 231.476562 C 284.230469 233.945312 285.644531 236.460938 286.96875 239.023438 C 291.753906 248.273438 295.667969 258.296875 297.8125 268.515625 C 299.058594 274.460938 297.234375 279.523438 295.238281 285.058594 C 293.425781 290.089844 291.605469 295.117188 289.714844 300.125 C 285.753906 310.613281 281.636719 321.101562 276.746094 331.199219 C 273.660156 337.566406 270.4375 344.324219 265.925781 349.925781 C 265.90625 349.945312 265.878906 349.957031 265.859375 349.976562 C 265.78125 350.066406 265.722656 350.160156 265.660156 350.261719 C 263.824219 352.496094 261.800781 354.554688 259.453125 356.289062 C 259.046875 356.59375 259.421875 357.277344 259.859375 356.988281 C 259.894531 356.964844 259.925781 356.9375 259.960938 356.914062 C 260.113281 357.28125 260.53125 357.554688 261 357.320312 C 262.191406 356.605469 263.464844 356.09375 264.882812 356.191406 C 265.277344 356.21875 265.675781 356.351562 266.054688 356.523438 C 266.105469 356.648438 266.152344 356.753906 266.183594 356.824219 C 266.863281 358.242188 267.570312 359.636719 268.304688 361.023438 C 269.707031 363.679688 271.125 366.324219 272.5625 368.960938 C 275.558594 374.460938 278.65625 379.902344 281.664062 385.394531 C 284.671875 390.886719 287.523438 396.460938 290.335938 402.054688 C 291.742188 404.851562 293.128906 407.65625 294.496094 410.472656 C 295.695312 412.9375 296.71875 416.230469 298.613281 418.21875 C 299.019531 418.648438 299.929688 418.347656 299.859375 417.703125 C 299.695312 416.238281 298.976562 414.964844 298.378906 413.625 C 297.636719 411.957031 296.855469 410.300781 296.066406 408.652344 C 294.601562 405.59375 293.109375 402.542969 291.597656 399.507812 C 288.574219 393.429688 285.457031 387.398438 282.394531 381.339844 C 279.335938 375.277344 276.246094 369.238281 272.953125 363.289062 C 271.25 360.210938 269.542969 357.125 267.644531 354.15625 C 267.429688 353.820312 267.035156 353.292969 266.589844 352.84375 C 266.585938 352.777344 266.578125 352.710938 266.578125 352.644531 C 266.578125 352.523438 266.585938 352.402344 266.59375 352.28125 L 266.601562 352.238281 C 266.601562 352.234375 266.601562 352.238281 266.601562 352.230469 C 266.613281 352.164062 266.625 352.097656 266.644531 352.027344 C 266.671875 351.890625 266.707031 351.761719 266.75 351.632812 C 266.769531 351.582031 266.785156 351.53125 266.804688 351.484375 C 266.808594 351.472656 266.8125 351.460938 266.816406 351.449219 C 266.824219 351.441406 266.820312 351.449219 266.824219 351.433594 C 266.972656 351.144531 267.160156 350.882812 267.238281 350.5625 C 267.25 350.511719 267.230469 350.46875 267.234375 350.417969 C 272.679688 344.222656 276.480469 336.488281 279.988281 329.132812 C 285.074219 318.460938 289.425781 307.523438 293.46875 296.421875 C 295.449219 290.988281 297.605469 285.566406 299.316406 280.042969 C 300.132812 277.398438 300.679688 274.664062 300.5 271.882812 C 300.390625 270.210938 300.070312 268.566406 299.683594 266.9375 C 299.730469 266.808594 299.757812 266.664062 299.746094 266.5 C 299.445312 262.109375 301.773438 257.960938 302.855469 253.796875 C 304.039062 249.261719 302.90625 245.324219 301.417969 241.003906 L 301.378906 240.898438 C 302.152344 229.90625 307.535156 219.589844 307.25 208.492188 C 307.242188 208.074219 307.191406 207.664062 307.15625 207.25 C 307.945312 204.414062 309.089844 201.644531 310.183594 198.921875 C 311.371094 195.96875 312.679688 193.082031 314.226562 190.300781 C 315.730469 187.601562 317.300781 184.941406 319.058594 182.398438 C 320.3125 180.589844 323.117188 177.777344 322.542969 175.332031 C 322.042969 173.210938 319.449219 172.808594 317.632812 172.703125 C 314.847656 172.542969 311.988281 173.128906 309.445312 174.269531 C 304.585938 176.445312 300.882812 180.371094 297.890625 184.695312 C 296.183594 181.648438 294.414062 178.636719 292.597656 175.636719 C 292.273438 175.105469 291.347656 174.851562 290.90625 175.421875 C 287.863281 179.320312 285.269531 183.632812 284.871094 188.675781 C 284.484375 193.578125 284.628906 198.828125 286.859375 203.328125 C 286.90625 203.425781 286.972656 203.496094 287.042969 203.558594 C 287.164062 203.933594 287.289062 204.308594 287.421875 204.6875 C 287.441406 204.738281 287.453125 204.789062 287.472656 204.839844 C 287.03125 204.070312 286.566406 203.308594 286.050781 202.578125 C 283.703125 199.214844 280.8125 196.300781 277.746094 193.597656 C 275.867188 191.945312 272.9375 189.132812 271.339844 192.574219 C 269.800781 195.894531 269.277344 199.867188 269.292969 203.5 C 269.324219 209.589844 270.949219 215.382812 274.292969 220.289062 C 272.738281 219.566406 271.148438 218.914062 269.597656 218.234375 C 266.699219 216.960938 263.800781 215.683594 260.898438 214.410156 C 260.558594 214.257812 260.238281 214.359375 260.023438 214.5625 C 260 214.570312 259.96875 214.566406 259.945312 214.574219 C 259.824219 214.617188 259.707031 214.6875 259.59375 214.753906 C 259.28125 214.792969 258.992188 214.976562 258.871094 215.371094 C 257.359375 220.386719 258.332031 225.675781 260.992188 230.144531 C 262.105469 232.011719 263.386719 233.71875 265.011719 235.128906 C 259.785156 240.371094 254.804688 245.824219 250.121094 251.554688 C 248.902344 253.054688 247.667969 254.558594 246.472656 256.09375 C 246.269531 256.007812 246.027344 256.039062 245.882812 256.285156 C 242.125 262.734375 236.613281 267.757812 231.414062 273.007812 C 230.277344 270.824219 228.4375 268.9375 227.675781 266.621094 C 227.152344 265.042969 227.9375 264.703125 228.847656 263.671875 C 229.296875 263.167969 229.734375 262.660156 230.164062 262.140625 C 230.941406 261.203125 231.691406 260.242188 232.40625 259.261719 C 235.738281 254.707031 238.390625 249.527344 239.519531 243.96875 C 241.355469 234.914062 238.84375 225.03125 231.320312 219.417969 C 231.289062 219.246094 231.1875 219.078125 230.996094 218.957031 C 226.582031 216.183594 223.933594 224.960938 223.078125 227.636719 C 221.257812 233.296875 219.65625 238.660156 215.828125 243.335938 C 212.667969 247.195312 208.953125 250.558594 205.832031 254.453125 C 204.417969 256.214844 203.097656 258.0625 202.070312 260.082031 C 201.234375 261.726562 201.007812 263.339844 200.914062 265.085938 C 200.1875 267.488281 199.578125 269.945312 198.933594 272.320312 C 197.894531 276.15625 196.941406 280.007812 196.058594 283.882812 C 194.566406 290.417969 193.191406 297.019531 192.398438 303.679688 C 191.597656 310.386719 192.148438 316.761719 193.671875 323.316406 " fill-opacity="1" fill-rule="nonzero"/><path fill="#231f20" d="M 228.816406 325.242188 L 229.214844 323.441406 C 229.476562 322.265625 229.738281 321.085938 229.996094 319.90625 C 230.074219 319.558594 230.484375 319.351562 230.816406 319.441406 C 231.1875 319.546875 231.351562 319.90625 231.285156 320.261719 C 231.058594 321.429688 230.839844 322.59375 230.617188 323.761719 C 230.398438 324.910156 230.3125 326.171875 229.679688 327.175781 C 229.464844 327.511719 228.8125 327.519531 228.742188 327.054688 C 228.691406 326.730469 228.640625 326.4375 228.675781 326.113281 C 228.703125 325.816406 228.753906 325.535156 228.816406 325.242188 " fill-opacity="1" fill-rule="nonzero"/><path fill="#231f20" d="M 228.148438 329.25 C 228.25 328.894531 228.460938 328.558594 228.753906 328.332031 C 228.882812 328.230469 229.054688 328.214844 229.164062 328.359375 C 229.273438 328.496094 229.222656 328.667969 229.089844 328.765625 C 229.046875 328.792969 229.101562 328.753906 229.074219 328.777344 C 229.058594 328.789062 229.042969 328.800781 229.027344 328.8125 C 229 328.839844 228.972656 328.863281 228.949219 328.890625 C 228.921875 328.914062 228.898438 328.941406 228.871094 328.96875 C 228.867188 328.976562 228.832031 329.027344 228.851562 329 C 228.863281 328.976562 228.835938 329.019531 228.835938 329.023438 C 228.789062 329.085938 228.75 329.152344 228.714844 329.222656 C 228.707031 329.238281 228.695312 329.261719 228.6875 329.277344 C 228.671875 329.316406 228.699219 329.246094 228.683594 329.285156 C 228.671875 329.320312 228.65625 329.359375 228.644531 329.398438 C 228.621094 329.46875 228.605469 329.539062 228.589844 329.613281 C 228.589844 329.628906 228.582031 329.667969 228.589844 329.628906 C 228.585938 329.644531 228.585938 329.664062 228.582031 329.679688 C 228.578125 329.738281 228.5625 329.785156 228.546875 329.839844 C 228.515625 329.976562 228.503906 330.113281 228.515625 330.257812 C 228.527344 330.378906 228.359375 330.40625 228.304688 330.316406 C 228.214844 330.171875 228.144531 330.007812 228.105469 329.839844 C 228.058594 329.644531 228.09375 329.441406 228.148438 329.25 " fill-opacity="1" fill-rule="nonzero"/><path fill="#231f20" d="M 227.503906 335.429688 C 227.605469 335.429688 227.605469 335.59375 227.503906 335.59375 C 227.398438 335.59375 227.398438 335.429688 227.503906 335.429688 " fill-opacity="1" fill-rule="nonzero"/><path fill="#231f20" d="M 212.273438 160.066406 C 211.964844 164.570312 212.171875 169.285156 211.425781 173.738281 C 211.375 174.039062 211.277344 174.316406 211.195312 174.597656 C 208.972656 174.035156 206.933594 172.832031 205.503906 170.996094 C 205.460938 170.941406 205.410156 170.90625 205.359375 170.867188 C 205.433594 170.117188 205.535156 169.367188 205.589844 168.613281 C 206.039062 162.375 205.890625 156.089844 205.480469 149.851562 C 205.289062 146.953125 205.039062 144.054688 204.75 141.15625 C 205.359375 139.390625 206.34375 137.699219 207.097656 136.015625 C 207.878906 134.269531 208.582031 132.46875 209.207031 130.660156 C 210.507812 126.921875 211.472656 123.070312 212.136719 119.171875 C 213.652344 123.425781 214.363281 127.902344 214.132812 132.730469 C 213.695312 141.847656 212.902344 150.960938 212.273438 160.066406 M 204.84375 185.171875 C 203.707031 186.980469 202.585938 188.804688 201.46875 190.632812 C 201.539062 190.222656 201.613281 189.808594 201.707031 189.394531 C 202.148438 187.460938 202.722656 185.566406 203.417969 183.710938 C 203.535156 183.398438 203.417969 183.066406 203.210938 182.816406 C 203.777344 181.171875 204.082031 179.363281 204.378906 177.8125 C 204.582031 176.75 204.734375 175.683594 204.894531 174.621094 C 205.027344 174.328125 205.15625 174.035156 205.265625 173.738281 C 206.695312 175.167969 208.347656 176.1875 210.347656 176.722656 C 209.886719 177.578125 209.339844 178.394531 208.78125 179.226562 C 207.460938 181.203125 206.113281 183.164062 204.84375 185.171875 M 199.546875 188.910156 C 199.300781 189.863281 199.039062 190.828125 198.859375 191.796875 C 198.664062 192.835938 198.34375 194 198.609375 195.039062 C 198.621094 195.105469 198.660156 195.160156 198.6875 195.222656 C 198.128906 196.148438 197.566406 197.074219 197.011719 198 C 194.703125 201.863281 192.5625 205.867188 190.164062 209.683594 C 190.050781 209.402344 189.925781 209.128906 189.804688 208.847656 C 189.664062 203.175781 189.660156 197.488281 189.824219 191.808594 C 190.28125 192.097656 190.832031 192.183594 191.496094 191.925781 C 192.917969 191.375 193.902344 189.503906 194.765625 188.359375 L 199.035156 182.757812 C 199.835938 181.703125 200.753906 180.625 201.65625 179.503906 C 201.644531 179.589844 201.625 179.675781 201.609375 179.761719 C 201.339844 181.324219 200.851562 183.046875 200.902344 184.65625 C 200.386719 186.054688 199.914062 187.464844 199.546875 188.910156 M 187.601562 202.074219 C 187.382812 201.355469 187.160156 200.648438 186.941406 199.957031 C 185.777344 196.320312 184.339844 192.773438 183.089844 189.167969 C 181.324219 184.066406 180.335938 178.890625 179.898438 173.613281 L 179.976562 173.347656 C 181.871094 176.96875 183.765625 180.589844 185.636719 184.21875 C 186.351562 185.613281 187.03125 187.03125 187.71875 188.445312 C 187.566406 192.984375 187.527344 197.53125 187.601562 202.074219 M 179.519531 190.023438 C 178.484375 188.46875 177.398438 186.914062 176.425781 185.304688 C 177.148438 183.007812 177.839844 180.699219 178.511719 178.382812 C 178.859375 180.792969 179.332031 183.1875 180.007812 185.570312 C 181.167969 189.667969 182.785156 193.613281 184.207031 197.625 C 182.722656 195.03125 181.164062 192.484375 179.519531 190.023438 M 172.355469 166.496094 C 171.679688 157.46875 171.011719 148.445312 170.246094 139.421875 C 169.867188 134.992188 169.277344 130.519531 169.25 126.070312 C 169.230469 123.699219 169.699219 121.617188 170.488281 119.632812 C 173.117188 122.273438 175.753906 124.914062 178.382812 127.550781 C 178.644531 130.78125 178.996094 133.996094 179.027344 137.25 C 179.132812 149.328125 177.109375 161.613281 177.992188 173.671875 C 177.003906 176.71875 176.023438 179.769531 175.074219 182.824219 C 174.574219 181.78125 174.136719 180.710938 173.824219 179.582031 C 172.65625 175.382812 172.675781 170.816406 172.355469 166.496094 M 173.320312 114.398438 C 175.875 110.523438 178.921875 106.953125 181.734375 103.265625 C 183.683594 100.71875 185.511719 98.09375 187.359375 95.480469 C 187.71875 95.164062 188.066406 94.832031 188.425781 94.511719 C 185.398438 100.777344 182.535156 107.144531 180.207031 113.699219 C 178.953125 117.226562 177.980469 120.902344 178.183594 124.671875 C 178.1875 124.765625 178.195312 124.859375 178.203125 124.953125 C 175.878906 122.628906 173.550781 120.308594 171.230469 117.988281 C 171.824219 116.785156 172.527344 115.605469 173.320312 114.398438 M 190.789062 93.375 C 191.371094 96.933594 191.957031 100.492188 192.539062 104.050781 C 192.84375 105.925781 193.140625 107.804688 193.472656 109.675781 C 193.632812 110.554688 193.789062 111.433594 193.945312 112.3125 C 194.054688 112.917969 194.382812 113.875 194.449219 114.640625 C 194.066406 114.648438 193.710938 114.894531 193.738281 115.410156 C 193.75 115.652344 193.808594 115.886719 193.839844 116.125 C 192.941406 116.882812 191.308594 117.347656 190.539062 117.730469 C 189.042969 118.484375 187.582031 119.308594 186.160156 120.195312 C 184.738281 121.085938 183.363281 122.039062 182.039062 123.066406 C 181.367188 123.585938 180.519531 124.105469 179.949219 124.78125 C 179.734375 122.34375 179.734375 119.914062 180.484375 117.496094 C 181.863281 113.039062 183.949219 108.730469 185.777344 104.441406 C 187.367188 100.714844 189.046875 97.03125 190.789062 93.375 M 198.894531 115.898438 C 199.84375 121.242188 200.921875 126.589844 201.820312 131.957031 C 201.394531 130.777344 200.996094 129.585938 200.546875 128.417969 C 199.707031 126.226562 198.824219 124.050781 197.917969 121.886719 C 197.300781 120.417969 196.375 118.84375 195.808594 117.253906 C 196.074219 116.960938 196.308594 116.640625 196.445312 116.238281 C 196.953125 114.757812 196.265625 112.875 196 111.398438 C 195.625 109.3125 195.234375 107.230469 194.828125 105.148438 C 194.171875 101.808594 193.519531 98.472656 192.863281 95.132812 C 196.722656 101.410156 197.621094 108.777344 198.894531 115.898438 M 192.171875 163.644531 C 194.058594 150.503906 197.359375 137.339844 196.566406 124.054688 C 197.160156 125.539062 197.757812 127.019531 198.316406 128.515625 C 199.164062 130.792969 199.996094 133.074219 200.792969 135.371094 C 201.464844 137.308594 202.035156 139.464844 203.105469 141.253906 C 203.859375 148.214844 204.164062 155.28125 203.808594 162.265625 C 203.609375 166.152344 203.1875 170.003906 202.636719 173.859375 C 202.582031 174.242188 202.511719 174.621094 202.449219 175.003906 C 201.308594 176.929688 199.714844 178.683594 198.425781 180.378906 C 197.289062 181.871094 196.152344 183.367188 195.015625 184.859375 C 194.445312 185.605469 193.878906 186.355469 193.3125 187.101562 C 192.757812 187.828125 192.171875 188.933594 191.476562 189.507812 C 190.667969 190.164062 190.289062 189.777344 189.925781 189.15625 C 190.253906 180.617188 190.960938 172.089844 192.171875 163.644531 M 180.496094 170.605469 C 180.328125 170.273438 180.007812 170.164062 179.699219 170.203125 C 179.640625 168.761719 179.613281 167.308594 179.632812 165.851562 C 179.742188 157.933594 180.660156 150.054688 180.898438 142.140625 C 181.015625 138.148438 181.011719 134.113281 180.570312 130.136719 C 180.445312 129.015625 180.292969 127.894531 180.15625 126.773438 C 181.570312 126.609375 182.753906 125.230469 183.855469 124.429688 C 185.371094 123.328125 186.925781 122.289062 188.539062 121.335938 C 190.242188 120.332031 192 119.464844 193.785156 118.617188 C 193.910156 118.558594 194.035156 118.492188 194.164062 118.425781 C 196.453125 134.15625 191.730469 149.859375 189.632812 165.355469 C 188.742188 171.957031 188.175781 178.578125 187.863281 185.214844 L 185.65625 180.882812 C 183.917969 177.464844 182.214844 174.035156 180.496094 170.605469 M 207.25 109.757812 C 209.089844 112.40625 210.578125 115.125 211.699219 117.941406 C 211.277344 117.730469 210.722656 117.828125 210.617188 118.425781 C 209.910156 122.34375 209.023438 126.222656 207.90625 130.046875 C 207.359375 131.917969 206.761719 133.765625 206.132812 135.609375 C 205.679688 136.949219 205.226562 138.402344 204.597656 139.730469 C 203.632812 130.5625 202.210938 121.417969 200.554688 112.386719 C 199.605469 107.214844 198.359375 101.976562 195.945312 97.292969 C 200.082031 101.125 204.0625 105.171875 207.25 109.757812 M 211.347656 110.863281 C 206.265625 102.53125 198.882812 96.296875 191.425781 90.207031 C 191.046875 89.898438 190.527344 89.796875 190.105469 90.035156 C 189.953125 90.027344 189.804688 90.074219 189.6875 90.214844 C 186.710938 93.828125 183.492188 97.21875 180.539062 100.859375 C 177.800781 104.238281 175.011719 107.59375 172.429688 111.097656 C 170.125 114.230469 168.246094 117.617188 167.53125 121.480469 C 166.738281 125.789062 166.816406 129.882812 167.097656 134.246094 C 167.699219 143.675781 168.363281 153.09375 169.066406 162.511719 C 169.410156 167.140625 169.574219 171.820312 170.199219 176.417969 C 170.730469 180.359375 172.113281 183.832031 174.238281 187.175781 C 176.808594 191.234375 179.574219 195.132812 182 199.289062 C 183.84375 202.441406 185.484375 205.6875 187.085938 208.957031 C 187.214844 209.5625 187.339844 210.167969 187.46875 210.78125 C 187.527344 211.046875 187.6875 211.191406 187.871094 211.261719 C 187.882812 211.554688 187.890625 211.84375 187.90625 212.136719 C 187.941406 212.902344 188.664062 213.199219 189.226562 213.050781 C 189.730469 213.460938 190.582031 213.347656 190.914062 212.761719 C 193.296875 208.511719 196.179688 204.527344 198.773438 200.40625 C 201.371094 196.277344 203.925781 192.121094 206.476562 187.957031 C 208.6875 184.347656 211.15625 180.570312 212.785156 176.652344 C 214.429688 172.695312 214.207031 167.863281 214.566406 163.652344 C 215.390625 154 215.992188 144.304688 216.609375 134.632812 C 217.15625 126.125 215.832031 118.21875 211.347656 110.863281 " fill-opacity="1" fill-rule="nonzero"/><path fill="#231f20" d="M 254.667969 171.058594 C 254.394531 172.335938 254.136719 173.613281 253.875 174.894531 C 253.605469 176.238281 253.597656 177.738281 252.304688 178.496094 C 252.070312 178.632812 251.8125 178.746094 251.566406 178.871094 C 251.152344 178.140625 250.691406 177.445312 250.148438 176.800781 C 249.46875 175.992188 248.640625 174.980469 247.472656 175.0625 C 247.324219 175.074219 247.179688 175.101562 247.035156 175.140625 C 248.199219 173.59375 249.167969 171.886719 250.207031 170.253906 C 252.457031 166.703125 254.78125 163.195312 257.082031 159.671875 C 256.289062 163.472656 255.476562 167.261719 254.667969 171.058594 M 245.527344 181.308594 C 241.15625 183.082031 236.746094 184.777344 232.257812 186.21875 C 229.628906 187.0625 226.976562 187.707031 224.308594 188.328125 C 230.757812 184.898438 237.21875 181.488281 243.609375 177.957031 C 244.117188 177.675781 244.582031 177.386719 245.027344 177.078125 C 245.105469 177.074219 245.183594 177.085938 245.261719 177.082031 C 245.859375 177.046875 246.417969 176.925781 246.980469 176.730469 C 247.785156 176.453125 248.054688 176.707031 248.589844 177.277344 C 249.238281 177.964844 249.722656 178.726562 250.167969 179.527344 C 248.632812 180.171875 247.003906 180.707031 245.527344 181.308594 M 228.058594 182.558594 C 230.707031 179.527344 233.160156 176.3125 235.375 172.949219 C 235.996094 172 236.597656 171.03125 237.285156 170.128906 C 237.347656 170.59375 237.410156 171.054688 237.476562 171.515625 C 237.628906 172.644531 237.632812 174.035156 238.539062 174.855469 C 239.347656 175.59375 240.617188 176 241.628906 176.386719 C 241.835938 176.464844 242.054688 176.535156 242.269531 176.605469 C 241.96875 176.765625 241.667969 176.925781 241.367188 177.085938 C 235.636719 180.1875 229.925781 183.328125 224.210938 186.457031 C 225.542969 185.191406 226.867188 183.925781 228.058594 182.558594 M 232.867188 163.644531 C 233.097656 163.191406 233.3125 162.832031 233.550781 162.539062 C 235.285156 163.542969 236.292969 165.5 236.789062 167.425781 C 236.855469 167.683594 236.890625 167.953125 236.945312 168.214844 C 236.339844 168.8125 235.769531 169.46875 235.261719 170.234375 C 232.871094 173.84375 230.496094 177.394531 227.664062 180.6875 C 226.046875 182.570312 224.257812 184.730469 222.296875 186.605469 C 225.460938 178.789062 229.007812 171.148438 232.867188 163.644531 M 239.273438 161.429688 C 241.523438 161.328125 243.777344 161.113281 246.011719 160.820312 C 247.832031 160.582031 249.636719 160.257812 251.433594 159.886719 C 249.164062 161.058594 246.902344 162.230469 244.636719 163.398438 C 242.339844 164.589844 240.132812 165.605469 238.226562 167.082031 C 238.070312 166.492188 237.890625 165.90625 237.652344 165.339844 C 237.035156 163.890625 236.085938 162.582031 234.835938 161.679688 C 235.128906 161.59375 235.472656 161.53125 235.886719 161.5 C 237 161.398438 238.15625 161.480469 239.273438 161.429688 M 244.125 175.496094 C 243.894531 175.457031 243.660156 175.429688 243.429688 175.371094 C 242.699219 175.183594 241.996094 174.910156 241.308594 174.601562 C 240.796875 174.371094 239.921875 174.109375 239.535156 173.667969 C 239.136719 173.210938 239.140625 172.359375 239.054688 171.792969 C 238.929688 170.992188 238.828125 170.191406 238.703125 169.394531 C 238.664062 169.164062 238.621094 168.929688 238.578125 168.699219 C 238.769531 168.519531 238.941406 168.328125 239.152344 168.167969 C 240.914062 166.804688 243.078125 165.90625 245.054688 164.898438 C 248.496094 163.132812 251.9375 161.375 255.378906 159.609375 C 253.433594 162.597656 251.492188 165.589844 249.523438 168.5625 C 248.359375 170.3125 247.230469 172.117188 245.976562 173.796875 C 245.453125 174.496094 244.8125 175.027344 244.125 175.496094 M 258.558594 155.691406 C 253.609375 157.199219 248.53125 158.296875 243.398438 158.949219 C 240.90625 159.265625 238.398438 159.472656 235.886719 159.601562 C 234.117188 159.695312 232.765625 159.757812 231.753906 161.363281 C 229.082031 165.601562 227.085938 170.453125 225.039062 175.011719 C 222.957031 179.640625 221.023438 184.332031 219.21875 189.070312 C 219.207031 189.09375 219.214844 189.109375 219.207031 189.132812 C 218.808594 189.398438 218.402344 189.65625 217.988281 189.878906 C 217.066406 190.378906 217.453125 191.976562 218.535156 191.90625 C 223.636719 191.566406 228.78125 189.941406 233.617188 188.371094 C 238.699219 186.722656 243.667969 184.765625 248.605469 182.738281 C 250.46875 181.976562 253.039062 181.382812 254.5625 180.011719 C 256.148438 178.59375 256.234375 175.984375 256.636719 174.03125 C 257.792969 168.402344 258.824219 162.746094 259.976562 157.113281 C 260.148438 156.285156 259.449219 155.417969 258.558594 155.691406 " fill-opacity="1" fill-rule="nonzero"/><path fill="#231f20" d="M 254.359375 106.898438 C 253.800781 106.910156 253.238281 107.039062 252.679688 107.300781 C 251.757812 107.730469 250.980469 108.402344 250.121094 108.933594 C 249.265625 109.464844 248.335938 109.800781 247.410156 110.195312 C 245.980469 110.808594 244.597656 111.527344 243.421875 112.546875 C 243.53125 112.332031 243.648438 112.121094 243.773438 111.898438 C 246.078125 107.765625 248.378906 103.632812 250.6875 99.503906 C 250.855469 99.195312 250.710938 98.90625 250.476562 98.761719 C 250.890625 98.078125 251.308594 97.394531 251.667969 96.675781 C 251.882812 96.246094 251.628906 95.855469 251.285156 95.710938 L 251.839844 95.253906 C 253.84375 98.832031 254.457031 102.839844 254.359375 106.898438 M 254.234375 109.292969 C 254.011719 111.800781 253.890625 115.054688 252.832031 117.367188 C 252.511719 118.070312 251.957031 118.683594 251.300781 119.253906 C 251.199219 119.195312 251.085938 119.15625 250.976562 119.152344 C 249.050781 119.042969 247.203125 118.429688 245.601562 117.351562 C 244.792969 116.808594 244.019531 116.128906 243.429688 115.351562 C 243.238281 115.101562 243.128906 114.867188 243.050781 114.632812 C 243.722656 113.835938 244.476562 113.121094 245.414062 112.644531 C 246.960938 111.863281 248.675781 111.550781 250.191406 110.675781 C 251.410156 109.972656 252.796875 108.417969 254.308594 108.113281 C 254.285156 108.503906 254.265625 108.902344 254.234375 109.292969 M 246.078125 122.632812 C 241.640625 125.671875 237.359375 128.953125 233.269531 132.445312 C 230.789062 134.558594 228.179688 136.753906 225.769531 139.105469 C 226.371094 138.304688 226.902344 137.425781 227.453125 136.65625 C 228.644531 134.996094 229.8125 133.316406 230.988281 131.644531 C 233.335938 128.296875 235.679688 124.949219 238.027344 121.605469 C 239.140625 120.023438 240.246094 118.429688 241.378906 116.859375 C 241.636719 116.503906 241.894531 116.136719 242.15625 115.773438 C 242.800781 116.835938 243.910156 117.722656 244.824219 118.367188 C 246.335938 119.425781 248.066406 120.054688 249.875 120.324219 C 248.570312 121.175781 247.128906 121.914062 246.078125 122.632812 M 224.347656 136.535156 C 226.023438 128.597656 227.574219 120.636719 229.246094 112.699219 C 229.546875 111.25 229.710938 109.421875 230.289062 107.890625 C 232.238281 108.144531 234.152344 108.140625 236.074219 107.945312 C 234.960938 109.875 234.234375 112.105469 233.429688 114.171875 C 231.601562 118.878906 229.789062 123.589844 227.929688 128.285156 C 227.007812 130.605469 226.121094 132.976562 225.214844 135.347656 C 224.929688 135.742188 224.644531 136.140625 224.347656 136.535156 M 231.980469 105.542969 C 233.945312 104.183594 236.296875 103.226562 238.410156 102.121094 C 241.78125 100.367188 245.132812 98.578125 248.484375 96.792969 C 245.671875 99.148438 242.855469 101.5 240.039062 103.855469 C 239.042969 104.6875 238.015625 105.511719 237.15625 106.476562 C 235.128906 106.84375 233.023438 106.847656 230.984375 106.578125 C 231.261719 106.183594 231.574219 105.820312 231.980469 105.542969 M 239.953125 109.992188 C 239.4375 109.058594 239.15625 107.996094 239.171875 106.921875 C 239.175781 106.5625 238.898438 106.296875 238.566406 106.25 C 239.304688 105.546875 240.109375 104.890625 240.941406 104.207031 L 250.078125 96.703125 C 247.355469 101.601562 243.394531 105.609375 239.953125 109.992188 M 242.128906 112.308594 C 242.078125 112.257812 242.042969 112.203125 241.972656 112.160156 C 241.558594 111.902344 241.183594 111.582031 240.847656 111.230469 C 242.851562 108.632812 245.046875 106.167969 247.085938 103.59375 C 246.542969 104.546875 246 105.5 245.460938 106.449219 C 244.714844 107.761719 243.96875 109.070312 243.222656 110.382812 C 242.875 110.996094 242.457031 111.636719 242.128906 112.308594 M 237.175781 107.808594 C 237.378906 107.78125 237.582031 107.75 237.785156 107.71875 C 237.820312 109.019531 238.222656 110.265625 238.910156 111.339844 C 237.730469 112.933594 236.636719 114.59375 235.71875 116.378906 C 233.578125 120.546875 231.90625 124.867188 229.464844 128.890625 C 228.949219 129.738281 228.414062 130.582031 227.867188 131.417969 C 227.996094 131.089844 228.125 130.757812 228.25 130.429688 C 230.027344 125.707031 231.835938 121 233.644531 116.289062 C 234.515625 114.023438 235.261719 111.671875 236.226562 109.453125 C 236.492188 108.84375 236.816406 108.308594 237.175781 107.808594 M 241.667969 114.441406 C 240.882812 115.460938 240.171875 116.550781 239.4375 117.585938 C 236.746094 121.355469 234.019531 125.097656 231.3125 128.855469 C 230.816406 129.542969 230.324219 130.230469 229.828125 130.917969 C 229.976562 130.679688 230.140625 130.453125 230.285156 130.214844 C 232.847656 126.117188 234.628906 121.734375 236.804688 117.445312 C 237.683594 115.710938 238.734375 114.097656 239.867188 112.539062 C 240.253906 112.929688 240.667969 113.292969 241.136719 113.59375 C 241.324219 113.714844 241.5 113.734375 241.664062 113.707031 C 241.632812 113.957031 241.632812 114.203125 241.667969 114.441406 M 256.410156 107.503906 C 256.355469 107.46875 256.300781 107.453125 256.246094 107.421875 C 256.332031 102.535156 255.503906 97.660156 252.8125 93.496094 C 252.558594 93.097656 252.066406 92.960938 251.644531 93.1875 C 246.734375 95.839844 241.832031 98.5 236.949219 101.199219 C 234.863281 102.351562 232.273438 103.332031 230.457031 104.886719 C 228.96875 106.15625 228.707031 108.164062 228.289062 109.972656 C 225.976562 119.941406 223.726562 129.875 222.046875 139.96875 C 221.902344 140.230469 221.742188 140.480469 221.617188 140.742188 C 221.5 140.984375 221.628906 141.207031 221.820312 141.296875 C 221.75 141.730469 221.664062 142.164062 221.59375 142.605469 C 221.550781 142.890625 221.664062 143.117188 221.835938 143.277344 C 221.777344 143.386719 221.734375 143.5 221.675781 143.609375 C 221.222656 144.488281 222.273438 145.257812 223.007812 144.636719 C 225.386719 142.632812 227.472656 140.230469 229.761719 138.117188 C 231.886719 136.160156 234.070312 134.261719 236.304688 132.429688 C 241.171875 128.441406 246.308594 124.878906 251.597656 121.480469 C 253.769531 120.085938 254.890625 118.613281 255.371094 116.046875 C 255.84375 113.527344 256.128906 110.9375 256.230469 108.375 C 256.609375 108.320312 256.816406 107.78125 256.410156 107.503906 " fill-opacity="1" fill-rule="nonzero"/><path fill="#231f20" d="M 208.34375 20.5625 C 208.335938 17.097656 208.347656 13.636719 208.328125 10.175781 C 208.289062 2.980469 208.050781 -4.207031 207.960938 -11.398438 C 207.953125 -12.03125 206.988281 -12.03125 206.980469 -11.398438 C 206.890625 -4.207031 206.652344 2.980469 206.617188 10.175781 C 206.597656 13.636719 206.609375 17.097656 206.605469 20.5625 C 206.597656 24.082031 206.433594 27.609375 206.925781 31.097656 C 207.003906 31.640625 207.941406 31.640625 208.015625 31.097656 C 208.511719 27.609375 208.347656 24.082031 208.34375 20.5625 " fill-opacity="1" fill-rule="nonzero"/><path fill="#231f20" d="M 209.46875 58.960938 C 209.457031 57.136719 209.453125 55.3125 209.40625 53.488281 C 209.3125 49.839844 209.226562 46.195312 209.167969 42.546875 C 209.15625 41.847656 208.097656 41.847656 208.085938 42.546875 C 208.027344 46.195312 207.945312 49.839844 207.851562 53.488281 C 207.800781 55.3125 207.796875 57.136719 207.789062 58.960938 C 207.777344 60.699219 207.671875 62.449219 208.242188 64.117188 C 208.367188 64.496094 208.886719 64.5 209.015625 64.117188 C 209.585938 62.449219 209.476562 60.703125 209.46875 58.960938 " fill-opacity="1" fill-rule="nonzero"/><path fill="#231f20" d="M 208.71875 72.132812 C 208.625 71.277344 207.480469 71.277344 207.386719 72.132812 C 207.117188 74.601562 207.308594 77.054688 207.433594 79.53125 C 207.492188 80.742188 207.570312 81.941406 207.523438 83.15625 C 207.476562 84.351562 207.4375 85.554688 207.699219 86.730469 C 207.777344 87.082031 208.328125 87.082031 208.40625 86.730469 C 208.667969 85.554688 208.628906 84.351562 208.582031 83.15625 C 208.535156 81.941406 208.613281 80.742188 208.671875 79.53125 C 208.792969 77.054688 208.988281 74.601562 208.71875 72.132812 " fill-opacity="1" fill-rule="nonzero"/><path fill="#231f20" d="M 273.546875 98.140625 C 273.441406 98.140625 273.441406 98.300781 273.546875 98.300781 C 273.652344 98.300781 273.652344 98.140625 273.546875 98.140625 " fill-opacity="1" fill-rule="nonzero"/><path fill="#231f20" d="M 276.40625 18.398438 C 273.460938 22.636719 270.335938 26.746094 267.441406 31.015625 C 266.039062 33.082031 264.640625 35.144531 263.242188 37.207031 C 261.851562 39.257812 260.242188 41.367188 259.394531 43.707031 C 259.261719 44.074219 259.753906 44.292969 260.003906 44.0625 C 261.847656 42.378906 263.1875 40.046875 264.550781 37.972656 C 265.917969 35.890625 267.285156 33.808594 268.652344 31.726562 C 271.476562 27.425781 274.0625 22.980469 276.839844 18.652344 C 277.015625 18.375 276.585938 18.136719 276.40625 18.398438 " fill-opacity="1" fill-rule="nonzero"/><path fill="#231f20" d="M 255.289062 52.25 C 253.820312 54.660156 252.246094 56.984375 250.84375 59.441406 C 250.160156 60.648438 249.453125 61.839844 248.859375 63.089844 C 248.273438 64.320312 247.832031 65.617188 247.359375 66.894531 C 247.316406 67.011719 247.492188 67.117188 247.570312 67.019531 C 248.40625 65.953125 249.28125 64.90625 250.019531 63.769531 C 250.773438 62.605469 251.421875 61.382812 252.085938 60.167969 C 253.449219 57.6875 254.613281 55.125 255.898438 52.605469 C 256.101562 52.203125 255.527344 51.863281 255.289062 52.25 " fill-opacity="1" fill-rule="nonzero"/><path fill="#231f20" d="M 245.59375 69.148438 C 245.054688 70.382812 244.425781 71.578125 243.707031 72.714844 C 243.351562 73.277344 242.976562 73.828125 242.578125 74.359375 C 242.378906 74.625 242.15625 74.882812 241.964844 75.152344 C 241.769531 75.429688 241.628906 75.761719 241.464844 76.0625 C 241.375 76.222656 241.570312 76.347656 241.699219 76.246094 C 241.960938 76.039062 242.261719 75.835938 242.480469 75.582031 C 242.695312 75.335938 242.878906 75.050781 243.066406 74.785156 C 243.476562 74.210938 243.859375 73.621094 244.214844 73.015625 C 244.917969 71.835938 245.519531 70.601562 246.03125 69.332031 C 246.132812 69.082031 245.703125 68.898438 245.59375 69.148438 " fill-opacity="1" fill-rule="nonzero"/><path fill="#231f20" d="M 239.105469 80.703125 C 238.203125 82.0625 237.253906 83.402344 236.402344 84.796875 L 235.140625 86.851562 C 234.933594 87.195312 234.722656 87.535156 234.515625 87.878906 C 234.3125 88.207031 234.074219 88.539062 233.996094 88.917969 C 233.976562 89.015625 234.085938 89.128906 234.183594 89.0625 C 234.464844 88.855469 234.664062 88.554688 234.863281 88.269531 C 235.105469 87.917969 235.351562 87.5625 235.597656 87.210938 C 236.054688 86.546875 236.511719 85.886719 236.972656 85.222656 C 237.917969 83.859375 238.777344 82.429688 239.667969 81.035156 C 239.898438 80.675781 239.335938 80.351562 239.105469 80.703125 " fill-opacity="1" fill-rule="nonzero"/><path fill="#231f20" d="M 312.132812 97.167969 C 311.5 98.242188 307.8125 98.496094 306.683594 98.75 C 305.136719 99.097656 303.597656 99.449219 302.054688 99.800781 C 298.703125 100.566406 295.417969 101.449219 292.117188 102.394531 C 288.804688 103.339844 285.441406 103.925781 282.070312 104.601562 C 278.714844 105.277344 275.421875 106.273438 272.125 107.191406 C 270.957031 107.519531 271.457031 109.351562 272.628906 109.015625 C 275.917969 108.066406 279.242188 107.222656 282.484375 106.105469 C 285.613281 105.03125 288.691406 103.929688 291.914062 103.152344 C 295.117188 102.382812 298.324219 101.664062 301.511719 100.820312 C 303.042969 100.414062 304.574219 100.015625 306.101562 99.621094 C 307.453125 99.273438 311.300781 97.667969 312.460938 98.425781 C 314.636719 99.84375 313.515625 94.832031 312.132812 97.167969 " fill-opacity="1" fill-rule="nonzero"/><path fill="#231f20" d="M 334.941406 92.875 C 334.644531 92.90625 334.304688 92.988281 334.003906 92.972656 C 333.742188 92.957031 333.480469 92.960938 333.203125 92.988281 C 332.597656 93.046875 332.027344 93.144531 331.4375 93.285156 C 330.226562 93.574219 329.019531 93.859375 327.8125 94.148438 C 327 94.34375 327.34375 95.628906 328.164062 95.410156 C 329.339844 95.105469 330.519531 94.796875 331.695312 94.488281 C 332.285156 94.332031 332.832031 94.152344 333.394531 93.917969 C 333.546875 93.855469 333.703125 93.804688 333.84375 93.730469 C 333.9375 93.683594 334 93.617188 334.082031 93.5625 C 334.335938 93.402344 334.703125 93.3125 334.984375 93.195312 C 335.136719 93.132812 335.140625 92.855469 334.941406 92.875 " fill-opacity="1" fill-rule="nonzero"/><path fill="#231f20" d="M 329.167969 145.53125 C 316.648438 144.414062 304.054688 144.335938 291.507812 144.710938 C 290.132812 144.753906 290.132812 146.8125 291.507812 146.851562 C 304.054688 147.226562 316.648438 147.148438 329.167969 146.035156 C 329.488281 146.003906 329.488281 145.558594 329.167969 145.53125 " fill-opacity="1" fill-rule="nonzero"/><path fill="#231f20" d="M 337.226562 147.476562 C 337.121094 147.476562 337.121094 147.636719 337.226562 147.636719 C 337.328125 147.636719 337.328125 147.476562 337.226562 147.476562 " fill-opacity="1" fill-rule="nonzero"/><path fill="#231f20" d="M 306.1875 46.820312 L 299.261719 53.128906 C 298.976562 53.386719 298.710938 53.640625 298.464844 53.941406 C 298.261719 54.191406 297.964844 54.445312 298.101562 54.800781 C 298.378906 55.515625 299.332031 54.683594 299.632812 54.417969 C 300.800781 53.414062 301.902344 52.3125 303.035156 51.261719 L 306.96875 47.601562 C 307.492188 47.117188 306.714844 46.339844 306.1875 46.820312 " fill-opacity="1" fill-rule="nonzero"/><path fill="#231f20" d="M 292.296875 60.761719 C 291.132812 62.046875 289.96875 63.328125 288.804688 64.613281 C 287.660156 65.871094 286.527344 67.191406 285.671875 68.660156 C 285.609375 68.773438 285.746094 68.9375 285.863281 68.851562 C 287.207031 67.828125 288.367188 66.558594 289.46875 65.277344 C 290.601562 63.964844 291.734375 62.648438 292.867188 61.332031 C 293.199219 60.941406 292.648438 60.375 292.296875 60.761719 " fill-opacity="1" fill-rule="nonzero"/><path fill="#231f20" d="M 281.550781 72.605469 C 281.261719 72.902344 280.972656 73.203125 280.683594 73.5 C 280.542969 73.644531 280.402344 73.789062 280.261719 73.9375 C 280.1875 74.011719 280.117188 74.085938 280.046875 74.160156 C 279.972656 74.238281 279.890625 74.308594 279.84375 74.40625 C 279.804688 74.488281 279.882812 74.566406 279.964844 74.527344 C 280.058594 74.484375 280.121094 74.410156 280.199219 74.335938 C 280.273438 74.265625 280.347656 74.191406 280.421875 74.121094 C 280.574219 73.972656 280.71875 73.828125 280.867188 73.6875 C 281.167969 73.398438 281.464844 73.105469 281.765625 72.816406 C 281.90625 72.683594 281.683594 72.464844 281.550781 72.605469 " fill-opacity="1" fill-rule="nonzero"/><path fill="#231f20" d="M 275.035156 80 C 274.101562 81.109375 273.136719 82.152344 272.085938 83.152344 C 271.042969 84.148438 270.070312 85.214844 269.015625 86.199219 C 267.988281 87.160156 266.929688 88.089844 265.839844 88.980469 C 265.265625 89.449219 264.6875 89.90625 264.097656 90.351562 C 263.617188 90.714844 262.980469 91.164062 262.808594 91.765625 C 262.753906 91.964844 262.90625 92.140625 263.101562 92.152344 C 263.714844 92.179688 264.335938 91.707031 264.804688 91.351562 C 265.363281 90.929688 265.917969 90.496094 266.460938 90.054688 C 267.609375 89.125 268.726562 88.15625 269.808594 87.148438 C 270.855469 86.171875 271.941406 85.179688 272.867188 84.085938 C 273.820312 82.957031 274.753906 81.796875 275.671875 80.636719 C 276.03125 80.191406 275.414062 79.546875 275.035156 80 " fill-opacity="1" fill-rule="nonzero"/><path fill="#231f20" d="M 176.535156 43.292969 C 176.25 40.867188 175.914062 38.441406 175.492188 36.03125 C 174.589844 30.890625 173.21875 25.871094 171.675781 20.886719 C 171.527344 20.40625 170.800781 20.605469 170.925781 21.09375 C 172.167969 25.964844 173.074219 30.933594 173.824219 35.90625 C 174.214844 38.457031 174.566406 41.007812 174.828125 43.578125 C 175.074219 45.996094 175.195312 48.425781 175.894531 50.769531 C 176 51.125 176.597656 51.183594 176.667969 50.769531 C 177.109375 48.269531 176.832031 45.792969 176.535156 43.292969 " fill-opacity="1" fill-rule="nonzero"/><path fill="#231f20" d="M 183.789062 72.214844 C 183.660156 71.613281 183.457031 71.035156 183.269531 70.449219 C 182.921875 69.363281 182.574219 68.273438 182.234375 67.1875 C 181.519531 64.925781 180.808594 62.667969 180.097656 60.410156 C 179.964844 59.992188 179.320312 60.167969 179.441406 60.589844 C 180.082031 62.867188 180.726562 65.144531 181.371094 67.421875 C 181.683594 68.523438 181.988281 69.617188 182.296875 70.714844 C 182.464844 71.308594 182.617188 71.902344 182.832031 72.480469 C 183.023438 73 183.332031 73.46875 183.621094 73.941406 C 183.703125 74.074219 183.929688 74.027344 183.925781 73.859375 C 183.90625 73.3125 183.90625 72.75 183.789062 72.214844 " fill-opacity="1" fill-rule="nonzero"/><path fill="#231f20" d="M 184.292969 75.535156 C 184.191406 75.535156 184.191406 75.695312 184.292969 75.695312 C 184.398438 75.695312 184.398438 75.535156 184.292969 75.535156 " fill-opacity="1" fill-rule="nonzero"/><path fill="#231f20" d="M 130.207031 53.328125 C 129.011719 50.859375 127.101562 48.703125 125.410156 46.5625 C 123.613281 44.289062 121.832031 42.003906 120.042969 39.726562 C 116.382812 35.058594 112.6875 30.417969 109.074219 25.710938 C 108.738281 25.273438 107.976562 25.695312 108.3125 26.15625 C 111.796875 30.894531 115.257812 35.648438 118.808594 40.335938 C 120.484375 42.550781 122.183594 44.746094 123.882812 46.945312 C 125.675781 49.265625 127.425781 51.84375 129.710938 53.707031 C 129.988281 53.933594 130.367188 53.660156 130.207031 53.328125 " fill-opacity="1" fill-rule="nonzero"/><path fill="#231f20" d="M 142.804688 67.960938 C 142.464844 67.5 142.113281 67.042969 141.730469 66.613281 C 140.976562 65.761719 140.101562 65.027344 139.332031 64.1875 C 137.792969 62.503906 136.304688 60.769531 134.730469 59.109375 C 134.464844 58.828125 134.027344 59.265625 134.304688 59.539062 C 135.90625 61.117188 137.496094 62.726562 138.902344 64.488281 C 139.613281 65.378906 140.167969 66.382812 140.828125 67.3125 C 141.140625 67.757812 141.480469 68.179688 141.816406 68.609375 C 142.132812 69.015625 142.476562 69.46875 142.980469 69.636719 C 143.195312 69.707031 143.433594 69.519531 143.429688 69.296875 C 143.410156 68.792969 143.097656 68.359375 142.804688 67.960938 " fill-opacity="1" fill-rule="nonzero"/><path fill="#231f20" d="M 163.121094 86.695312 C 162.46875 86.097656 161.859375 85.460938 161.234375 84.828125 C 159.957031 83.527344 158.859375 82.097656 157.4375 80.933594 C 156.054688 79.796875 154.632812 78.792969 153.382812 77.5 C 152.113281 76.183594 150.695312 75.082031 149.242188 73.976562 C 148.636719 73.519531 148.039062 74.546875 148.644531 75 C 150.058594 76.058594 151.433594 77.144531 152.902344 78.125 C 154.46875 79.167969 155.621094 80.507812 156.949219 81.8125 C 158.179688 83.019531 159.570312 84.066406 160.773438 85.292969 C 161.398438 85.925781 162 86.5625 162.558594 87.257812 C 163.042969 87.867188 163.507812 88.640625 164.265625 88.914062 C 164.492188 89 164.6875 88.75 164.636719 88.542969 C 164.445312 87.769531 163.683594 87.210938 163.121094 86.695312 " fill-opacity="1" fill-rule="nonzero"/><path fill="#231f20" d="M 130.75 95.28125 C 128.335938 93.621094 125.246094 92.664062 122.59375 91.417969 C 119.871094 90.140625 117.160156 88.828125 114.445312 87.53125 C 109.019531 84.9375 103.8125 81.933594 98.523438 79.066406 C 87.855469 73.28125 77.484375 67.027344 67.742188 59.773438 C 67.101562 59.300781 66.257812 60.386719 66.886719 60.878906 C 76.523438 68.375 86.773438 75 97.574219 80.695312 C 102.910156 83.511719 108.453125 85.863281 113.882812 88.492188 C 116.59375 89.804688 119.332031 91.0625 122.058594 92.335938 C 124.75 93.589844 127.523438 95.351562 130.390625 96.132812 C 130.917969 96.273438 131.175781 95.574219 130.75 95.28125 " fill-opacity="1" fill-rule="nonzero"/><path fill="#231f20" d="M 136.207031 98.714844 C 136.101562 98.714844 136.101562 98.875 136.207031 98.875 C 136.3125 98.875 136.3125 98.714844 136.207031 98.714844 " fill-opacity="1" fill-rule="nonzero"/><path fill="#231f20" d="M 150.328125 104.035156 C 149.804688 103.757812 149.128906 103.722656 148.558594 103.609375 C 147.992188 103.492188 147.433594 103.363281 146.878906 103.210938 C 145.59375 102.859375 144.410156 102.191406 143.273438 101.503906 C 143.109375 101.402344 142.957031 101.660156 143.121094 101.765625 C 144.101562 102.378906 145.15625 102.84375 146.148438 103.429688 C 147.121094 104.003906 148.144531 104.609375 149.210938 104.992188 C 149.480469 105.089844 149.792969 105.175781 150.082031 105.179688 C 150.332031 105.179688 150.660156 105.214844 150.863281 105.027344 C 151.304688 104.605469 150.65625 104.207031 150.328125 104.035156 " fill-opacity="1" fill-rule="nonzero"/><path fill="#231f20" d="M 160.558594 107.011719 C 160.09375 106.828125 159.621094 106.742188 159.125 106.71875 C 158.605469 106.691406 158.132812 106.476562 157.648438 106.304688 C 157.164062 106.132812 156.703125 105.933594 156.214844 105.765625 C 155.714844 105.59375 155.214844 105.421875 154.714844 105.25 C 154.40625 105.144531 154.273438 105.632812 154.582031 105.734375 L 156.03125 106.21875 C 156.515625 106.378906 157.003906 106.5 157.492188 106.65625 C 158.003906 106.824219 158.535156 106.949219 158.976562 107.269531 C 159.378906 107.5625 159.84375 107.757812 160.316406 107.894531 C 160.894531 108.054688 161.09375 107.222656 160.558594 107.011719 " fill-opacity="1" fill-rule="nonzero"/><g clip-path="url(#436879d1f4)"><path fill="#231f20" d="M 34.816406 113.824219 C 34.714844 113.824219 34.714844 113.984375 34.816406 113.984375 C 34.921875 113.984375 34.921875 113.824219 34.816406 113.824219 " fill-opacity="1" fill-rule="nonzero"/></g><path fill="#231f20" d="M 88.441406 127.558594 C 88.375 127.34375 88.179688 127.179688 87.949219 127.183594 C 87.613281 127.183594 87.300781 127.160156 86.964844 127.207031 C 86.644531 127.253906 86.324219 127.304688 86.003906 127.351562 C 85.386719 127.445312 84.789062 127.589844 84.179688 127.730469 C 82.949219 128.019531 81.6875 128.207031 80.445312 128.441406 C 80.183594 128.488281 80.042969 128.804688 80.105469 129.042969 C 80.179688 129.324219 80.445312 129.421875 80.707031 129.386719 C 81.9375 129.207031 83.171875 128.988281 84.410156 128.867188 C 85.011719 128.808594 85.613281 128.757812 86.207031 128.648438 L 87.085938 128.488281 C 87.445312 128.425781 87.742188 128.300781 88.082031 128.1875 C 88.296875 128.121094 88.464844 127.929688 88.460938 127.695312 C 88.460938 127.648438 88.457031 127.601562 88.441406 127.558594 " fill-opacity="1" fill-rule="nonzero"/><path fill="#231f20" d="M 99.308594 128.703125 C 99.074219 128.511719 98.683594 128.503906 98.378906 128.484375 C 98.074219 128.46875 97.765625 128.472656 97.460938 128.464844 C 96.855469 128.453125 96.257812 128.4375 95.65625 128.421875 C 95.378906 128.417969 95.113281 128.671875 95.125 128.953125 C 95.140625 129.234375 95.359375 129.488281 95.65625 129.480469 C 96.257812 129.46875 96.855469 129.453125 97.460938 129.441406 C 97.753906 129.433594 98.050781 129.429688 98.34375 129.417969 C 98.496094 129.417969 98.640625 129.390625 98.789062 129.371094 C 98.992188 129.347656 99.144531 129.332031 99.308594 129.199219 C 99.445312 129.085938 99.445312 128.816406 99.308594 128.703125 " fill-opacity="1" fill-rule="nonzero"/><path fill="#231f20" d="M 112.726562 129.390625 C 112.585938 129.269531 112.46875 129.179688 112.28125 129.140625 C 112.167969 129.117188 112.054688 129.097656 111.941406 129.070312 C 111.683594 129.019531 111.429688 128.96875 111.175781 128.917969 L 109.671875 128.609375 C 109.40625 128.558594 109.101562 128.6875 109.039062 128.972656 C 108.980469 129.226562 109.113281 129.550781 109.398438 129.605469 C 109.898438 129.703125 110.402344 129.800781 110.90625 129.898438 L 111.644531 130.042969 C 111.769531 130.066406 111.890625 130.089844 112.011719 130.113281 C 112.097656 130.128906 112.179688 130.148438 112.265625 130.152344 C 112.359375 130.15625 112.453125 130.117188 112.542969 130.085938 C 112.816406 129.992188 112.976562 129.605469 112.726562 129.390625 " fill-opacity="1" fill-rule="nonzero"/><path fill="#231f20" d="M 121.144531 130.078125 C 121.039062 130.078125 121.039062 130.238281 121.144531 130.238281 C 121.25 130.238281 121.25 130.078125 121.144531 130.078125 " fill-opacity="1" fill-rule="nonzero"/><path fill="#231f20" d="M 146.859375 130.648438 C 146.691406 130.484375 146.652344 130.277344 146.4375 130.136719 C 146.199219 129.980469 145.859375 129.945312 145.589844 129.886719 C 144.921875 129.730469 144.253906 129.597656 143.582031 129.476562 C 142.335938 129.253906 141.078125 129.082031 139.816406 128.976562 C 137.191406 128.761719 134.539062 128.988281 131.9375 129.390625 C 131.011719 129.535156 131.21875 131.164062 132.164062 131.050781 C 134.664062 130.738281 137.164062 130.722656 139.679688 130.8125 C 140.925781 130.855469 142.175781 130.949219 143.410156 131.121094 C 144.042969 131.207031 144.675781 131.324219 145.300781 131.441406 C 145.527344 131.484375 145.820312 131.574219 146.050781 131.566406 C 146.328125 131.550781 146.445312 131.378906 146.6875 131.300781 C 146.960938 131.214844 147.070312 130.863281 146.859375 130.648438 " fill-opacity="1" fill-rule="nonzero"/><path fill="#231f20" d="M 102.957031 105.980469 C 101.214844 104.050781 98.523438 102.921875 96.125 102.050781 C 93.578125 101.125 90.964844 100.421875 88.285156 100.011719 C 87.464844 99.886719 87.101562 101.128906 87.9375 101.277344 C 90.523438 101.730469 93.085938 102.421875 95.511719 103.441406 C 96.699219 103.941406 97.882812 104.496094 99.035156 105.085938 C 100.160156 105.660156 101.359375 106.269531 102.566406 106.65625 C 102.96875 106.785156 103.210938 106.265625 102.957031 105.980469 " fill-opacity="1" fill-rule="nonzero"/><path fill="#231f20" d="M 134.160156 118.515625 C 133.929688 117.921875 133.40625 117.636719 132.894531 117.292969 C 132.25 116.863281 131.59375 116.460938 130.917969 116.085938 C 129.570312 115.34375 128.164062 114.679688 126.734375 114.117188 C 123.839844 112.980469 120.765625 112.449219 117.664062 112.386719 C 116.96875 112.371094 116.96875 113.445312 117.664062 113.46875 C 120.613281 113.5625 123.53125 114.140625 126.324219 115.082031 C 127.757812 115.5625 129.121094 116.167969 130.429688 116.917969 C 131.0625 117.277344 131.679688 117.664062 132.28125 118.074219 C 132.792969 118.425781 133.222656 118.851562 133.859375 118.914062 C 134.046875 118.933594 134.230469 118.695312 134.160156 118.515625 " fill-opacity="1" fill-rule="nonzero"/><path fill="#231f20" d="M 142.003906 120.175781 C 141.898438 120.175781 141.898438 120.335938 142.003906 120.335938 C 142.105469 120.335938 142.105469 120.175781 142.003906 120.175781 " fill-opacity="1" fill-rule="nonzero"/><path fill="#231f20" d="M 148.378906 121.378906 C 148.273438 121.378906 148.273438 121.539062 148.378906 121.539062 C 148.484375 121.539062 148.484375 121.378906 148.378906 121.378906 " fill-opacity="1" fill-rule="nonzero"/><path fill="#231f20" d="M 134.417969 144.785156 C 133.570312 144.683594 132.613281 145.03125 131.792969 145.230469 C 130.929688 145.441406 130.070312 145.675781 129.203125 145.882812 C 127.445312 146.296875 125.667969 146.636719 123.875 146.878906 C 123.261719 146.964844 123.402344 148.023438 124.023438 147.964844 C 125.878906 147.796875 127.730469 147.535156 129.554688 147.148438 C 130.457031 146.957031 131.351562 146.746094 132.234375 146.460938 C 133.03125 146.203125 134.027344 145.921875 134.640625 145.324219 C 134.855469 145.117188 134.671875 144.816406 134.417969 144.785156 " fill-opacity="1" fill-rule="nonzero"/><path fill="#231f20" d="M 136.785156 146.273438 C 136.679688 146.273438 136.679688 146.4375 136.785156 146.4375 C 136.890625 146.4375 136.890625 146.273438 136.785156 146.273438 " fill-opacity="1" fill-rule="nonzero"/><path fill="#231f20" d="M 138.515625 158.808594 C 137.132812 158.976562 135.785156 159.542969 134.453125 159.9375 C 133.074219 160.34375 131.667969 160.652344 130.25 160.871094 C 129.902344 160.925781 129.707031 161.363281 129.792969 161.679688 C 129.894531 162.050781 130.246094 162.191406 130.597656 162.132812 C 132.042969 161.90625 133.46875 161.585938 134.867188 161.160156 C 136.195312 160.757812 137.671875 160.257812 138.730469 159.324219 C 138.914062 159.160156 138.777344 158.777344 138.515625 158.808594 " fill-opacity="1" fill-rule="nonzero"/><path fill="#231f20" d="M 139.683594 184.5625 C 139.578125 184.5625 139.578125 184.726562 139.683594 184.726562 C 139.789062 184.726562 139.789062 184.5625 139.683594 184.5625 " fill-opacity="1" fill-rule="nonzero"/><path fill="#231f20" d="M 281.265625 161.671875 C 280.175781 161.011719 278.992188 160.511719 277.753906 160.214844 C 277.15625 160.070312 276.527344 159.949219 275.910156 159.917969 C 275.289062 159.886719 274.617188 159.882812 274.027344 160.089844 C 273.832031 160.160156 273.796875 160.476562 274.027344 160.53125 C 274.609375 160.65625 275.207031 160.648438 275.800781 160.726562 C 276.382812 160.800781 276.960938 160.875 277.535156 161.015625 C 278.707031 161.300781 279.816406 161.761719 280.84375 162.386719 C 281.304688 162.664062 281.722656 161.945312 281.265625 161.671875 " fill-opacity="1" fill-rule="nonzero"/><path fill="#231f20" d="M 277.835938 144.785156 C 277.273438 144.402344 276.300781 144.753906 275.691406 144.875 C 275.050781 144.996094 274.402344 145.050781 273.753906 145.105469 C 272.371094 145.214844 270.988281 145.003906 269.664062 144.589844 C 268.75 144.304688 268.378906 145.71875 269.273438 146.023438 C 270.738281 146.523438 272.28125 146.738281 273.828125 146.761719 C 274.601562 146.773438 275.378906 146.652344 276.136719 146.492188 C 276.8125 146.34375 277.839844 146.09375 278.0625 145.339844 C 278.125 145.121094 278.015625 144.910156 277.835938 144.785156 " fill-opacity="1" fill-rule="nonzero"/><path fill="#231f20" d="M 275.207031 126.414062 C 274.746094 126.417969 274.285156 126.433594 273.839844 126.554688 C 273.457031 126.65625 273.078125 126.777344 272.710938 126.917969 C 271.824219 127.25 270.964844 127.664062 270.167969 128.175781 C 269.742188 128.453125 269.53125 129.050781 269.820312 129.503906 C 270.097656 129.929688 270.691406 130.144531 271.144531 129.851562 C 271.476562 129.640625 271.816406 129.441406 272.167969 129.257812 C 272.34375 129.167969 272.519531 129.082031 272.703125 129 L 272.824219 128.945312 C 272.828125 128.945312 272.855469 128.933594 272.875 128.925781 C 272.894531 128.914062 272.925781 128.902344 272.929688 128.902344 C 272.984375 128.878906 273.042969 128.855469 273.097656 128.832031 C 273.46875 128.691406 273.839844 128.566406 274.222656 128.460938 C 274.605469 128.351562 274.964844 128.210938 275.339844 128.082031 C 275.785156 127.925781 276.351562 127.726562 276.351562 127.15625 C 276.351562 126.5625 275.667969 126.410156 275.207031 126.414062 " fill-opacity="1" fill-rule="nonzero"/><path fill="#231f20" d="M 145.445312 177.867188 C 145.042969 177.824219 144.589844 178.03125 144.230469 178.222656 C 143.878906 178.414062 143.535156 178.621094 143.183594 178.820312 C 142.480469 179.214844 141.785156 179.613281 141.082031 180.011719 C 140.785156 180.179688 140.6875 180.582031 140.855469 180.875 C 141.027344 181.167969 141.421875 181.273438 141.714844 181.101562 C 142.410156 180.691406 143.105469 180.285156 143.800781 179.878906 C 144.148438 179.675781 144.5 179.476562 144.84375 179.265625 C 145.183594 179.054688 145.585938 178.769531 145.75 178.398438 C 145.863281 178.140625 145.726562 177.898438 145.445312 177.867188 " fill-opacity="1" fill-rule="nonzero"/><path fill="#231f20" d="M 104.808594 155.261719 C 104.027344 155.425781 103.246094 155.589844 102.46875 155.753906 C 102.195312 155.8125 102.011719 156.144531 102.097656 156.40625 C 102.183594 156.675781 102.464844 156.855469 102.75 156.773438 L 105.042969 156.109375 C 105.265625 156.046875 105.421875 155.796875 105.351562 155.566406 C 105.269531 155.328125 105.046875 155.210938 104.808594 155.261719 " fill-opacity="1" fill-rule="nonzero"/><path fill="#231f20" d="M 115.949219 166.363281 C 115.253906 166.308594 114.484375 166.601562 113.808594 166.753906 C 113.136719 166.90625 112.480469 167.105469 111.816406 167.300781 C 110.445312 167.707031 109.070312 168.113281 107.699219 168.519531 C 106.8125 168.78125 107.199219 170.1875 108.082031 169.90625 L 112.25 168.570312 C 112.933594 168.351562 113.613281 168.128906 114.28125 167.863281 C 114.921875 167.613281 115.667969 167.421875 116.207031 166.988281 C 116.476562 166.769531 116.230469 166.386719 115.949219 166.363281 " fill-opacity="1" fill-rule="nonzero"/></svg>