<?xml version="1.0" encoding="utf-8"?>
<!-- Generator: Adobe Illustrator 22.0.1, SVG Export Plug-In . SVG Version: 6.00 Build 0)  -->
<svg version="1.1" id="Layer_1" xmlns="http://www.w3.org/2000/svg" xmlns:xlink="http://www.w3.org/1999/xlink" x="0px" y="0px"
	 viewBox="0 0 128 128" style="enable-background:new 0 0 128 128;" xml:space="preserve">
<g>
	<path d="M114,1H14C6.8,1,1,6.8,1,14v10v4c0,1.7,1.3,3,3,3h120c1.7,0,3-1.3,3-3V14C127,6.8,121.2,1,114,1z M22,19h-4
		c-1.7,0-3-1.3-3-3s1.3-3,3-3h4c1.7,0,3,1.3,3,3S23.7,19,22,19z M38,19h-4c-1.7,0-3-1.3-3-3s1.3-3,3-3h4c1.7,0,3,1.3,3,3
		S39.7,19,38,19z M110,19H76c-1.7,0-3-1.3-3-3s1.3-3,3-3h34c1.7,0,3,1.3,3,3S111.7,19,110,19z"/>
	<path d="M124,37H4c-1.7,0-3,1.3-3,3v74c0,7.2,5.8,13,13,13h100c7.2,0,13-5.8,13-13V40C127,38.3,125.7,37,124,37z M55.9,66.7l-8,32
		c-0.3,1.3-1.5,2.3-2.9,2.3s-2.6-0.9-2.9-2.3L37,78.4l-5.1,20.4c-0.3,1.3-1.5,2.3-2.9,2.3s-2.6-0.9-2.9-2.3l-8-32
		c-0.4-1.6,0.6-3.2,2.2-3.6c1.6-0.4,3.2,0.6,3.6,2.2L29,85.6l5.1-20.4c0.3-1.3,1.5-2.3,2.9-2.3s2.6,0.9,2.9,2.3L45,85.6l5.1-20.4
		c0.4-1.6,2-2.6,3.6-2.2C55.3,63.5,56.3,65.1,55.9,66.7z M78,79c1.7,0,3,1.3,3,3s-1.3,3-3,3H67v10h11c1.7,0,3,1.3,3,3s-1.3,3-3,3H64
		c-1.7,0-3-1.3-3-3V66c0-1.7,1.3-3,3-3h14c1.7,0,3,1.3,3,3s-1.3,3-3,3H67v10H78z M98,101h-9c-1.7,0-3-1.3-3-3V66c0-1.7,1.3-3,3-3h7
		c5.5,0,10,4.5,10,10c0,2.1-0.7,4.1-1.8,5.7c3.5,2.1,5.8,5.9,5.8,10.3C110,95.6,104.6,101,98,101z"/>
	<path d="M98,83h-6v12h6c3.3,0,6-2.7,6-6S101.3,83,98,83z"/>
	<path d="M100,73c0-2.2-1.8-4-4-4h-4v8h4C98.2,77,100,75.2,100,73z"/>
</g>
</svg>