<svg xmlns="http://www.w3.org/2000/svg"  viewBox="0 0 64 64" width="30px" height="30px"><path d="M 24 10 C 21.184 10 18.817688 11.942453 18.179688 14.564453 C 18.144688 14.707453 18.113844 14.853 18.089844 15 L 41 15 C 45.96 15 50 19.04 50 24 L 50 46.910156 C 50.169 46.882156 50.336 46.846688 50.5 46.804688 C 53.09 46.143688 55 43.793 55 41 L 55 16 C 55 12.69 52.31 10 49 10 L 24 10 z M 17 18 C 13.69 18 11 20.69 11 24 L 11 48 C 11 51.31 13.69 54 17 54 L 41 54 C 44.31 54 47 51.31 47 48 L 47 24 C 47 20.69 44.31 18 41 18 L 17 18 z M 33.324219 25.001953 C 35.032969 25.001953 36.739063 25.655938 38.039062 26.960938 C 40.649062 29.560937 40.649062 33.790391 38.039062 36.400391 L 36.103516 38.345703 C 36.051516 38.398703 36.041703 38.409469 35.970703 38.480469 C 35.990703 38.230469 36 37.970937 36 37.710938 C 36 36.660937 35.810938 35.660469 35.460938 34.730469 L 35.919922 34.271484 C 37.359922 32.841484 37.359922 30.510078 35.919922 29.080078 C 34.489922 27.640078 32.160469 27.650078 30.730469 29.080078 L 28.601562 31.210938 C 30.698562 31.643938 32.074094 32.927859 31.996094 33.005859 C 34.598094 35.607859 34.598094 39.842312 31.996094 42.445312 L 29.396484 45.044922 C 28.094484 46.345922 26.385781 46.996094 24.675781 46.996094 C 22.966781 46.996094 21.259031 46.343969 19.957031 45.042969 C 17.347031 42.442969 17.350938 38.209609 19.960938 35.599609 L 21.859375 33.691406 C 21.925375 33.624406 21.958297 33.590531 22.029297 33.519531 C 22.009297 33.769531 22 34.029063 22 34.289062 C 22 35.339063 22.190016 36.339531 22.541016 37.269531 L 22.080078 37.730469 C 20.640078 39.160469 20.640078 41.489922 22.080078 42.919922 C 21.851078 43.144922 25.030391 45.168828 27.275391 42.923828 L 29.386719 40.8125 C 28.149719 40.5605 26.966 39.958 26 39 C 24.7 37.7 24.050781 35.979297 24.050781 34.279297 C 24.050781 32.559297 24.7 30.860781 26 29.550781 L 28.599609 26.960938 C 29.904609 25.655938 31.615469 25.001953 33.324219 25.001953 z M 27.072266 34.035156 C 27.005266 35.053156 27.349859 36.093141 28.130859 36.869141 C 28.900859 37.638141 29.924688 37.988594 30.929688 37.933594 C 30.986688 36.924594 30.642047 35.895953 29.873047 35.126953 C 29.795047 35.204953 28.748266 33.935156 27.072266 34.035156 z"/></svg>