<?xml version="1.0" encoding="iso-8859-1"?>
<!-- Generator: Adobe Illustrator 24.2.1, SVG Export Plug-In . SVG Version: 6.00 Build 0)  -->
<svg version="1.1" id="Layer_1" xmlns="http://www.w3.org/2000/svg" xmlns:xlink="http://www.w3.org/1999/xlink" x="0px" y="0px"
	 viewBox="0 0 48 48" style="enable-background:new 0 0 48 48;" xml:space="preserve">
<path d="M36.5,6h-25C8.467,6,6,8.468,6,11.5v25c0,3.032,2.467,5.5,5.5,5.5h25c3.033,0,5.5-2.468,5.5-5.5v-25
	C42,8.468,39.533,6,36.5,6z M36,24.5c0,0.828-0.671,1.5-1.5,1.5S33,25.328,33,24.5v-7.379L17.561,32.561
	C17.268,32.854,16.884,33,16.5,33s-0.768-0.146-1.061-0.439c-0.586-0.586-0.586-1.535,0-2.121L30.879,15H23.5
	c-0.829,0-1.5-0.672-1.5-1.5s0.671-1.5,1.5-1.5h11c0.829,0,1.5,0.672,1.5,1.5V24.5z"/>
</svg>