<svg fill="#000000" xmlns="http://www.w3.org/2000/svg"  viewBox="0 0 30 30" width="30px" height="30px"><path d="M15.01,3c-0.19,0-0.37,0-0.56,0.01C7.83,3.32,2.71,8.93,3.01,15.55C3.31,21.99,8.62,27,14.99,27c0.19,0,0.37,0,0.56-0.01 c6.62-0.31,11.74-5.92,11.44-12.54C26.69,8.01,21.38,3,15.01,3z M12.51,15.87l0.03,0.02l1.37,0.68l0.03,0.01l0.61,0.31 c0.28,0.15,0.62,0.15,0.9,0l0.57-0.29l0.03-0.01l1.53-0.76l0.01-0.01l3.26-1.63L22,13.62V19c0,0.55-0.45,1-1,1H9 c-0.55,0-1-0.45-1-1v-5.38l1.18,0.59L12.51,15.87z M21.45,11.66l-3.29,1.64l-0.01,0.01L15,14.88l-3.03-1.51l-0.01-0.01l-3.41-1.7 C8.21,11.49,8,11.14,8,10.76V10h14v0.76C22,11.15,21.79,11.49,21.45,11.66z"/></svg>