<svg xmlns="http://www.w3.org/2000/svg"  viewBox="0 0 50 50" width="50px" height="50px"><path d="M 10 4 C 6.6983746 4 4 6.6983746 4 10 L 4 15 A 1.0001 1.0001 0 1 0 6 15 L 6 10 C 6 7.7796254 7.7796254 6 10 6 L 15 6 A 1.0001 1.0001 0 1 0 15 4 L 10 4 z M 35 4 A 1.0001 1.0001 0 1 0 35 6 L 40 6 C 42.220375 6 44 7.7796254 44 10 L 44 15 A 1.0001 1.0001 0 1 0 46 15 L 46 10 C 46 6.6983746 43.301625 4 40 4 L 35 4 z M 15.984375 17.986328 A 1.0001 1.0001 0 0 0 15 19 L 15 22 A 1.0001 1.0001 0 1 0 17 22 L 17 19 A 1.0001 1.0001 0 0 0 15.984375 17.986328 z M 25.984375 17.986328 A 1.0001 1.0001 0 0 0 25 19 L 25 27 C 25 27.56503 24.56503 28 24 28 L 23 28 A 1.0001 1.0001 0 1 0 23 30 L 24 30 C 25.64497 30 27 28.64497 27 27 L 27 19 A 1.0001 1.0001 0 0 0 25.984375 17.986328 z M 33.984375 17.986328 A 1.0001 1.0001 0 0 0 33 19 L 33 22 A 1.0001 1.0001 0 1 0 35 22 L 35 19 A 1.0001 1.0001 0 0 0 33.984375 17.986328 z M 4.984375 32.986328 A 1.0001 1.0001 0 0 0 4 34 L 4 40 C 4 43.301625 6.6983746 46 10 46 L 15 46 A 1.0001 1.0001 0 1 0 15 44 L 10 44 C 7.7796254 44 6 42.220375 6 40 L 6 34 A 1.0001 1.0001 0 0 0 4.984375 32.986328 z M 30.990234 32.986328 A 1.0001 1.0001 0 0 0 30.292969 33.292969 C 30.292969 33.292969 29.933477 33.665097 29.052734 34.105469 C 28.171991 34.54584 26.833333 35 25 35 C 23.166667 35 21.828009 34.54584 20.947266 34.105469 C 20.066523 33.665097 19.707031 33.292969 19.707031 33.292969 A 1.0001 1.0001 0 0 0 18.990234 32.990234 A 1.0001 1.0001 0 0 0 18.292969 34.707031 C 18.292969 34.707031 18.933477 35.334903 20.052734 35.894531 C 21.171991 36.45416 22.833333 37 25 37 C 27.166667 37 28.828009 36.45416 29.947266 35.894531 C 31.066523 35.334903 31.707031 34.707031 31.707031 34.707031 A 1.0001 1.0001 0 0 0 30.990234 32.986328 z M 44.984375 32.986328 A 1.0001 1.0001 0 0 0 44 34 L 44 40 C 44 42.220375 42.220375 44 40 44 L 35 44 A 1.0001 1.0001 0 1 0 35 46 L 40 46 C 43.301625 46 46 43.301625 46 40 L 46 34 A 1.0001 1.0001 0 0 0 44.984375 32.986328 z"/></svg>