<?xml version="1.0"?><svg fill="#000000" xmlns="http://www.w3.org/2000/svg"  viewBox="0 0 24 24" width="30px" height="30px">    <path d="M20,6h-8l-1.414-1.414C10.211,4.211,9.702,4,9.172,4H4C2.9,4,2,4.9,2,6v12c0,1.1,0.9,2,2,2h16c1.1,0,2-0.9,2-2V8 C22,6.9,21.1,6,20,6z M8.436,15H7.567l-0.566-2.314L6.436,15H5.564l-0.828-4h1.006l0.355,2.248L6.628,11h0.743l0.532,2.244 L8.262,11h1.002L8.436,15z M13.436,15h-0.869l-0.566-2.314L11.436,15h-0.872l-0.828-4h1.006l0.355,2.248L11.628,11h0.743 l0.532,2.244L13.262,11h1.002L13.436,15z M18.436,15h-0.869l-0.566-2.314L16.436,15h-0.872l-0.828-4h1.006l0.355,2.248L16.628,11 h0.743l0.532,2.244L18.262,11h1.002L18.436,15z"/></svg>