<?xml version="1.0"?><svg xmlns="http://www.w3.org/2000/svg"  viewBox="0 0 64 64" width="30px" height="30px">    <path d="M 44.140625 3.453125 C 41.323125 3.453125 38.504375 4.5249219 36.359375 6.6699219 L 30.710938 12.320312 C 27.160937 15.870313 26.550859 21.270938 28.880859 25.460938 L 25.460938 28.880859 C 21.270937 26.550859 15.870313 27.160938 12.320312 30.710938 L 6.6699219 36.359375 C 4.5899219 38.439375 3.4394531 41.200625 3.4394531 44.140625 C 3.4394531 47.080625 4.5899219 49.839922 6.6699219 51.919922 L 8.0800781 53.330078 C 10.220078 55.480078 13.039375 56.550781 15.859375 56.550781 C 18.669375 56.550781 21.490625 55.480078 23.640625 53.330078 L 29.289062 47.679688 C 32.839062 44.129688 33.449141 38.729062 31.119141 34.539062 L 34.539062 31.119141 C 36.199062 32.049141 38.050391 32.509766 39.900391 32.509766 C 42.720391 32.509766 45.529687 31.439063 47.679688 29.289062 L 53.330078 23.640625 C 55.410078 21.560625 56.560547 18.799375 56.560547 15.859375 C 56.560547 12.919375 55.410078 10.160078 53.330078 8.0800781 L 51.919922 6.6699219 C 49.774922 4.5249219 46.958125 3.453125 44.140625 3.453125 z M 44.144531 5.4472656 C 46.449531 5.4472656 48.754766 6.3250781 50.509766 8.0800781 L 51.919922 9.4902344 C 53.619922 11.190234 54.560547 13.449375 54.560547 15.859375 C 54.560547 18.259375 53.619922 20.520703 51.919922 22.220703 L 46.259766 27.880859 C 44.559766 29.580859 42.300391 30.509766 39.900391 30.509766 C 38.540391 30.509766 37.219297 30.210859 36.029297 29.630859 L 39.199219 26.460938 C 39.429219 26.490938 39.660391 26.509766 39.900391 26.509766 C 41.240391 26.509766 42.489688 25.990781 43.429688 25.050781 L 49.089844 19.390625 C 50.039844 18.450625 50.560547 17.189375 50.560547 15.859375 C 50.560547 14.519375 50.039844 13.270313 49.089844 12.320312 L 47.679688 10.910156 C 45.729687 8.9601563 42.549375 8.9601563 40.609375 10.910156 L 34.949219 16.560547 C 34.009219 17.510547 33.490234 18.759609 33.490234 20.099609 C 33.490234 20.339609 33.509063 20.570781 33.539062 20.800781 L 30.369141 23.970703 C 29.789141 22.780703 29.490234 21.459609 29.490234 20.099609 C 29.490234 17.699609 30.419141 15.440234 32.119141 13.740234 L 37.779297 8.0800781 C 39.534297 6.3250781 41.839531 5.4472656 44.144531 5.4472656 z M 24.746094 9.2734375 C 24.617703 9.2554844 24.483813 9.261625 24.351562 9.296875 C 23.817563 9.439875 23.500531 9.9874844 23.644531 10.521484 L 24.164062 12.455078 C 24.284063 12.902078 24.686906 13.195312 25.128906 13.195312 C 25.214906 13.195312 25.302672 13.184156 25.388672 13.160156 C 25.922672 13.017156 26.239703 12.469547 26.095703 11.935547 L 25.576172 10.003906 C 25.468172 9.6034062 25.131266 9.3272969 24.746094 9.2734375 z M 19.664062 11.269531 C 19.535328 11.285625 19.406109 11.327234 19.287109 11.396484 C 18.808109 11.672484 18.644875 12.283719 18.921875 12.761719 L 19.921875 14.494141 C 20.107875 14.815141 20.443063 14.994141 20.789062 14.994141 C 20.959063 14.994141 21.130109 14.950375 21.287109 14.859375 C 21.766109 14.583375 21.931297 13.972141 21.654297 13.494141 L 20.654297 11.761719 C 20.446547 11.402469 20.050266 11.22125 19.664062 11.269531 z M 44.140625 11.443359 C 44.908125 11.443359 45.674766 11.735312 46.259766 12.320312 L 47.679688 13.740234 C 48.239688 14.300234 48.560547 15.059375 48.560547 15.859375 C 48.560547 16.659375 48.239688 17.410469 47.679688 17.980469 L 42.019531 23.640625 C 41.799531 23.860625 41.539766 24.039687 41.259766 24.179688 C 41.599766 23.589688 41.779297 22.920703 41.779297 22.220703 C 41.779297 21.150703 41.359375 20.150625 40.609375 19.390625 C 39.849375 18.640625 38.849297 18.220703 37.779297 18.220703 C 37.079297 18.220703 36.410312 18.400234 35.820312 18.740234 C 35.950313 18.460234 36.139375 18.210469 36.359375 17.980469 L 42.019531 12.320312 C 42.604531 11.735312 43.373125 11.443359 44.140625 11.443359 z M 15.646484 14.441406 C 15.390734 14.441406 15.134953 14.538875 14.939453 14.734375 C 14.548453 15.125375 14.548453 15.757437 14.939453 16.148438 L 16.353516 17.5625 C 16.548516 17.7575 16.804547 17.855469 17.060547 17.855469 C 17.316547 17.855469 17.572578 17.7575 17.767578 17.5625 C 18.158578 17.1715 18.158578 16.539438 17.767578 16.148438 L 16.353516 14.734375 C 16.158016 14.538875 15.902234 14.441406 15.646484 14.441406 z M 12.591797 18.589844 C 12.204937 18.541703 11.808562 18.722781 11.601562 19.082031 C 11.324562 19.560031 11.48975 20.172219 11.96875 20.449219 L 13.699219 21.449219 C 13.856219 21.540219 14.029219 21.582031 14.199219 21.582031 C 14.545219 21.582031 14.881406 21.403031 15.066406 21.082031 C 15.342406 20.603031 15.177219 19.992797 14.699219 19.716797 L 12.96875 18.716797 C 12.849 18.647797 12.72075 18.605891 12.591797 18.589844 z M 37.779297 20.220703 C 38.309297 20.220703 38.809453 20.430547 39.189453 20.810547 C 39.569453 21.190547 39.779297 21.690703 39.779297 22.220703 C 39.779297 22.760703 39.569453 23.260625 39.189453 23.640625 L 38.609375 24.220703 L 37.150391 25.679688 L 34.279297 28.550781 L 32.869141 29.960938 L 29.970703 32.859375 L 28.550781 34.279297 L 25.679688 37.150391 L 24.220703 38.609375 L 23.640625 39.189453 C 23.260625 39.569453 22.740703 39.759766 22.220703 39.759766 C 21.700703 39.759766 21.180547 39.569453 20.810547 39.189453 C 20.430547 38.809453 20.220703 38.309297 20.220703 37.779297 C 20.220703 37.239297 20.430547 36.739375 20.810547 36.359375 L 21.390625 35.779297 L 22.849609 34.320312 L 25.720703 31.449219 L 27.140625 30.029297 L 30.029297 27.140625 L 31.449219 25.720703 L 34.320312 22.849609 L 35.779297 21.390625 L 36.359375 20.810547 C 36.739375 20.430547 37.239297 20.220703 37.779297 20.220703 z M 10.333984 23.416016 C 9.9482969 23.469875 9.6111563 23.745984 9.5039062 24.146484 C 9.3609063 24.680484 9.6779375 25.228094 10.210938 25.371094 L 12.142578 25.890625 C 12.229578 25.913625 12.316344 25.925781 12.402344 25.925781 C 12.843344 25.925781 13.248188 25.630594 13.367188 25.183594 C 13.510188 24.650594 13.193156 24.100031 12.660156 23.957031 L 10.728516 23.439453 C 10.595766 23.404203 10.462547 23.398062 10.333984 23.416016 z M 20.099609 29.490234 C 21.459609 29.490234 22.780703 29.789141 23.970703 30.369141 L 20.800781 33.539062 C 20.570781 33.509062 20.339609 33.490234 20.099609 33.490234 C 18.759609 33.490234 17.510312 34.009219 16.570312 34.949219 L 10.910156 40.609375 C 9.9601563 41.549375 9.4394531 42.810625 9.4394531 44.140625 C 9.4394531 45.480625 9.9601562 46.729688 10.910156 47.679688 L 12.320312 49.089844 C 13.300313 50.069844 14.579375 50.550781 15.859375 50.550781 C 17.139375 50.550781 18.420625 50.069844 19.390625 49.089844 L 25.050781 43.439453 C 25.990781 42.489453 26.509766 41.240391 26.509766 39.900391 C 26.509766 39.660391 26.490938 39.429219 26.460938 39.199219 L 29.630859 36.029297 C 30.210859 37.219297 30.509766 38.540391 30.509766 39.900391 C 30.509766 42.300391 29.580859 44.559766 27.880859 46.259766 L 22.220703 51.919922 C 18.710703 55.429922 13.000234 55.429922 9.4902344 51.919922 L 8.0800781 50.509766 C 6.3800781 48.809766 5.4394531 46.550625 5.4394531 44.140625 C 5.4394531 41.740625 6.3800781 39.479297 8.0800781 37.779297 L 13.740234 32.119141 C 15.440234 30.419141 17.699609 29.490234 20.099609 29.490234 z M 49.060547 35.273438 C 48.674953 35.327156 48.338469 35.605359 48.230469 36.005859 C 48.086469 36.538859 48.4045 37.087469 48.9375 37.230469 L 50.871094 37.748047 C 50.958094 37.771047 51.044859 37.783203 51.130859 37.783203 C 51.571859 37.783203 51.975703 37.488016 52.095703 37.041016 C 52.238703 36.507016 51.921672 35.959406 51.388672 35.816406 L 49.455078 35.298828 C 49.322078 35.263328 49.189078 35.255531 49.060547 35.273438 z M 18.740234 35.820312 C 18.400234 36.410313 18.220703 37.079297 18.220703 37.779297 C 18.220703 38.849297 18.640625 39.849375 19.390625 40.609375 C 20.150625 41.359375 21.150703 41.779297 22.220703 41.779297 C 22.920703 41.779297 23.589688 41.599766 24.179688 41.259766 C 24.049688 41.539766 23.860625 41.789531 23.640625 42.019531 L 17.980469 47.679688 C 16.810469 48.849688 14.910234 48.849688 13.740234 47.679688 L 12.320312 46.259766 C 11.760312 45.699766 11.439453 44.940625 11.439453 44.140625 C 11.439453 43.340625 11.760313 42.589531 12.320312 42.019531 L 17.980469 36.359375 C 18.200469 36.139375 18.460234 35.960312 18.740234 35.820312 z M 47.523438 39.611328 C 47.136719 39.563047 46.740203 39.746219 46.533203 40.105469 C 46.257203 40.584469 46.422391 41.194703 46.900391 41.470703 L 48.632812 42.470703 C 48.789812 42.561703 48.960859 42.605469 49.130859 42.605469 C 49.476859 42.605469 49.813047 42.426469 49.998047 42.105469 C 50.274047 41.626469 50.110813 41.014281 49.632812 40.738281 L 47.900391 39.738281 C 47.780891 39.669031 47.652344 39.627422 47.523438 39.611328 z M 44.539062 43.332031 C 44.283313 43.332031 44.027531 43.431453 43.832031 43.626953 C 43.441031 44.017953 43.441031 44.648063 43.832031 45.039062 L 45.246094 46.453125 C 45.441094 46.648125 45.697125 46.746094 45.953125 46.746094 C 46.209125 46.746094 46.465156 46.648125 46.660156 46.453125 C 47.051156 46.062125 47.051156 45.430062 46.660156 45.039062 L 45.246094 43.626953 C 45.050594 43.431453 44.794812 43.332031 44.539062 43.332031 z M 40.685547 46.201172 C 40.556812 46.217266 40.429547 46.258875 40.310547 46.328125 C 39.831547 46.604125 39.668312 47.215359 39.945312 47.693359 L 40.945312 49.425781 C 41.131312 49.746781 41.4665 49.925781 41.8125 49.925781 C 41.9825 49.925781 42.153547 49.883969 42.310547 49.792969 C 42.789547 49.516969 42.954734 48.903781 42.677734 48.425781 L 41.677734 46.693359 C 41.469984 46.334109 41.07175 46.152891 40.685547 46.201172 z M 36.609375 48.001953 C 36.480578 47.984094 36.344938 47.989641 36.210938 48.025391 C 35.677937 48.168391 35.360906 48.717953 35.503906 49.251953 L 36.021484 51.183594 C 36.140484 51.630594 36.544328 51.925781 36.986328 51.925781 C 37.072328 51.925781 37.159094 51.914625 37.246094 51.890625 C 37.779094 51.747625 38.096125 51.198062 37.953125 50.664062 L 37.435547 48.732422 C 37.328297 48.331922 36.995766 48.055531 36.609375 48.001953 z"/></svg>