<svg xmlns="http://www.w3.org/2000/svg" xmlns:xlink="http://www.w3.org/1999/xlink" width="500" zoomAndPan="magnify" viewBox="0 0 375 374.999991" height="500" preserveAspectRatio="xMidYMid meet" version="1.0"><path fill="#fffcf8" d="M 353.261719 293.207031 C 352.429688 290.46875 351.347656 287.574219 349.59375 285.375 C 345.320312 279.933594 339.679688 276.082031 333.144531 273.691406 C 331.390625 273.054688 329.605469 272.386719 327.753906 271.71875 C 328.167969 270.859375 328.457031 270.128906 328.808594 269.457031 C 333.269531 260.546875 336.554688 251.1875 338.722656 241.476562 C 342.292969 225.589844 343.1875 209.515625 342.230469 193.277344 C 340.730469 167.683594 336.523438 142.566406 329.316406 117.957031 C 325.90625 106.277344 322.621094 94.496094 317.011719 83.578125 C 316.917969 83.417969 317.011719 83.195312 317.011719 82.8125 C 317.90625 82.71875 318.734375 82.6875 319.5625 82.558594 C 321.539062 82.273438 322.75 80.839844 322.589844 79.121094 C 322.429688 77.433594 321.09375 76.351562 319.148438 76.382812 C 317.9375 76.414062 316.726562 76.445312 315.546875 76.703125 C 313.855469 77.050781 313.058594 76.289062 312.230469 74.886719 C 306.109375 64.285156 299.222656 54.164062 290.328125 45.695312 C 285.164062 40.761719 279.871094 35.570312 273.71875 32.195312 C 257.265625 23.1875 239.351562 18.09375 220.699219 15.867188 C 199.628906 13.320312 178.617188 14.117188 157.703125 18.03125 C 132.871094 22.679688 109.722656 31.71875 87.949219 44.421875 C 84.21875 46.585938 80.234375 48.59375 77.015625 51.394531 C 65.539062 61.359375 55.589844 72.691406 47.269531 85.425781 C 37.164062 100.863281 30.375 117.609375 26.355469 135.59375 C 20.109375 163.671875 18.703125 191.75 25.496094 219.925781 C 29.609375 236.925781 36.304688 252.777344 46.761719 266.878906 C 49.535156 270.636719 52.625 274.136719 55.589844 277.800781 C 53.421875 279.804688 51.222656 281.808594 49.117188 283.910156 C 48.480469 284.578125 47.9375 285.535156 47.78125 286.425781 C 46.761719 291.902344 49.757812 295.46875 55.558594 295.945312 C 57.566406 296.105469 58.96875 295.660156 60.214844 293.84375 C 61.933594 291.390625 64.070312 289.257812 66.078125 286.96875 C 73.378906 292.539062 80.585938 297.441406 88.585938 300.785156 C 101.019531 305.972656 113.613281 310.78125 126.175781 315.714844 C 128.726562 316.734375 131.339844 317.558594 134.050781 318.546875 C 127.257812 330.324219 122.796875 342.613281 120.53125 355.953125 C 120.722656 355.953125 120.882812 355.953125 121.074219 355.953125 C 121.136719 356.207031 121.265625 356.460938 121.457031 356.714844 C 125.3125 361.746094 132.199219 362.128906 138.097656 362.542969 C 147.886719 363.210938 157.960938 362.480469 167.777344 362.480469 C 182.378906 362.480469 197.011719 362.925781 211.613281 362.574219 C 219.328125 362.382812 232.496094 362.289062 238.296875 356.304688 C 238.332031 356.269531 238.363281 355.824219 238.363281 355.824219 C 238.839844 355.824219 239.320312 355.824219 239.796875 355.824219 C 239.703125 355.824219 239.703125 353.34375 239.542969 352.164062 C 238.839844 347.453125 238.140625 342.773438 237.308594 338.09375 C 237.085938 336.820312 237.246094 336.054688 238.488281 335.386719 C 242.441406 333.253906 245.566406 330.230469 248.085938 326.503906 C 248.5625 325.773438 249.488281 325.136719 250.347656 324.851562 C 255.992188 322.941406 261.699219 321.191406 267.339844 319.3125 C 268.363281 318.960938 268.96875 318.929688 269.667969 319.917969 C 273.71875 325.710938 279.550781 329.148438 285.960938 331.726562 C 295.84375 335.707031 306.109375 337.011719 316.660156 336.4375 C 323.261719 336.054688 329.828125 335.292969 336.078125 332.9375 C 341.242188 330.996094 345.832031 328.226562 348.796875 323.449219 C 354.695312 313.964844 356.511719 303.871094 353.261719 293.207031 Z M 353.261719 293.207031 " fill-opacity="1" fill-rule="nonzero"/><path fill="#131313" d="M 166.855469 118.882812 C 164.652344 118.851562 163.027344 120.441406 163.027344 122.574219 C 163.058594 124.613281 164.652344 126.234375 166.664062 126.269531 C 168.832031 126.332031 170.519531 124.738281 170.585938 122.605469 C 170.648438 120.472656 169.085938 118.882812 166.855469 118.882812 Z M 278.214844 117.992188 C 280.316406 118.054688 282.101562 116.367188 282.132812 114.296875 C 282.167969 112.164062 280.507812 110.476562 278.371094 110.445312 C 276.238281 110.414062 274.546875 112.101562 274.546875 114.203125 C 274.546875 116.207031 276.203125 117.925781 278.214844 117.992188 Z M 192.675781 123.464844 C 191.753906 120.347656 189.96875 117.734375 187.511719 115.699219 C 180.339844 109.777344 172.019531 106.464844 162.773438 105.765625 C 153.816406 105.066406 146.324219 108.441406 140.488281 115.222656 C 136.917969 119.390625 137.078125 123.976562 140.839844 127.953125 C 141.988281 129.164062 143.390625 130.277344 144.886719 131.042969 C 153.71875 135.5625 163.058594 137.949219 172.847656 137.601562 C 173.484375 137.601562 173.898438 137.664062 174.347656 137.601562 C 178.554688 136.867188 182.921875 136.613281 186.9375 135.277344 C 192.550781 133.460938 194.304688 129.164062 192.675781 123.464844 Z M 186.492188 132.1875 C 181.871094 134.355469 176.929688 134.578125 172.371094 134.542969 C 162.742188 134.765625 154.101562 132.347656 145.941406 128.144531 C 140.425781 125.3125 139.753906 120.570312 143.933594 116.113281 C 151.457031 108.089844 161.976562 107.328125 171.765625 110.699219 C 176.992188 112.484375 182.1875 114.617188 185.984375 118.851562 C 187.578125 120.601562 188.820312 122.796875 189.679688 125.027344 C 190.925781 128.175781 189.585938 130.722656 186.492188 132.1875 Z M 64.039062 166.09375 C 64.261719 165.519531 64.515625 164.789062 64.292969 164.339844 C 64.101562 163.925781 63.273438 163.609375 62.765625 163.609375 C 62.15625 163.609375 61.550781 163.992188 61.011719 164.308594 C 54.507812 168.257812 51.636719 174.273438 50.714844 182.074219 C 51.382812 182.871094 51.957031 184.238281 52.691406 184.367188 C 54.21875 184.589844 54.316406 183.15625 54.285156 181.945312 C 54.285156 181.882812 54.285156 181.820312 54.285156 181.722656 C 54.699219 175.230469 57.441406 170.070312 63.179688 166.664062 C 63.496094 166.539062 63.945312 166.378906 64.039062 166.09375 Z M 225.449219 109.011719 C 224.652344 110.382812 225.898438 110.957031 226.886719 111.625 C 229.976562 113.820312 233.230469 115.890625 235.972656 118.4375 C 243.8125 125.632812 244.867188 134.355469 239.351562 143.425781 C 238.679688 144.507812 238.140625 145.71875 237.851562 146.929688 C 235.269531 157.527344 236.800781 167.714844 241.328125 177.488281 C 242.890625 180.863281 245.152344 183.886719 246.683594 187.230469 C 249.105469 192.546875 247.417969 200.21875 243.175781 203.402344 C 237.4375 207.730469 231.09375 210.882812 223.953125 212.09375 C 219.710938 212.824219 215.28125 213.238281 211.265625 211.265625 C 207.214844 209.292969 203.230469 207.796875 198.605469 207.667969 C 190.316406 207.445312 186.9375 202.988281 188.722656 194.902344 C 189.394531 191.847656 190.796875 188.980469 191.753906 185.957031 C 191.945312 185.320312 191.945312 184.332031 191.5625 183.855469 C 191.273438 183.503906 190.253906 183.570312 189.617188 183.664062 C 189.074219 183.730469 188.597656 184.207031 188.054688 184.367188 C 184.769531 185.289062 181.519531 186.371094 178.171875 187.039062 C 176.355469 187.390625 174.695312 186.464844 173.582031 184.8125 C 171.699219 181.976562 172.144531 178.890625 175.175781 177.265625 C 177.597656 175.960938 180.371094 175.324219 182.921875 174.210938 C 183.558594 173.957031 183.910156 173.03125 184.386719 172.425781 C 183.75 172.015625 183.015625 171.089844 182.476562 171.21875 C 178.746094 171.980469 175.046875 172.96875 172.082031 175.546875 C 169.40625 177.871094 168.671875 180.769531 169.882812 184.078125 C 171.382812 188.21875 173.773438 190.253906 177.535156 190.128906 C 179.859375 190.03125 182.1875 189.492188 184.484375 189.078125 C 185.375 188.917969 186.207031 188.566406 187.035156 188.3125 C 186.363281 191.75 185.441406 194.964844 185.152344 198.277344 C 184.644531 204.070312 187.863281 208.464844 193.472656 209.960938 C 195.257812 210.4375 197.140625 210.757812 198.988281 210.757812 C 202.402344 210.757812 205.523438 211.648438 208.425781 213.304688 C 211.265625 214.957031 214.292969 215.4375 217.480469 215.5625 C 226.695312 215.914062 234.726562 212.570312 242.285156 207.699219 C 243.878906 206.648438 245.566406 205.535156 246.714844 204.039062 C 252.070312 197.097656 252.421875 189.648438 247.609375 182.296875 C 244.515625 177.554688 242.15625 172.492188 240.976562 167.015625 C 239.222656 158.675781 238.710938 150.492188 243.238281 142.441406 C 248.214844 133.558594 246.652344 124.613281 239.382812 117.480469 C 236.097656 114.234375 232.113281 111.6875 228.414062 108.886719 C 227.492188 108.3125 226.246094 107.613281 225.449219 109.011719 Z M 260.742188 122.703125 C 268.585938 126.332031 276.9375 126.808594 285.355469 125.664062 C 289.210938 125.152344 292.972656 124.132812 295.96875 121.398438 C 299.414062 118.246094 300.785156 114.234375 299.828125 109.746094 C 298.933594 105.511719 295.746094 103.21875 291.667969 102.457031 C 286.882812 101.5625 282.039062 101.085938 277.640625 100.449219 C 274.101562 100.925781 271.007812 101.054688 268.042969 101.785156 C 263.039062 102.996094 258 104.269531 254.238281 108.21875 C 251.242188 111.335938 251.019531 115.125 254.109375 118.117188 C 256.023438 119.964844 258.351562 121.589844 260.742188 122.703125 Z M 259.433594 108.058594 C 266.832031 104.398438 274.609375 102.996094 282.804688 104.207031 C 285.640625 104.621094 288.542969 104.78125 291.253906 105.542969 C 297.40625 107.261719 298.96875 113.3125 294.601562 118.085938 C 291.539062 121.429688 287.394531 122.320312 283.15625 122.796875 C 281.59375 122.957031 280 122.828125 278.4375 122.828125 C 271.484375 123.148438 264.886719 121.875 258.925781 118.148438 C 256.980469 116.972656 255.003906 115.476562 255.195312 113.023438 C 255.324219 110.636719 257.332031 109.109375 259.433594 108.058594 Z M 292.496094 186.878906 C 285.894531 175.800781 275.949219 169.339844 263.738281 165.964844 C 262.558594 165.648438 260.871094 164.5 260.230469 166.441406 C 259.5 168.671875 261.699219 168.449219 262.910156 168.796875 C 276.777344 172.808594 287.234375 180.734375 292.65625 194.425781 C 293.835938 197.417969 294.472656 200.601562 295.554688 203.625 C 295.777344 204.230469 296.703125 204.835938 297.375 204.898438 C 297.820312 204.929688 298.363281 204.039062 298.679688 203.71875 C 298.554688 202.925781 298.519531 202.542969 298.425781 202.191406 C 297.148438 196.84375 295.332031 191.65625 292.496094 186.878906 Z M 65.472656 185.449219 C 64.773438 185.863281 63.625 186.148438 63.433594 186.722656 C 62.539062 189.332031 61.933594 192.039062 61.167969 194.871094 C 61.933594 197.671875 62.574219 200.441406 63.464844 203.117188 C 63.65625 203.6875 64.804688 203.945312 65.539062 204.324219 C 65.730469 203.53125 66.335938 202.574219 66.113281 201.96875 C 64.230469 197.195312 64.230469 192.515625 66.144531 187.738281 C 66.367188 187.167969 65.730469 186.210938 65.472656 185.449219 Z M 264.695312 179.527344 C 264.375 179.84375 263.386719 180.355469 263.421875 180.863281 C 263.453125 181.46875 264.21875 182.488281 264.824219 182.582031 C 270.722656 183.539062 273.972656 187.167969 275.597656 192.640625 C 275.789062 193.246094 276.875 193.597656 277.542969 194.042969 C 277.832031 193.277344 278.5625 192.292969 278.308594 191.75 C 277 189.011719 275.757812 186.148438 273.910156 183.792969 C 271.804688 181.148438 268.585938 180.035156 264.695312 179.527344 Z M 290.199219 138.398438 C 287.042969 139.351562 283.953125 140.625 280.730469 140.976562 C 277.574219 141.324219 274.324219 140.625 271.136719 140.5625 C 270.242188 140.5625 268.777344 141.070312 268.585938 141.675781 C 268.105469 143.042969 269.382812 143.363281 270.53125 143.523438 C 272.921875 143.839844 275.34375 144.160156 277.734375 144.476562 C 282.675781 144.347656 287.300781 143.265625 291.699219 141.132812 C 292.8125 140.59375 293.960938 140.019531 293.230469 138.621094 C 292.464844 137.25 291.285156 138.078125 290.199219 138.398438 Z M 284.144531 131.359375 C 276.332031 132.953125 268.457031 132.507812 260.773438 130.183594 C 259.46875 129.800781 257.875 129.324219 257.300781 131.074219 C 256.695312 133.046875 258.382812 133.460938 259.816406 133.75 C 264.726562 134.703125 269.636719 135.59375 274.355469 136.453125 C 279.710938 135.628906 284.78125 135.117188 289.722656 133.941406 C 294.21875 132.890625 298.585938 131.136719 302.984375 129.675781 C 304.226562 129.261719 305.054688 128.433594 304.546875 127.09375 C 304.003906 125.695312 302.824219 125.820312 301.644531 126.269531 C 301.101562 126.457031 300.59375 126.746094 300.050781 126.871094 C 294.726562 128.464844 289.5 130.277344 284.144531 131.359375 Z M 280.15625 164.722656 C 279.773438 165.042969 278.945312 165.425781 278.882812 165.902344 C 278.785156 166.441406 279.234375 167.238281 279.710938 167.621094 C 280.222656 168.035156 281.019531 168.097656 281.6875 168.351562 C 287.425781 170.484375 291.667969 174.148438 293.484375 180.164062 C 293.800781 181.277344 294.3125 182.105469 295.523438 181.753906 C 296.957031 181.371094 296.734375 180.226562 296.386719 179.144531 C 295.332031 175.644531 293.546875 172.585938 290.804688 170.136719 C 287.839844 167.523438 284.335938 165.804688 280.15625 164.722656 Z M 107.300781 208.019531 C 102.488281 211.742188 100.191406 216.835938 99.492188 223.425781 C 99.777344 223.746094 100.351562 224.382812 100.957031 225.019531 C 101.53125 224.347656 102.488281 223.710938 102.582031 222.980469 C 103.253906 217.855469 105.386719 213.621094 109.339844 210.246094 C 109.882812 209.800781 109.757812 208.589844 109.945312 207.730469 C 109.023438 207.796875 107.90625 207.574219 107.300781 208.019531 Z M 176.289062 163.292969 C 176.960938 163.101562 177.628906 162.207031 177.851562 161.507812 C 177.949219 161.191406 177.023438 160.519531 176.707031 160.171875 C 175.972656 160.265625 175.683594 160.296875 175.398438 160.363281 C 169.722656 161.890625 163.890625 162.941406 158.4375 165.011719 C 141.253906 171.566406 130.03125 183.824219 124.996094 201.585938 C 124.707031 202.636719 124.261719 203.878906 125.695312 204.324219 C 127.035156 204.738281 127.546875 203.753906 127.894531 202.605469 C 133.347656 183.761719 145.941406 172.011719 164.398438 166.25 C 168.289062 165.042969 172.335938 164.375 176.289062 163.292969 Z M 156.109375 176.503906 C 157.164062 176.054688 158.5 175.609375 157.894531 174.113281 C 157.226562 172.460938 155.886719 173.191406 154.804688 173.699219 C 153.082031 174.527344 151.328125 175.386719 149.703125 176.40625 C 145.941406 178.859375 143.230469 182.199219 141.667969 186.433594 C 141.191406 187.707031 141.347656 188.695312 143.230469 189.078125 C 143.582031 188.726562 144.125 188.3125 144.441406 187.773438 C 144.984375 186.847656 145.304688 185.796875 145.84375 184.875 C 148.203125 180.832031 151.871094 178.285156 156.109375 176.503906 Z M 170.328125 209.515625 C 169.246094 209.769531 168.257812 210.4375 167.238281 210.980469 C 155.695312 217.121094 148.875 226.292969 148.839844 240.332031 C 148.96875 245.773438 150.210938 251.566406 152.15625 257.234375 C 152.539062 258.285156 152.921875 259.460938 154.324219 259.046875 C 155.824219 258.601562 155.441406 257.394531 155.121094 256.214844 C 154.101562 252.269531 152.859375 248.351562 152.347656 244.339844 C 151.074219 234.441406 153.464844 225.589844 161.308594 218.96875 C 164.398438 216.359375 168.128906 214.542969 171.507812 212.253906 C 172.113281 211.839844 172.304688 210.851562 172.71875 210.121094 C 171.921875 209.832031 171.0625 209.355469 170.328125 209.515625 Z M 168.382812 151.449219 C 160.351562 153.136719 152.761719 152.023438 145.558594 148.042969 C 144.921875 147.691406 143.453125 147.820312 143.039062 148.296875 C 142.148438 149.316406 143.101562 150.015625 144.058594 150.589844 C 149.351562 153.707031 155.058594 155.332031 162.421875 155.492188 C 163.824219 155.300781 166.472656 155.015625 169.023438 154.441406 C 169.753906 154.28125 170.871094 153.261719 170.839844 152.660156 C 170.773438 151.257812 169.5 151.226562 168.382812 151.449219 Z M 261.859375 245.804688 C 258.734375 234.25 251.753906 226.292969 240.179688 222.535156 C 234.378906 220.65625 228.382812 220.210938 222.328125 219.796875 C 217.542969 220.339844 212.730469 220.5625 208.042969 221.453125 C 192.039062 224.476562 180.5625 233.105469 174.917969 248.734375 C 173.929688 251.472656 174.1875 252.746094 175.78125 253.351562 C 177.277344 253.890625 178.363281 252.9375 179.382812 250.292969 C 183.464844 239.695312 190.699219 232.179688 201.445312 228.234375 C 211.964844 224.414062 222.804688 223.871094 233.675781 225.8125 C 242.316406 227.339844 249.808594 231.417969 253.953125 239.535156 C 256.054688 243.609375 257.140625 248.226562 258.445312 252.648438 C 258.957031 254.367188 259.5625 255.546875 261.410156 255.261719 C 263.261719 254.972656 263.453125 253.445312 263.164062 251.917969 C 262.75 249.847656 262.398438 247.8125 261.859375 245.804688 Z M 201.699219 244.851562 C 200.742188 245.296875 199.5625 245.804688 200.199219 247.207031 C 200.902344 248.703125 201.988281 248.097656 203.101562 247.589844 C 210.625 244.183594 218.183594 244.085938 225.738281 247.492188 C 226.183594 247.683594 226.726562 248.128906 227.109375 248.035156 C 227.839844 247.84375 228.480469 247.332031 229.59375 246.730469 C 228.542969 245.804688 228.03125 245.199219 227.394531 244.882812 C 218.851562 240.871094 210.277344 240.933594 201.699219 244.851562 Z M 282.773438 243.511719 C 284.046875 243.066406 283.917969 242.082031 283.535156 241.03125 C 282.453125 238.070312 281.558594 235.046875 280.382812 232.148438 C 275.886719 221.007812 269.285156 211.488281 258.957031 204.898438 C 258.382812 204.515625 257.746094 204.230469 256.917969 203.785156 C 256.40625 204.261719 255.578125 204.707031 255.640625 205.027344 C 255.769531 205.757812 256.214844 206.554688 256.757812 207.03125 C 260.457031 210.375 264.601562 213.335938 267.914062 217.027344 C 274.324219 224.125 277.832031 232.882812 280.570312 241.890625 C 280.890625 243.066406 281.402344 244.023438 282.773438 243.511719 Z M 354.949219 294.289062 C 354.121094 291.519531 353.003906 288.621094 351.25 286.363281 C 346.914062 280.855469 341.242188 277.003906 334.640625 274.550781 C 332.855469 273.882812 331.070312 273.246094 329.191406 272.578125 C 329.605469 271.6875 329.921875 270.988281 330.273438 270.285156 C 334.800781 261.277344 338.085938 251.824219 340.285156 241.984375 C 343.886719 225.941406 344.8125 209.671875 343.824219 193.277344 C 342.292969 167.429688 338.085938 142.058594 330.785156 117.195312 C 327.339844 105.382812 324.027344 93.511719 318.351562 82.464844 C 318.253906 82.304688 318.351562 82.050781 318.351562 81.699219 C 319.242188 81.605469 320.105469 81.570312 320.933594 81.445312 C 322.910156 81.160156 324.183594 79.695312 323.992188 77.976562 C 323.800781 76.257812 322.464844 75.171875 320.519531 75.207031 C 319.308594 75.238281 318.0625 75.269531 316.882812 75.523438 C 315.164062 75.875 314.367188 75.109375 313.535156 73.675781 C 307.351562 62.949219 300.402344 52.761719 291.410156 44.199219 C 286.214844 39.234375 280.859375 33.980469 274.609375 30.574219 C 257.96875 21.46875 239.890625 16.3125 221.050781 14.050781 C 199.753906 11.503906 178.523438 12.269531 157.417969 16.214844 C 132.328125 20.894531 108.957031 30.03125 86.960938 42.863281 C 83.199219 45.058594 79.183594 47.0625 75.929688 49.898438 C 64.359375 59.957031 54.285156 71.417969 45.867188 84.277344 C 35.664062 99.878906 28.777344 116.78125 24.730469 134.957031 C 18.417969 163.324219 16.984375 191.6875 23.871094 220.148438 C 28.015625 237.304688 34.773438 253.320312 45.355469 267.582031 C 48.164062 271.367188 51.285156 274.902344 54.285156 278.625 C 52.117188 280.664062 49.851562 282.667969 47.75 284.800781 C 47.078125 285.472656 46.570312 286.457031 46.378906 287.347656 C 45.324219 292.855469 48.355469 296.453125 54.25 296.964844 C 56.292969 297.121094 57.695312 296.644531 58.9375 294.863281 C 60.660156 292.378906 62.859375 290.246094 64.835938 287.921875 C 72.199219 293.558594 79.46875 298.492188 87.597656 301.867188 C 100.160156 307.117188 112.878906 311.957031 125.570312 316.921875 C 128.152344 317.941406 130.765625 318.800781 133.539062 319.789062 C 126.683594 331.695312 122.15625 344.109375 119.863281 357.574219 C 121.328125 357.574219 122.636719 357.480469 123.910156 357.609375 C 125.121094 357.703125 125.632812 357.257812 126.046875 356.078125 C 132.136719 339.113281 141.605469 324.214844 153.496094 310.78125 C 156.367188 307.5625 160.03125 305.941406 164.429688 306.355469 C 166.917969 306.609375 168.351562 308.011719 168.542969 310.523438 C 168.703125 312.625 168.257812 314.28125 166.40625 315.746094 C 156.046875 323.992188 147.40625 333.796875 140.296875 344.96875 C 137.8125 348.851562 135.867188 353.085938 133.601562 357.320312 C 136.917969 357.765625 136.917969 357.765625 138.003906 355.476562 C 138.640625 354.105469 139.277344 352.738281 140.011719 351.433594 C 149.257812 335.003906 161.976562 321.792969 177.503906 311.195312 C 180.085938 309.441406 183.015625 308.773438 186.109375 309.027344 C 191.304688 309.472656 193.28125 312.59375 190.765625 317.113281 C 188.980469 320.328125 186.652344 323.355469 184.101562 325.996094 C 179.128906 331.152344 173.707031 335.800781 169.53125 341.753906 C 165.867188 346.945312 161.847656 351.910156 157.769531 357.226562 C 160.476562 357.988281 161.753906 357.257812 163.09375 355.378906 C 167.429688 349.394531 172.019531 343.632812 176.609375 337.839844 C 176.992188 337.359375 178.109375 337.074219 178.714844 337.234375 C 181.613281 338.09375 184.386719 339.238281 187.289062 340.066406 C 188.820312 340.511719 189.171875 341.246094 188.914062 342.710938 C 187.992188 347.613281 187.160156 352.515625 186.269531 357.417969 C 188.246094 358.085938 189.328125 357.257812 189.746094 354.996094 C 190.542969 350.574219 191.464844 346.179688 192.421875 341.5 C 205.972656 343.601562 219.550781 343.949219 233.199219 340.003906 C 234.121094 346.273438 234.984375 350.539062 235.84375 358.5 L 240.371094 358.5 C 240.273438 355.632812 240.273438 355.410156 240.117188 354.234375 C 239.414062 349.488281 238.679688 344.460938 237.851562 339.75 C 237.628906 338.445312 237.789062 337.550781 239.0625 336.851562 C 243.046875 334.6875 246.203125 331.566406 248.753906 327.8125 C 249.265625 327.078125 250.191406 326.378906 251.050781 326.09375 C 256.757812 324.183594 262.496094 322.367188 268.203125 320.488281 C 269.222656 320.140625 269.859375 320.105469 270.53125 321.0625 C 274.640625 326.917969 280.507812 330.390625 287.011719 333 C 296.992188 337.011719 307.382812 338.347656 318.03125 337.742188 C 324.695312 337.359375 331.324219 336.566406 337.671875 334.210938 C 342.898438 332.269531 347.554688 329.464844 350.550781 324.628906 C 356.417969 315.238281 358.234375 305.082031 354.949219 294.289062 Z M 125.25 349.042969 C 126.84375 341.722656 129.265625 334.6875 132.742188 328.097656 C 135.039062 323.734375 137.585938 319.46875 140.203125 315.300781 C 141.921875 312.53125 144.601562 310.84375 147.757812 309.953125 C 148.394531 309.761719 149.097656 309.792969 150.402344 309.664062 C 139.820312 321.890625 131.464844 334.78125 125.25 349.042969 Z M 162.105469 301.835938 C 161.753906 302.472656 161.148438 303.140625 160.511719 303.394531 C 155.949219 305.304688 151.328125 306.703125 146.324219 307.277344 C 142.402344 307.722656 139.46875 310.714844 137.269531 314.027344 C 136.566406 315.109375 135.992188 315.683594 134.527344 315.140625 C 117.597656 309.058594 100.574219 303.203125 84.472656 295.054688 C 79.085938 292.316406 74.082031 288.78125 68.503906 285.375 C 74.050781 281.269531 79.628906 279.359375 85.589844 278.46875 C 94.261719 277.195312 102.742188 278.4375 111.191406 280.28125 C 128.691406 284.101562 145.207031 290.53125 160.859375 299.191406 C 162.039062 299.828125 162.804688 300.527344 162.105469 301.835938 Z M 192.136719 321.859375 C 193.15625 319.503906 194.175781 317.847656 194.589844 316.03125 C 194.972656 314.441406 194.589844 312.691406 194.6875 311.003906 C 194.71875 310.300781 194.84375 309.316406 195.324219 308.964844 C 208.109375 299.605469 220.921875 290.308594 233.769531 281.046875 C 234.28125 280.664062 235.332031 280.503906 235.84375 280.792969 C 237.882812 281.9375 239.828125 283.273438 242.21875 284.835938 C 225.355469 297.28125 209 309.378906 192.136719 321.859375 Z M 248.179688 298.554688 C 241.519531 303.902344 234.855469 309.21875 228.222656 314.535156 C 218.46875 322.335938 208.746094 330.101562 199.023438 337.902344 C 197.808594 338.859375 196.695312 339.527344 194.84375 338.476562 C 212.890625 324.308594 230.773438 310.269531 248.722656 296.199219 C 250.0625 297.441406 248.882812 297.980469 248.179688 298.554688 Z M 252.039062 321.125 C 252.515625 318.453125 252.835938 316.351562 253.3125 314.28125 C 253.410156 313.835938 254.109375 313.261719 254.558594 313.230469 C 258.222656 313.070312 261.859375 313.039062 265.523438 312.878906 C 267.566406 312.785156 267.117188 314.410156 267.757812 315.808594 C 262.558594 317.59375 257.492188 319.28125 252.039062 321.125 Z M 267.339844 295.277344 C 267.214844 295.816406 266.195312 296.519531 265.589844 296.519531 C 261.730469 296.644531 257.839844 296.644531 253.984375 296.519531 C 253.3125 296.484375 252.261719 295.753906 252.039062 295.117188 C 247.957031 283.464844 239.285156 277.351562 227.683594 274.710938 C 218.753906 272.675781 209.703125 273.277344 200.679688 273.628906 C 193.921875 273.914062 187.195312 274.902344 180.976562 277.734375 C 177.246094 279.453125 173.773438 281.808594 170.328125 284.101562 C 169.214844 284.835938 168.511719 284.992188 167.332031 284.390625 C 145.589844 273.597656 122.570312 267.421875 98.4375 264.554688 C 84.1875 262.867188 71.785156 266.371094 60.214844 274.296875 C 59.734375 274.617188 59.257812 274.933594 58.777344 275.253906 C 58.652344 275.316406 58.523438 275.378906 58.394531 275.445312 C 58.171875 275.570312 57.917969 275.667969 57.695312 275.792969 C 53.613281 270.445312 49.152344 265.382812 45.515625 259.75 C 32.828125 240.074219 26.386719 218.269531 24.507812 195.03125 C 22.53125 170.421875 25.78125 146.386719 32.765625 122.863281 C 38.375 103.921875 48.066406 87.078125 60.882812 72.054688 C 65.953125 66.132812 71.277344 60.308594 77.140625 55.214844 C 81.796875 51.171875 87.34375 48.082031 92.730469 44.996094 C 110.839844 34.648438 130.09375 27.136719 150.402344 22.425781 C 172.113281 17.394531 194.046875 16.183594 216.140625 18.316406 C 236.355469 20.292969 255.609375 25.796875 273.558594 35.285156 C 278.5 37.894531 282.675781 42.191406 286.820312 46.109375 C 295.683594 54.511719 302.792969 64.285156 308.882812 74.824219 C 309.074219 75.140625 309.199219 75.460938 309.488281 76.097656 C 306.652344 76.480469 303.972656 76.859375 301.328125 77.210938 C 278.851562 80.300781 257.011719 85.933594 235.78125 93.796875 C 233.707031 94.5625 232.816406 96.214844 233.484375 97.96875 C 234.152344 99.75 235.90625 100.355469 238.140625 99.6875 C 248.691406 96.40625 259.148438 92.9375 269.796875 89.945312 C 282.804688 86.285156 296.128906 84.183594 309.519531 82.496094 C 311.910156 82.175781 313.28125 82.527344 314.523438 84.976562 C 319.019531 93.925781 321.761719 103.539062 324.695312 113.023438 C 330.5625 131.933594 334.769531 151.257812 337.128906 170.929688 C 339.007812 186.53125 340.222656 202.160156 339.074219 217.886719 C 337.734375 236.0625 333.652344 253.542969 325.269531 269.871094 C 324.535156 271.335938 323.738281 271.71875 322.144531 271.558594 C 309.773438 270.285156 297.628906 271.464844 285.960938 275.921875 C 276.746094 279.421875 269.890625 285.28125 267.339844 295.277344 Z M 269.667969 308.804688 C 268.9375 304.828125 269.03125 304.476562 271.964844 302.628906 C 286.46875 293.367188 300.976562 284.167969 315.511719 274.933594 C 316.023438 274.617188 316.691406 274.203125 317.265625 274.265625 C 320.710938 274.550781 324.183594 274.964844 327.628906 275.316406 C 327.660156 275.570312 327.691406 275.824219 327.722656 276.082031 C 308.4375 286.9375 289.148438 297.824219 269.667969 308.804688 Z M 323.644531 298.238281 C 309.136719 306.640625 294.566406 314.980469 280.09375 323.417969 C 278.5 324.339844 277.289062 324.722656 276.109375 322.558594 C 279.265625 320.808594 282.390625 319.023438 285.546875 317.273438 C 304.769531 306.578125 323.992188 295.847656 343.21875 285.183594 C 343.886719 284.800781 344.746094 284.738281 345.542969 284.546875 C 345.609375 284.835938 345.671875 285.152344 345.734375 285.472656 C 338.402344 289.707031 331.007812 293.972656 323.644531 298.238281 Z M 172.144531 145.75 C 175.429688 145.527344 178.746094 145.433594 181.996094 145.019531 C 182.792969 144.921875 183.433594 143.808594 184.164062 143.171875 C 183.496094 142.566406 182.921875 141.769531 182.15625 141.453125 C 181.488281 141.167969 180.59375 141.453125 179.828125 141.515625 C 168.796875 142.472656 157.832031 141.707031 147.28125 138.398438 C 140.425781 136.230469 133.859375 133.113281 127.164062 130.375 C 126.015625 129.898438 124.738281 129.261719 123.976562 130.757812 C 123.242188 132.15625 124.199219 132.953125 125.378906 133.589844 C 140.011719 141.355469 155.535156 145.621094 172.144531 145.75 Z M 227.078125 150.078125 C 224.527344 149.027344 221.878906 148.234375 219.042969 147.308594 C 216.238281 148.265625 213.527344 149.0625 210.914062 150.113281 C 210.371094 150.335938 210.210938 151.542969 209.894531 152.277344 C 210.691406 152.402344 211.710938 152.882812 212.316406 152.5625 C 216.84375 150.300781 221.242188 150.300781 225.738281 152.5625 C 226.3125 152.847656 227.300781 152.339844 228.128906 152.210938 C 227.777344 151.480469 227.617188 150.300781 227.078125 150.078125 Z M 185.28125 68.933594 C 187.863281 68.933594 190.445312 68.933594 193.027344 68.933594 C 193.058594 69.1875 193.058594 69.441406 193.089844 69.699219 C 202.144531 68.742188 211.230469 68.136719 220.191406 66.707031 C 226.472656 65.71875 232.558594 63.617188 238.714844 61.992188 C 239.828125 61.707031 240.914062 60.976562 240.273438 59.734375 C 240.019531 59.191406 238.648438 59.128906 237.789062 59.035156 C 237.246094 58.96875 236.703125 59.351562 236.164062 59.542969 C 228.320312 62.152344 220.285156 63.902344 212.0625 64.859375 C 203.132812 65.910156 194.207031 66.292969 185.21875 65.847656 C 184.101562 65.78125 182.636719 65.625 182.699219 67.34375 C 182.761719 68.902344 184.101562 68.933594 185.28125 68.933594 Z M 149.382812 77.847656 C 149.671875 78.070312 150.210938 78.007812 150.625 78.039062 C 160.574219 78.707031 170.519531 79.34375 178.9375 79.886719 C 188.214844 79.4375 195.960938 79.25 203.675781 78.613281 C 221.148438 77.210938 238.363281 74.058594 255.257812 69.441406 C 257.96875 68.710938 260.679688 68.011719 263.355469 67.246094 C 264.441406 66.929688 266.066406 66.769531 265.523438 65.019531 C 265.046875 63.425781 263.738281 64.03125 262.625 64.316406 C 262.207031 64.414062 261.792969 64.539062 261.378906 64.636719 C 249.234375 67.40625 237.183594 70.683594 224.910156 72.882812 C 201.1875 77.117188 177.277344 77.625 153.304688 75.269531 C 152.09375 75.140625 150.851562 74.855469 149.671875 75.015625 C 149.03125 75.078125 148.457031 75.875 147.820312 76.351562 C 148.394531 76.796875 148.839844 77.402344 149.382812 77.847656 Z M 214.515625 156 C 214.039062 156.382812 214.039062 157.433594 213.847656 158.164062 C 214.515625 158.324219 215.375 158.800781 215.855469 158.578125 C 220.828125 155.96875 225.707031 156 230.648438 158.644531 C 231.761719 159.246094 232.878906 158.421875 232.78125 156.988281 C 232.625 156.765625 232.367188 156.320312 232.019531 156.03125 C 228.03125 152.785156 218.660156 152.753906 214.515625 156 Z M 139.246094 85.839844 C 154.675781 88.609375 170.203125 90.167969 187.128906 90.070312 C 202.242188 90.261719 218.4375 88.480469 234.472656 85.613281 C 250.667969 82.75 266.511719 78.421875 282.070312 73.136719 C 283.25 72.722656 284.683594 72.4375 284.238281 70.8125 C 283.726562 69.0625 282.292969 69.890625 281.179688 70.144531 C 280.605469 70.269531 280.09375 70.492188 279.550781 70.652344 C 272.699219 72.753906 265.90625 75.015625 258.988281 76.894531 C 236.863281 82.8125 214.417969 86.601562 191.464844 86.792969 C 180.722656 86.886719 169.976562 86.1875 159.234375 85.425781 C 152.730469 84.945312 146.324219 83.671875 139.851562 82.75 C 138.734375 82.589844 137.332031 82.273438 137.046875 83.832031 C 136.789062 85.359375 138.035156 85.613281 139.246094 85.839844 Z M 107.714844 94.179688 C 108.703125 94.371094 109.722656 94.371094 110.710938 94.402344 C 128.597656 95.070312 146.324219 96.949219 163.921875 100.101562 C 174.792969 102.042969 185.503906 104.621094 196.3125 106.914062 C 198.703125 107.421875 200.265625 106.59375 200.742188 104.683594 C 201.222656 102.835938 200.105469 101.375 197.714844 100.832031 C 192.136719 99.527344 186.554688 98.222656 180.945312 97.011719 C 159.105469 92.363281 137.046875 89.339844 114.699219 88.066406 C 112.53125 88.066406 110.394531 88.066406 108.257812 88.066406 C 106.375 88.066406 105.230469 89.085938 105.039062 90.835938 C 104.847656 92.714844 105.960938 93.796875 107.714844 94.179688 Z M 106.535156 133.113281 C 101.277344 134.386719 95.984375 135.660156 90.785156 137.089844 C 90.148438 137.28125 89.796875 138.492188 89.320312 139.222656 C 90.023438 139.511719 90.820312 140.117188 91.457031 139.988281 C 97.640625 138.652344 103.824219 137.1875 110.011719 135.722656 C 110.648438 135.5625 111.222656 134.992188 112.371094 134.226562 C 111.222656 133.527344 110.617188 132.855469 109.945312 132.792969 C 108.832031 132.699219 107.652344 132.855469 106.535156 133.113281 Z M 118.042969 121.429688 C 114.25 121.398438 110.425781 121.109375 106.664062 121.398438 C 96.683594 122.097656 87.566406 125.695312 78.832031 130.3125 C 77.746094 130.882812 76.3125 131.394531 77.175781 132.984375 C 78.003906 134.542969 79.246094 133.652344 80.332031 133.113281 C 80.585938 132.984375 80.839844 132.824219 81.09375 132.699219 C 90.976562 127.605469 101.242188 124.101562 112.5625 124.261719 C 114.699219 124.390625 116.867188 124.613281 119 124.613281 C 119.542969 124.613281 120.53125 123.945312 120.53125 123.59375 C 120.53125 122.957031 120.019531 122.257812 119.511719 121.777344 C 119.191406 121.429688 118.554688 121.429688 118.042969 121.429688 Z M 80.519531 107.773438 C 81.191406 107.421875 81.734375 106.785156 82.242188 106.179688 C 88.078125 99.6875 90.628906 92.015625 90.628906 82.6875 C 90.5625 81.796875 90.53125 80.234375 90.371094 78.675781 C 90.277344 77.59375 89.796875 76.511719 88.554688 76.925781 C 87.980469 77.117188 87.695312 78.230469 87.34375 78.960938 C 87.25 79.183594 87.40625 79.503906 87.441406 79.789062 C 88.140625 89.277344 85.972656 97.808594 79.277344 104.875 C 78.992188 105.191406 78.542969 105.511719 78.511719 105.863281 C 78.449219 106.433594 78.511719 107.230469 78.863281 107.550781 C 79.183594 107.929688 80.074219 107.996094 80.519531 107.773438 Z M 80.519531 107.773438 " fill-opacity="1" fill-rule="nonzero"/></svg>