<?xml version="1.0" encoding="UTF-8"?>
<!DOCTYPE svg PUBLIC "-//W3C//DTD SVG 1.1//EN" "http://www.w3.org/Graphics/SVG/1.1/DTD/svg11.dtd">
<svg xmlns="http://www.w3.org/2000/svg" version="1.1" width="1258px" height="1246px" style="shape-rendering:geometricPrecision; text-rendering:geometricPrecision; image-rendering:optimizeQuality; fill-rule:evenodd; clip-rule:evenodd" xmlns:xlink="http://www.w3.org/1999/xlink">
<g><path style="opacity:0.989" fill="#dd556c" d="M 354.5,149.5 C 288.488,207.511 222.154,265.177 155.5,322.5C 154.191,253.921 182.858,202.421 241.5,168C 260.368,158.282 280.368,152.282 301.5,150C 319.164,149.5 336.83,149.333 354.5,149.5 Z"/></g>
<g><path style="opacity:0.998" fill="#de596a" d="M 354.5,149.5 C 364.167,149.5 373.833,149.5 383.5,149.5C 307.821,215.844 231.821,281.844 155.5,347.5C 155.5,339.167 155.5,330.833 155.5,322.5C 222.154,265.177 288.488,207.511 354.5,149.5 Z"/></g>
<g><path style="opacity:0.998" fill="#de5b69" d="M 383.5,149.5 C 413.167,149.5 442.833,149.5 472.5,149.5C 367.154,241.511 261.487,333.178 155.5,424.5C 155.5,398.833 155.5,373.167 155.5,347.5C 231.821,281.844 307.821,215.844 383.5,149.5 Z"/></g>
<g><path style="opacity:0.999" fill="#df5f67" d="M 472.5,149.5 C 506.833,149.5 541.167,149.5 575.5,149.5C 435.821,271.178 295.821,392.511 155.5,513.5C 155.5,483.833 155.5,454.167 155.5,424.5C 261.487,333.178 367.154,241.511 472.5,149.5 Z"/></g>
<g><path style="opacity:0.999" fill="#e16265" d="M 575.5,149.5 C 597.5,149.5 619.5,149.5 641.5,149.5C 480.096,290.574 318.096,430.907 155.5,570.5C 155.5,551.5 155.5,532.5 155.5,513.5C 295.821,392.511 435.821,271.178 575.5,149.5 Z"/></g>
<g><path style="opacity:0.999" fill="#e16364" d="M 641.5,149.5 C 648.833,149.5 656.167,149.5 663.5,149.5C 494.192,296.471 324.859,443.471 155.5,590.5C 155.5,583.833 155.5,577.167 155.5,570.5C 318.096,430.907 480.096,290.574 641.5,149.5 Z"/></g>
<g><path style="opacity:0.999" fill="#e26463" d="M 663.5,149.5 C 668.5,149.5 673.5,149.5 678.5,149.5C 504.468,300.867 330.134,451.867 155.5,602.5C 155.5,598.5 155.5,594.5 155.5,590.5C 324.859,443.471 494.192,296.471 663.5,149.5 Z"/></g>
<g><path style="opacity:0.999" fill="#e26761" d="M 678.5,149.5 C 732.167,149.5 785.833,149.5 839.5,149.5C 782.833,199.167 726.167,248.833 669.5,298.5C 575.01,286.691 496.51,316.358 434,387.5C 400.205,429.114 381.372,476.781 377.5,530.5C 376.508,537.648 376.175,544.981 376.5,552.5C 302.538,615.793 228.872,679.46 155.5,743.5C 155.5,696.5 155.5,649.5 155.5,602.5C 330.134,451.867 504.468,300.867 678.5,149.5 Z"/></g>
<g><path style="opacity:1" fill="#e46b5e" d="M 839.5,149.5 C 851.833,149.5 864.167,149.5 876.5,149.5C 817.572,200.982 758.572,252.482 699.5,304C 698.207,304.49 696.873,304.657 695.5,304.5C 686.791,302.154 678.124,300.154 669.5,298.5C 726.167,248.833 782.833,199.167 839.5,149.5 Z"/></g>
<g><path style="opacity:0.999" fill="#e46e5b" d="M 876.5,149.5 C 902.835,149.333 929.169,149.5 955.5,150C 964.279,150.963 972.945,152.463 981.5,154.5C 911.154,216.178 840.487,277.511 769.5,338.5C 767.167,337.167 764.833,335.833 762.5,334.5C 741.534,321.402 719.201,311.402 695.5,304.5C 696.873,304.657 698.207,304.49 699.5,304C 758.572,252.482 817.572,200.982 876.5,149.5 Z"/></g>
<g><path style="opacity:0.998" fill="#e57158" d="M 981.5,154.5 C 997.391,158.677 1012.06,165.343 1025.5,174.5C 951.232,237.802 877.565,301.802 804.5,366.5C 793.386,356.376 781.719,347.043 769.5,338.5C 840.487,277.511 911.154,216.178 981.5,154.5 Z"/></g>
<g><path style="opacity:0.998" fill="#e77356" d="M 1025.5,174.5 C 1036.95,180.607 1046.95,188.607 1055.5,198.5C 980.487,264.178 905.154,329.511 829.5,394.5C 821.868,385.533 813.868,376.866 805.5,368.5C 805.167,367.833 804.833,367.167 804.5,366.5C 877.565,301.802 951.232,237.802 1025.5,174.5 Z"/></g>
<g><path style="opacity:0.998" fill="#e87554" d="M 1055.5,198.5 C 1062.94,205.268 1069.27,212.935 1074.5,221.5C 998.442,287.563 922.109,353.23 845.5,418.5C 844.18,416.537 842.846,414.537 841.5,412.5C 837.49,406.471 833.49,400.471 829.5,394.5C 905.154,329.511 980.487,264.178 1055.5,198.5 Z"/></g>
<g><path style="opacity:0.998" fill="#e87752" d="M 1074.5,221.5 C 1078.57,226.637 1081.91,232.304 1084.5,238.5C 1007.6,303.793 931.264,369.793 855.5,436.5C 852.182,430.535 848.849,424.535 845.5,418.5C 922.109,353.23 998.442,287.563 1074.5,221.5 Z"/></g>
<g><path style="opacity:0.999" fill="#e9794e" d="M 1084.5,238.5 C 1092.28,253.257 1097.44,268.924 1100,285.5C 1101.42,311.469 1101.92,337.469 1101.5,363.5C 1028.02,427.403 954.353,491.07 880.5,554.5C 882.006,519.676 876.006,486.342 862.5,454.5C 860.728,448.288 858.395,442.288 855.5,436.5C 931.264,369.793 1007.6,303.793 1084.5,238.5 Z"/></g>
<g><path style="opacity:1" fill="#fdfdfd" d="M 669.5,298.5 C 678.124,300.154 686.791,302.154 695.5,304.5C 719.201,311.402 741.534,321.402 762.5,334.5C 761.969,336.624 760.635,338.124 758.5,339C 740.102,350.525 721.769,362.025 703.5,373.5C 685.495,367.966 667.162,363.966 648.5,361.5C 626.732,359.711 605.065,360.544 583.5,364C 576.926,370.07 570.926,376.57 565.5,383.5C 533.729,422.412 515.063,467.078 509.5,517.5C 508.759,523.471 508.425,529.471 508.5,535.5C 507.053,568.691 507.386,602.025 509.5,635.5C 518.47,633.008 527.47,630.674 536.5,628.5C 539.848,632.847 543.848,636.514 548.5,639.5C 555.057,646.385 562.724,651.718 571.5,655.5C 577.862,659.844 584.862,662.844 592.5,664.5C 634.592,676.563 672.926,669.063 707.5,642C 732.69,620.632 746.69,593.465 749.5,560.5C 750.328,554.681 750.828,548.681 751,542.5C 751.499,547.155 751.666,551.821 751.5,556.5C 772.833,556.5 794.167,556.5 815.5,556.5C 815.5,546.833 815.5,537.167 815.5,527.5C 815.148,519.281 814.148,511.281 812.5,503.5C 805.186,495.187 797.186,487.521 788.5,480.5C 749.834,451.046 706.167,433.712 657.5,428.5C 650.864,427.552 644.197,426.885 637.5,426.5C 667.268,425.915 696.268,430.915 724.5,441.5C 750.577,452.121 774.411,466.455 796,484.5C 796.168,466.662 796.668,448.995 797.5,431.5C 799.5,433.167 801.5,434.833 803.5,436.5C 814.288,448.278 824.288,460.612 833.5,473.5C 859.029,512.581 872.696,555.581 874.5,602.5C 864.991,648.196 843.991,687.529 811.5,720.5C 811.667,677.165 811.5,633.832 811,590.5C 801.554,635.389 782.054,675.055 752.5,709.5C 733.367,729.708 712.034,747.041 688.5,761.5C 667.454,772.735 645.454,781.401 622.5,787.5C 606.988,790.788 591.322,792.621 575.5,793C 612.228,779.818 644.561,759.818 672.5,733C 651.887,734.453 631.221,734.786 610.5,734C 591.138,731.909 572.138,728.076 553.5,722.5C 545.499,718.562 537.166,715.062 528.5,712C 521.554,708.279 514.721,704.446 508,700.5C 507.82,722.518 507.154,744.518 506,766.5C 505.333,688.5 505.333,610.5 506,532.5C 507.404,500.823 514.238,470.49 526.5,441.5C 547.196,396.3 578.196,359.8 619.5,332C 618.167,325.667 618.167,319.333 619.5,313C 584.303,323.26 553.303,340.76 526.5,365.5C 513.754,375.578 502.754,387.245 493.5,400.5C 480.414,417.293 469.748,435.627 461.5,455.5C 449.974,482.288 443.474,510.288 442,539.5C 441.5,555.83 441.333,572.163 441.5,588.5C 420.129,586.8 398.796,584.8 377.5,582.5C 377.5,565.167 377.5,547.833 377.5,530.5C 381.372,476.781 400.205,429.114 434,387.5C 496.51,316.358 575.01,286.691 669.5,298.5 Z"/></g>
<g><path style="opacity:1" fill="#f3f5f6" d="M 526.5,441.5 C 526.5,416.167 526.5,390.833 526.5,365.5C 553.303,340.76 584.303,323.26 619.5,313C 618.167,319.333 618.167,325.667 619.5,332C 578.196,359.8 547.196,396.3 526.5,441.5 Z"/></g>
<g><path style="opacity:1" fill="#f6f7f8" d="M 762.5,334.5 C 764.833,335.833 767.167,337.167 769.5,338.5C 781.719,347.043 793.386,356.376 804.5,366.5C 804.833,367.167 805.167,367.833 805.5,368.5C 804.969,370.624 803.635,372.124 801.5,373C 786.833,382 772.167,391 757.5,400C 771.882,409.22 785.215,419.72 797.5,431.5C 796.668,448.995 796.168,466.662 796,484.5C 774.411,466.455 750.577,452.121 724.5,441.5C 724.174,421.591 724.507,401.757 725.5,382C 718.177,379.06 710.844,376.227 703.5,373.5C 721.769,362.025 740.102,350.525 758.5,339C 760.635,338.124 761.969,336.624 762.5,334.5 Z"/></g>
<g><path style="opacity:1" fill="#e9ecef" d="M 648.5,361.5 C 647.512,382.424 647.179,403.424 647.5,424.5C 641.158,424.334 634.825,424.5 628.5,425C 630.058,425.21 631.391,425.71 632.5,426.5C 608.698,424.661 586.698,429.995 566.5,442.5C 566.83,422.66 566.497,402.993 565.5,383.5C 570.926,376.57 576.926,370.07 583.5,364C 605.065,360.544 626.732,359.711 648.5,361.5 Z"/></g>
<g><path style="opacity:1" fill="#ea7e47" d="M 1101.5,363.5 C 1101.5,399.833 1101.5,436.167 1101.5,472.5C 1005.72,555.101 910.058,637.935 814.5,721C 813.255,721.791 811.922,722.291 810.5,722.5C 810.833,721.833 811.167,721.167 811.5,720.5C 843.991,687.529 864.991,648.196 874.5,602.5C 878.429,586.891 880.429,570.891 880.5,554.5C 954.353,491.07 1028.02,427.403 1101.5,363.5 Z"/></g>
<g><path style="opacity:1" fill="#edf0f2" d="M 526.5,365.5 C 526.5,390.833 526.5,416.167 526.5,441.5C 514.238,470.49 507.404,500.823 506,532.5C 505.333,610.5 505.333,688.5 506,766.5C 507.154,744.518 507.82,722.518 508,700.5C 514.721,704.446 521.554,708.279 528.5,712C 537.166,715.062 545.499,718.562 553.5,722.5C 544.289,740.922 535.622,759.589 527.5,778.5C 520.52,775.594 513.687,772.261 507,768.5C 506.667,789.833 506.333,811.167 506,832.5C 504.252,846.563 500.418,859.896 494.5,872.5C 494.833,714.999 494.5,557.666 493.5,400.5C 502.754,387.245 513.754,375.578 526.5,365.5 Z"/></g>
<g><path style="opacity:1" fill="#f1f3f5" d="M 648.5,361.5 C 667.162,363.966 685.495,367.966 703.5,373.5C 710.844,376.227 718.177,379.06 725.5,382C 724.507,401.757 724.174,421.591 724.5,441.5C 696.268,430.915 667.268,425.915 637.5,426.5C 635.833,426.5 634.167,426.5 632.5,426.5C 631.391,425.71 630.058,425.21 628.5,425C 634.825,424.5 641.158,424.334 647.5,424.5C 647.179,403.424 647.512,382.424 648.5,361.5 Z"/></g>
<g><path style="opacity:1" fill="#e4e8eb" d="M 565.5,383.5 C 566.497,402.993 566.83,422.66 566.5,442.5C 538.038,460.297 519.038,485.297 509.5,517.5C 515.063,467.078 533.729,422.412 565.5,383.5 Z"/></g>
<g><path style="opacity:1" fill="#f0f2f4" d="M 805.5,368.5 C 813.868,376.866 821.868,385.533 829.5,394.5C 833.49,400.471 837.49,406.471 841.5,412.5C 828.544,420.139 815.877,428.139 803.5,436.5C 801.5,434.833 799.5,433.167 797.5,431.5C 785.215,419.72 771.882,409.22 757.5,400C 772.167,391 786.833,382 801.5,373C 803.635,372.124 804.969,370.624 805.5,368.5 Z"/></g>
<g><path style="opacity:1" fill="#ebeef1" d="M 493.5,400.5 C 494.5,557.666 494.833,714.999 494.5,872.5C 488.581,886.753 480.248,899.419 469.5,910.5C 467.5,912.167 465.5,913.833 463.5,915.5C 462.833,762.167 462.167,608.833 461.5,455.5C 469.748,435.627 480.414,417.293 493.5,400.5 Z"/></g>
<g><path style="opacity:1" fill="#e46f5b" d="M 632.5,426.5 C 634.167,426.5 635.833,426.5 637.5,426.5C 644.197,426.885 650.864,427.552 657.5,428.5C 659.302,429.458 661.302,430.125 663.5,430.5C 611.859,475.138 560.192,519.804 508.5,564.5C 508.5,554.833 508.5,545.167 508.5,535.5C 508.425,529.471 508.759,523.471 509.5,517.5C 519.038,485.297 538.038,460.297 566.5,442.5C 586.698,429.995 608.698,424.661 632.5,426.5 Z"/></g>
<g><path style="opacity:1" fill="#e57258" d="M 663.5,430.5 C 678.816,434.988 692.482,442.321 704.5,452.5C 643.98,504.597 583.646,556.931 523.5,609.5C 514.729,595.854 509.729,580.854 508.5,564.5C 560.192,519.804 611.859,475.138 663.5,430.5 Z"/></g>
<g><path style="opacity:1" fill="#e9edef" d="M 841.5,412.5 C 842.846,414.537 844.18,416.537 845.5,418.5C 848.849,424.535 852.182,430.535 855.5,436.5C 858.395,442.288 860.728,448.288 862.5,454.5C 853.737,459.413 845.07,464.58 836.5,470C 834.937,470.759 833.937,471.926 833.5,473.5C 824.288,460.612 814.288,448.278 803.5,436.5C 815.877,428.139 828.544,420.139 841.5,412.5 Z"/></g>
<g><path style="opacity:1" fill="#e77356" d="M 704.5,452.5 C 715.23,460.563 724.23,470.229 731.5,481.5C 729.745,482.072 728.078,482.906 726.5,484C 667.27,536.071 607.936,587.905 548.5,639.5C 543.848,636.514 539.848,632.847 536.5,628.5C 531.415,622.658 527.082,616.325 523.5,609.5C 583.646,556.931 643.98,504.597 704.5,452.5 Z"/></g>
<g><path style="opacity:1" fill="#e8ebee" d="M 461.5,455.5 C 462.167,608.833 462.833,762.167 463.5,915.5C 459.833,918.833 456.167,922.167 452.5,925.5C 436.577,935.869 419.243,943.036 400.5,947C 394.888,948.131 389.221,948.631 383.5,948.5C 381.265,948.795 379.265,948.461 377.5,947.5C 407.257,926.022 426.59,897.355 435.5,861.5C 438.27,853.159 440.103,844.492 441,835.5C 441.5,820.504 441.667,805.504 441.5,790.5C 441.5,767.5 441.5,744.5 441.5,721.5C 441.5,677.167 441.5,632.833 441.5,588.5C 441.333,572.163 441.5,555.83 442,539.5C 443.474,510.288 449.974,482.288 461.5,455.5 Z"/></g>
<g><path style="opacity:1" fill="#e3e7eb" d="M 657.5,428.5 C 706.167,433.712 749.834,451.046 788.5,480.5C 769.833,481.167 751.167,481.833 732.5,482.5C 731.833,482.5 731.5,482.167 731.5,481.5C 724.23,470.229 715.23,460.563 704.5,452.5C 692.482,442.321 678.816,434.988 663.5,430.5C 661.302,430.125 659.302,429.458 657.5,428.5 Z"/></g>
<g><path style="opacity:1" fill="#ec8241" d="M 1101.5,472.5 C 1101.5,502.167 1101.5,531.833 1101.5,561.5C 895.846,739.156 690.513,917.156 485.5,1095.5C 451.167,1095.5 416.833,1095.5 382.5,1095.5C 514.796,981.207 646.796,866.54 778.5,751.5C 789.765,742.572 800.431,732.906 810.5,722.5C 811.922,722.291 813.255,721.791 814.5,721C 910.058,637.935 1005.72,555.101 1101.5,472.5 Z"/></g>
<g><path style="opacity:1" fill="#e87554" d="M 731.5,481.5 C 731.5,482.167 731.833,482.5 732.5,482.5C 736.787,490.075 740.787,497.742 744.5,505.5C 744.5,506.167 744.5,506.833 744.5,507.5C 688.039,556.124 631.705,604.957 575.5,654C 574.255,654.791 572.922,655.291 571.5,655.5C 562.724,651.718 555.057,646.385 548.5,639.5C 607.936,587.905 667.27,536.071 726.5,484C 728.078,482.906 729.745,482.072 731.5,481.5 Z"/></g>
<g><path style="opacity:1" fill="#eaeef0" d="M 788.5,480.5 C 797.186,487.521 805.186,495.187 812.5,503.5C 789.833,504.167 767.167,504.833 744.5,505.5C 740.787,497.742 736.787,490.075 732.5,482.5C 751.167,481.833 769.833,481.167 788.5,480.5 Z"/></g>
<g><path style="opacity:1" fill="#e2e6e9" d="M 862.5,454.5 C 876.006,486.342 882.006,519.676 880.5,554.5C 880.429,570.891 878.429,586.891 874.5,602.5C 872.696,555.581 859.029,512.581 833.5,473.5C 833.937,471.926 834.937,470.759 836.5,470C 845.07,464.58 853.737,459.413 862.5,454.5 Z"/></g>
<g><path style="opacity:1" fill="#e87752" d="M 744.5,507.5 C 746.726,514.635 748.06,521.968 748.5,529.5C 696.475,574.529 644.475,619.529 592.5,664.5C 584.862,662.844 577.862,659.844 571.5,655.5C 572.922,655.291 574.255,654.791 575.5,654C 631.705,604.957 688.039,556.124 744.5,507.5 Z"/></g>
<g><path style="opacity:1" fill="#f1f3f5" d="M 812.5,503.5 C 814.148,511.281 815.148,519.281 815.5,527.5C 814.566,528.568 814.232,529.901 814.5,531.5C 792.833,531.5 771.167,531.5 749.5,531.5C 749.167,530.833 748.833,530.167 748.5,529.5C 748.06,521.968 746.726,514.635 744.5,507.5C 744.5,506.833 744.5,506.167 744.5,505.5C 767.167,504.833 789.833,504.167 812.5,503.5 Z"/></g>
<g><path style="opacity:1" fill="#f6f7f7" d="M 815.5,527.5 C 815.5,537.167 815.5,546.833 815.5,556.5C 794.167,556.5 772.833,556.5 751.5,556.5C 751.666,551.821 751.499,547.155 751,542.5C 750.828,548.681 750.328,554.681 749.5,560.5C 749.5,550.833 749.5,541.167 749.5,531.5C 771.167,531.5 792.833,531.5 814.5,531.5C 814.232,529.901 814.566,528.568 815.5,527.5 Z"/></g>
<g><path style="opacity:1" fill="#e87850" d="M 748.5,529.5 C 748.833,530.167 749.167,530.833 749.5,531.5C 749.5,541.167 749.5,550.833 749.5,560.5C 746.69,593.465 732.69,620.632 707.5,642C 672.926,669.063 634.592,676.563 592.5,664.5C 644.475,619.529 696.475,574.529 748.5,529.5 Z"/></g>
<g><path style="opacity:0.998" fill="#e46b5e" d="M 376.5,552.5 C 376.5,563.167 376.5,573.833 376.5,584.5C 302.538,647.793 228.872,711.46 155.5,775.5C 155.5,764.833 155.5,754.167 155.5,743.5C 228.872,679.46 302.538,615.793 376.5,552.5 Z"/></g>
<g><path style="opacity:1" fill="#ed853c" d="M 1101.5,561.5 C 1101.5,582.833 1101.5,604.167 1101.5,625.5C 920.513,781.822 739.846,938.489 559.5,1095.5C 534.833,1095.5 510.167,1095.5 485.5,1095.5C 690.513,917.156 895.846,739.156 1101.5,561.5 Z"/></g>
<g><path style="opacity:0.998" fill="#e46e5b" d="M 376.5,584.5 C 376.5,616.167 376.5,647.833 376.5,679.5C 303.128,743.54 229.462,807.207 155.5,870.5C 155.5,838.833 155.5,807.167 155.5,775.5C 228.872,711.46 302.538,647.793 376.5,584.5 Z"/></g>
<g><path style="opacity:1" fill="#f3f1f2" d="M 508.5,535.5 C 508.5,545.167 508.5,554.833 508.5,564.5C 509.729,580.854 514.729,595.854 523.5,609.5C 527.082,616.325 531.415,622.658 536.5,628.5C 527.47,630.674 518.47,633.008 509.5,635.5C 507.386,602.025 507.053,568.691 508.5,535.5 Z"/></g>
<g><path style="opacity:0.999" fill="#ef8739" d="M 1101.5,625.5 C 1101.5,636.167 1101.5,646.833 1101.5,657.5C 932.57,802.76 764.237,948.76 596.5,1095.5C 584.167,1095.5 571.833,1095.5 559.5,1095.5C 739.846,938.489 920.513,781.822 1101.5,625.5 Z"/></g>
<g><path style="opacity:1" fill="#f6f7f8" d="M 377.5,582.5 C 398.796,584.8 420.129,586.8 441.5,588.5C 441.5,632.833 441.5,677.167 441.5,721.5C 420.193,719.321 398.86,717.321 377.5,715.5C 377.5,671.167 377.5,626.833 377.5,582.5 Z"/></g>
<g><path style="opacity:0.999" fill="#ef8836" d="M 1101.5,657.5 C 1101.5,674.5 1101.5,691.5 1101.5,708.5C 952.179,837.156 803.179,966.156 654.5,1095.5C 635.167,1095.5 615.833,1095.5 596.5,1095.5C 764.237,948.76 932.57,802.76 1101.5,657.5 Z"/></g>
<g><path style="opacity:1" fill="#f6f7f8" d="M 811.5,720.5 C 811.167,721.167 810.833,721.833 810.5,722.5C 800.431,732.906 789.765,742.572 778.5,751.5C 770.429,756.898 762.095,761.898 753.5,766.5C 752.503,747.674 752.17,728.674 752.5,709.5C 782.054,675.055 801.554,635.389 811,590.5C 811.5,633.832 811.667,677.165 811.5,720.5 Z"/></g>
<g><path style="opacity:0.998" fill="#e57158" d="M 376.5,679.5 C 376.5,698.833 376.5,718.167 376.5,737.5C 302.538,800.793 228.872,864.46 155.5,928.5C 155.5,909.167 155.5,889.833 155.5,870.5C 229.462,807.207 303.128,743.54 376.5,679.5 Z"/></g>
<g><path style="opacity:0.999" fill="#f08933" d="M 1101.5,708.5 C 1101.5,719.167 1101.5,729.833 1101.5,740.5C 964.237,858.093 827.57,976.426 691.5,1095.5C 679.167,1095.5 666.833,1095.5 654.5,1095.5C 803.179,966.156 952.179,837.156 1101.5,708.5 Z"/></g>
<g><path style="opacity:1" fill="#f1f3f4" d="M 752.5,709.5 C 752.17,728.674 752.503,747.674 753.5,766.5C 733.596,778.445 712.262,787.111 689.5,792.5C 689.828,781.986 689.494,771.653 688.5,761.5C 712.034,747.041 733.367,729.708 752.5,709.5 Z"/></g>
<g><path style="opacity:1" fill="#f2f4f6" d="M 377.5,715.5 C 398.86,717.321 420.193,719.321 441.5,721.5C 441.5,744.5 441.5,767.5 441.5,790.5C 420.193,788.321 398.86,786.321 377.5,784.5C 377.5,761.5 377.5,738.5 377.5,715.5 Z"/></g>
<g><path style="opacity:1" fill="#f0d7cc" d="M 377.5,530.5 C 377.5,547.833 377.5,565.167 377.5,582.5C 377.5,626.833 377.5,671.167 377.5,715.5C 377.5,738.5 377.5,761.5 377.5,784.5C 377.5,808.5 377.5,832.5 377.5,856.5C 377.5,886.833 377.5,917.167 377.5,947.5C 379.265,948.461 381.265,948.795 383.5,948.5C 381.393,949.468 379.059,949.802 376.5,949.5C 376.5,917.167 376.5,884.833 376.5,852.5C 376.5,843.833 376.5,835.167 376.5,826.5C 376.5,813.833 376.5,801.167 376.5,788.5C 376.5,771.5 376.5,754.5 376.5,737.5C 376.5,718.167 376.5,698.833 376.5,679.5C 376.5,647.833 376.5,616.167 376.5,584.5C 376.5,573.833 376.5,563.167 376.5,552.5C 376.175,544.981 376.508,537.648 377.5,530.5 Z"/></g>
<g><path style="opacity:1" fill="#e4e9ec" d="M 553.5,722.5 C 572.138,728.076 591.138,731.909 610.5,734C 631.221,734.786 651.887,734.453 672.5,733C 644.561,759.818 612.228,779.818 575.5,793C 591.322,792.621 606.988,790.788 622.5,787.5C 623.483,791.298 623.817,795.298 623.5,799.5C 615.466,799.698 607.466,799.365 599.5,798.5C 574.35,795.668 550.35,789.001 527.5,778.5C 535.622,759.589 544.289,740.922 553.5,722.5 Z"/></g>
<g><path style="opacity:0.998" fill="#e77356" d="M 376.5,737.5 C 376.5,754.5 376.5,771.5 376.5,788.5C 304.775,850.897 232.775,912.897 160.5,974.5C 156.932,959.386 155.265,944.053 155.5,928.5C 228.872,864.46 302.538,800.793 376.5,737.5 Z"/></g>
<g><path style="opacity:0.999" fill="#f08b2e" d="M 1101.5,740.5 C 1101.5,763.833 1101.5,787.167 1101.5,810.5C 991.513,905.156 881.846,1000.16 772.5,1095.5C 745.5,1095.5 718.5,1095.5 691.5,1095.5C 827.57,976.426 964.237,858.093 1101.5,740.5 Z"/></g>
<g><path style="opacity:0.999" fill="#ea7e47" d="M 778.5,751.5 C 646.796,866.54 514.796,981.207 382.5,1095.5C 355.831,1095.67 329.165,1095.5 302.5,1095C 290.492,1093.91 278.825,1091.41 267.5,1087.5C 329.167,1033.5 390.833,979.5 452.5,925.5C 456.167,922.167 459.833,918.833 463.5,915.5C 465.5,913.833 467.5,912.167 469.5,910.5C 513.134,873.534 556.467,836.201 599.5,798.5C 607.466,799.365 615.466,799.698 623.5,799.5C 645.842,800.165 667.842,797.831 689.5,792.5C 712.262,787.111 733.596,778.445 753.5,766.5C 762.095,761.898 770.429,756.898 778.5,751.5 Z"/></g>
<g><path style="opacity:1" fill="#eaedf0" d="M 688.5,761.5 C 689.494,771.653 689.828,781.986 689.5,792.5C 667.842,797.831 645.842,800.165 623.5,799.5C 623.817,795.298 623.483,791.298 622.5,787.5C 645.454,781.401 667.454,772.735 688.5,761.5 Z"/></g>
<g><path style="opacity:1" fill="#e97b4c" d="M 527.5,778.5 C 550.35,789.001 574.35,795.668 599.5,798.5C 556.467,836.201 513.134,873.534 469.5,910.5C 480.248,899.419 488.581,886.753 494.5,872.5C 500.418,859.896 504.252,846.563 506,832.5C 506.333,811.167 506.667,789.833 507,768.5C 513.687,772.261 520.52,775.594 527.5,778.5 Z"/></g>
<g><path style="opacity:1" fill="#eef1f4" d="M 377.5,784.5 C 398.86,786.321 420.193,788.321 441.5,790.5C 441.667,805.504 441.5,820.504 441,835.5C 440.103,844.492 438.27,853.159 435.5,861.5C 416.205,859.437 396.872,857.771 377.5,856.5C 377.5,832.5 377.5,808.5 377.5,784.5 Z"/></g>
<g><path style="opacity:0.998" fill="#e87554" d="M 376.5,788.5 C 376.5,801.167 376.5,813.833 376.5,826.5C 308.462,885.874 240.128,944.874 171.5,1003.5C 166.994,994.154 163.327,984.487 160.5,974.5C 232.775,912.897 304.775,850.897 376.5,788.5 Z"/></g>
<g><path style="opacity:0.999" fill="#f18d28" d="M 1101.5,810.5 C 1101.5,831.5 1101.5,852.5 1101.5,873.5C 1016.47,947.529 931.475,1021.53 846.5,1095.5C 821.833,1095.5 797.167,1095.5 772.5,1095.5C 881.846,1000.16 991.513,905.156 1101.5,810.5 Z"/></g>
<g><path style="opacity:0.998" fill="#e87752" d="M 376.5,826.5 C 376.5,835.167 376.5,843.833 376.5,852.5C 311.5,908.5 246.5,964.5 181.5,1020.5C 177.425,1015.36 174.092,1009.7 171.5,1003.5C 240.128,944.874 308.462,885.874 376.5,826.5 Z"/></g>
<g><path style="opacity:0.998" fill="#e9794e" d="M 376.5,852.5 C 376.5,884.833 376.5,917.167 376.5,949.5C 379.059,949.802 381.393,949.468 383.5,948.5C 389.221,948.631 394.888,948.131 400.5,947C 419.243,943.036 436.577,935.869 452.5,925.5C 390.833,979.5 329.167,1033.5 267.5,1087.5C 230.566,1075.54 201.899,1053.21 181.5,1020.5C 246.5,964.5 311.5,908.5 376.5,852.5 Z"/></g>
<g><path style="opacity:1" fill="#ebeef1" d="M 377.5,856.5 C 396.872,857.771 416.205,859.437 435.5,861.5C 426.59,897.355 407.257,926.022 377.5,947.5C 377.5,917.167 377.5,886.833 377.5,856.5 Z"/></g>
<g><path style="opacity:0.999" fill="#f28f22" d="M 1101.5,873.5 C 1101.5,890.833 1101.5,908.167 1101.5,925.5C 1078.39,944.767 1055.39,964.267 1032.5,984C 989.973,1021.03 947.64,1058.2 905.5,1095.5C 885.833,1095.5 866.167,1095.5 846.5,1095.5C 931.475,1021.53 1016.47,947.529 1101.5,873.5 Z"/></g>
<g><path style="opacity:0.989" fill="#f18e22" d="M 1101.5,925.5 C 1102.44,991.135 1075.11,1040.97 1019.5,1075C 983.674,1093.36 945.674,1100.19 905.5,1095.5C 947.64,1058.2 989.973,1021.03 1032.5,984C 1055.39,964.267 1078.39,944.767 1101.5,925.5 Z"/></g>
</svg>
